{"glyphs":{"0":{"ha":783,"x_min":64,"x_max":715,"o":"m 64 439 q 159 783 64 649 q 407 918 254 918 q 637 793 558 918 q 715 474 715 668 q 625 119 715 253 q 385 -14 535 -14 q 153 112 242 -14 q 64 439 64 238 m 306 817 q 220 659 249 765 q 192 458 192 553 q 253 188 192 299 q 414 76 315 76 q 472 86 443 76 q 559 244 532 140 q 586 454 586 349 q 531 719 586 611 q 369 826 475 826 q 306 817 339 826 z "},"1":{"ha":565,"x_min":35,"x_max":538,"o":"m 538 67 l 529 0 l 61 0 l 53 47 q 243 106 149 83 l 243 774 l 74 693 l 35 756 l 301 931 l 367 896 l 367 90 l 538 67 z "},"2":{"ha":757,"x_min":61,"x_max":678,"o":"m 678 229 q 640 0 665 90 l 86 0 l 61 89 l 383 451 q 501 688 501 592 q 465 788 501 744 q 356 832 429 832 q 200 806 288 832 l 175 632 l 96 633 q 83 783 83 708 l 85 843 q 371 931 229 931 q 559 860 482 931 q 636 685 636 790 q 606 563 636 624 q 456 367 575 503 l 215 110 l 219 97 l 558 117 l 603 240 l 678 229 z "},"3":{"ha":738,"x_min":83,"x_max":661,"o":"m 453 492 q 601 399 540 472 q 661 236 661 325 q 575 48 661 122 q 351 -26 489 -26 q 83 39 208 -26 l 108 164 q 407 88 261 88 q 485 96 450 88 q 536 224 536 151 q 476 351 536 299 q 306 403 417 403 l 207 399 l 204 493 l 228 493 q 421 553 360 497 q 482 686 482 610 q 435 799 482 754 q 306 843 389 843 q 210 828 260 843 l 185 675 l 104 676 q 92 803 92 751 l 93 856 q 347 931 201 931 q 539 866 464 931 q 614 706 614 801 q 573 581 614 639 q 453 492 532 522 z "},"4":{"ha":786,"x_min":35,"x_max":738,"o":"m 576 243 l 576 82 l 692 67 l 683 0 l 307 0 l 299 47 l 453 97 l 453 243 l 67 243 l 35 322 l 469 931 l 576 917 l 576 343 l 736 347 l 738 278 l 699 243 l 576 243 m 453 340 l 453 671 l 469 797 l 171 332 l 453 340 z "},"5":{"ha":760,"x_min":68,"x_max":683,"o":"m 361 543 q 592 466 501 543 q 683 263 683 389 q 597 54 683 136 q 378 -28 511 -28 q 219 -1 303 -28 q 68 71 135 26 l 122 185 q 421 85 269 85 l 496 92 q 564 235 564 153 q 500 378 564 329 q 344 426 436 426 q 183 394 267 426 l 115 454 l 164 903 l 636 903 l 638 840 q 625 678 638 753 l 546 676 l 531 793 l 253 806 l 225 518 q 361 543 275 543 z "},"6":{"ha":735,"x_min":56,"x_max":686,"o":"m 238 451 q 461 546 347 546 q 622 466 557 546 q 686 272 686 386 q 603 59 686 146 q 392 -28 519 -28 q 150 82 244 -28 q 56 363 56 192 q 113 615 56 490 q 293 827 169 740 q 604 922 417 914 l 606 782 l 400 782 q 244 620 300 736 q 188 372 188 504 q 249 151 188 238 q 425 64 310 64 l 449 65 q 554 251 554 119 q 515 390 554 332 q 410 449 476 449 q 269 394 344 449 l 238 451 z "},"7":{"ha":638,"x_min":35,"x_max":625,"o":"m 625 799 q 254 -15 408 456 l 126 21 q 510 789 281 450 l 500 801 l 142 786 l 126 669 l 47 671 q 35 839 35 746 l 36 903 l 575 903 l 625 799 z "},"8":{"ha":701,"x_min":56,"x_max":646,"o":"m 443 485 q 592 373 539 432 q 646 228 646 314 q 562 44 646 117 q 343 -28 478 -28 q 135 38 215 -28 q 56 208 56 104 q 250 458 56 361 q 76 697 76 551 q 153 863 76 797 q 356 928 231 928 q 545 869 472 928 q 618 719 618 811 q 443 485 618 585 m 200 711 q 247 606 200 649 q 382 518 293 564 q 503 700 503 600 q 459 808 503 764 q 346 851 415 851 q 249 831 301 851 q 200 711 200 771 m 476 78 q 519 206 519 151 q 317 425 519 325 q 225 339 257 393 q 193 225 193 285 q 238 106 193 154 q 364 57 283 57 q 476 78 414 57 z "},"9":{"ha":697,"x_min":42,"x_max":656,"o":"m 467 363 q 329 339 396 339 q 122 424 201 339 q 42 638 42 508 q 126 848 42 765 q 340 931 211 931 q 569 820 482 931 q 656 529 656 710 q 510 146 656 300 q 146 -11 364 -8 l 124 140 l 343 128 q 525 519 525 242 q 476 751 525 658 q 331 844 428 844 q 269 836 303 844 q 199 756 224 810 q 174 640 174 701 q 231 486 174 547 q 378 425 288 425 q 451 436 410 425 l 467 363 z "},"\u0000":{"ha":0,"x_min":0,"x_max":0,"o":""},"\r":{"ha":361,"x_min":0,"x_max":0,"o":""}," ":{"ha":368,"x_min":0,"x_max":0,"o":""}," ":{"ha":368,"x_min":0,"x_max":0,"o":""}," ":{"ha":694,"x_min":0,"x_max":0,"o":""}," ":{"ha":1319,"x_min":0,"x_max":0,"o":""}," ":{"ha":139,"x_min":0,"x_max":0,"o":""},"!":{"ha":413,"x_min":111,"x_max":301,"o":"m 122 883 q 211 911 150 911 q 293 881 276 911 l 246 292 l 167 292 l 122 883 m 200 172 q 301 72 290 139 q 217 -28 281 3 q 111 57 140 -12 q 200 172 124 133 z "},"\"":{"ha":476,"x_min":39,"x_max":468,"o":"m 39 660 q 97 936 85 783 l 135 964 l 235 942 l 233 929 q 131 631 207 760 l 39 660 m 272 660 q 331 936 318 783 l 368 964 l 468 942 l 467 929 q 364 631 440 760 l 272 660 z "},"#":{"ha":864,"x_min":83,"x_max":781,"o":"m 642 493 l 606 264 l 740 264 l 740 192 l 594 192 l 564 -12 l 476 0 l 506 192 l 306 192 l 275 -12 l 188 0 l 217 192 l 83 192 l 83 264 l 228 264 l 263 493 l 124 493 l 124 565 l 274 565 l 300 736 l 388 725 l 363 565 l 563 565 l 589 736 l 676 725 l 651 565 l 781 565 l 781 493 l 642 493 m 551 493 l 353 493 l 317 264 l 517 264 l 551 493 z "},"$":{"ha":736,"x_min":76,"x_max":678,"o":"m 678 239 q 613 69 678 138 q 449 -19 549 1 l 449 -201 l 361 -201 l 361 -28 q 202 0 285 -25 q 78 68 119 25 l 76 117 q 92 303 76 219 l 167 303 l 186 136 q 418 64 282 64 l 465 67 q 546 208 546 110 q 449 349 546 293 l 224 465 q 83 679 83 549 q 163 851 83 785 q 361 928 243 917 l 361 1090 l 447 1090 l 447 929 q 636 888 525 924 l 638 839 q 622 653 638 738 l 547 653 l 533 779 q 343 840 454 840 l 279 835 q 213 708 213 794 q 308 576 213 629 l 531 464 q 678 239 678 379 z "},"%":{"ha":1143,"x_min":83,"x_max":1060,"o":"m 83 603 q 140 751 83 688 q 279 815 197 815 q 419 751 361 815 q 476 599 476 688 q 422 453 476 513 q 286 394 367 394 q 143 455 203 394 q 83 603 83 515 m 833 808 l 901 751 l 279 -39 l 210 18 l 833 808 m 324 474 q 381 599 381 514 q 350 694 381 654 q 265 733 319 733 l 228 729 q 178 607 178 685 q 208 511 178 550 q 297 472 239 472 l 324 474 m 667 181 q 724 329 667 265 q 863 393 781 393 q 1002 329 944 393 q 1060 176 1060 265 q 1005 31 1060 90 q 869 -28 950 -28 q 726 33 786 -28 q 667 181 667 93 m 907 51 q 964 176 964 92 q 933 272 964 232 q 849 311 903 311 l 811 307 q 761 185 761 263 q 792 89 761 128 q 881 50 822 50 l 907 51 z "},"&":{"ha":925,"x_min":32,"x_max":953,"o":"m 921 461 l 881 482 q 751 518 814 518 l 719 517 q 775 306 775 411 q 674 61 775 157 q 406 -35 572 -35 q 138 51 244 -35 q 32 268 32 136 q 73 412 32 349 q 185 506 114 475 q 61 700 61 572 q 141 864 61 800 q 349 928 221 928 q 603 875 464 928 l 563 754 l 293 842 q 192 681 192 794 q 257 540 192 592 l 404 504 l 392 435 q 226 378 289 435 q 164 236 164 322 q 232 98 164 147 q 400 49 300 49 q 543 76 475 49 q 650 289 650 147 q 597 481 650 386 q 496 425 550 460 l 458 493 q 819 635 707 635 q 953 590 888 635 l 921 461 z "},"'":{"ha":235,"x_min":-29,"x_max":165,"o":"m -29 729 q 28 1006 21 865 l 65 1033 l 165 1011 q 61 700 147 853 l -29 729 z "},"(":{"ha":382,"x_min":33,"x_max":351,"o":"m 264 -215 q 33 408 33 101 q 279 1017 33 719 l 351 981 q 164 415 164 699 q 339 -178 164 119 l 264 -215 z "},")":{"ha":381,"x_min":31,"x_max":349,"o":"m 43 -178 q 218 415 218 119 q 31 981 218 699 l 103 1017 q 349 408 349 719 q 118 -215 349 101 l 43 -178 z "},"*":{"ha":513,"x_min":18,"x_max":496,"o":"m 260 843 l 204 839 l 169 1022 l 278 1049 l 260 843 m 296 804 l 275 856 l 438 946 l 496 850 l 296 804 m 217 818 l 204 764 l 18 786 l 28 899 l 217 818 m 276 758 l 319 794 l 457 667 l 382 582 l 276 758 m 224 765 l 271 736 l 193 565 l 89 610 l 224 765 z "},"+":{"ha":793,"x_min":83,"x_max":710,"o":"m 710 276 l 450 276 l 450 0 l 343 0 l 343 276 l 83 276 l 83 368 l 343 368 l 343 646 l 450 646 l 450 368 l 710 368 l 710 276 z "},",":{"ha":339,"x_min":58,"x_max":264,"o":"m 58 -150 q 153 0 146 -76 l 81 56 q 165 167 92 131 q 238 117 211 153 q 264 35 264 81 q 220 -95 264 -29 q 99 -203 176 -161 l 58 -150 z "},"-":{"ha":490,"x_min":42,"x_max":449,"o":"m 42 415 l 54 443 l 407 443 l 449 374 l 436 346 l 83 346 l 42 415 z "},".":{"ha":278,"x_min":113,"x_max":278,"o":"m 206 -46 q 113 26 146 -24 q 188 118 142 89 q 278 46 238 100 q 206 -46 254 -15 z "},"/":{"ha":560,"x_min":46,"x_max":560,"o":"m 472 982 l 560 944 l 135 -174 l 46 -139 l 472 982 z "},":":{"ha":454,"x_min":125,"x_max":315,"o":"m 315 499 q 231 399 294 429 q 125 483 154 414 q 214 599 138 560 q 315 499 304 567 m 315 72 q 231 -28 294 3 q 125 57 154 -12 q 214 172 138 133 q 315 72 304 140 z "},";":{"ha":340,"x_min":58,"x_max":265,"o":"m 265 499 q 181 399 244 429 q 75 483 104 414 q 164 599 88 560 q 265 499 254 565 m 58 -150 q 153 0 146 -76 l 81 56 q 165 167 92 131 q 238 117 211 153 q 264 35 264 81 q 220 -95 264 -29 q 99 -203 176 -161 l 58 -150 z "},"<":{"ha":796,"x_min":111,"x_max":685,"o":"m 685 619 l 228 335 l 229 326 l 681 72 l 635 -8 l 122 281 l 111 378 l 636 694 l 685 619 z "},"=":{"ha":822,"x_min":83,"x_max":739,"o":"m 739 422 l 83 422 l 83 513 l 739 513 l 739 422 m 739 172 l 83 172 l 83 263 l 739 263 l 739 172 z "},">":{"ha":796,"x_min":111,"x_max":685,"o":"m 160 694 l 685 378 l 674 281 l 161 -8 l 115 72 l 567 326 l 568 335 l 111 619 l 160 694 z "},"?":{"ha":808,"x_min":140,"x_max":651,"o":"m 388 931 q 576 859 500 931 q 651 685 651 788 q 575 521 651 592 l 465 426 q 413 322 413 376 l 300 322 q 324 430 300 382 q 422 535 349 478 q 517 627 494 592 q 540 711 540 663 q 471 846 540 793 q 254 786 368 853 l 240 646 l 161 646 l 140 842 q 388 931 257 931 m 375 172 q 476 72 465 140 q 392 -28 456 3 q 286 57 315 -12 q 375 172 299 133 z "},"@":{"ha":1439,"x_min":140,"x_max":1304,"o":"m 740 928 q 1050 854 922 928 q 1241 663 1178 781 q 1304 415 1304 546 q 1201 119 1304 240 q 925 -21 1097 -1 q 873 11 904 -18 q 826 75 842 40 l 671 -19 l 638 -21 q 503 26 554 -21 q 453 144 453 74 q 550 293 453 239 l 821 301 l 821 443 q 805 540 821 507 q 751 592 789 572 q 594 568 667 589 l 583 425 l 510 419 q 469 585 472 508 q 633 652 531 619 q 779 685 736 685 q 860 656 818 685 q 922 597 901 628 q 944 483 943 565 l 944 124 q 978 75 944 75 q 1035 97 999 75 q 1136 227 1100 140 q 1172 414 1172 314 q 1056 726 1172 607 q 747 844 940 844 q 410 715 542 844 q 278 388 278 585 q 407 25 278 193 l 322 -31 q 140 396 140 165 q 214 660 140 539 q 424 855 288 782 q 740 928 560 928 m 619 81 q 821 132 701 78 l 821 228 l 751 232 q 583 144 583 232 q 619 81 583 103 z "},"A":{"ha":967,"x_min":-28,"x_max":967,"o":"m 967 65 l 965 0 l 593 0 l 585 44 q 721 93 629 65 l 647 279 l 272 279 l 194 82 l 340 65 l 339 0 l -19 0 l -28 44 q 88 86 7 61 l 413 874 l 403 899 l 513 936 l 865 76 l 967 65 m 614 364 l 458 756 l 306 364 l 614 364 z "},"B":{"ha":860,"x_min":42,"x_max":811,"o":"m 564 482 q 746 402 681 468 q 811 249 811 336 q 716 73 811 142 q 464 0 621 4 l 50 0 l 42 44 l 160 88 l 160 831 l 61 836 l 63 903 q 425 914 293 914 q 672 852 581 914 q 763 683 763 790 q 713 550 763 607 q 564 482 663 493 m 289 811 l 289 511 l 358 511 q 556 558 492 511 q 619 674 619 606 q 580 776 619 729 q 479 832 540 822 l 289 811 m 428 85 l 458 83 q 608 131 556 83 q 661 246 661 178 q 597 378 661 322 q 436 436 533 433 l 289 436 l 289 96 l 428 85 z "},"C":{"ha":768,"x_min":21,"x_max":740,"o":"m 740 101 l 468 -21 q 143 103 265 -22 q 21 440 21 229 q 140 792 21 653 q 450 931 260 931 q 718 846 606 931 l 719 803 q 694 631 719 706 l 611 631 l 601 772 q 385 832 503 832 l 328 829 q 202 682 242 781 q 163 472 163 583 q 247 199 163 304 q 472 93 332 93 l 501 94 l 715 169 l 740 101 z "},"D":{"ha":910,"x_min":42,"x_max":882,"o":"m 475 914 q 765 780 649 914 q 882 457 882 646 q 760 131 882 257 q 442 0 639 6 l 50 0 l 42 44 l 160 88 l 160 831 l 61 836 l 63 903 q 475 914 282 914 m 418 92 q 650 194 563 92 q 738 457 738 296 q 683 685 738 581 q 544 832 628 789 l 289 811 l 289 110 q 418 92 357 92 z "},"E":{"ha":782,"x_min":42,"x_max":718,"o":"m 714 249 q 697 0 718 111 l 50 0 l 42 44 l 160 88 l 160 831 l 61 836 l 63 903 l 697 903 l 699 856 q 683 674 699 758 l 608 674 l 592 801 l 289 822 l 289 492 l 607 515 l 607 394 l 289 408 l 289 90 l 604 104 l 640 254 l 714 249 z "},"F":{"ha":767,"x_min":42,"x_max":699,"o":"m 697 903 l 699 856 q 683 674 699 758 l 608 674 l 592 801 l 289 822 l 289 464 l 607 488 l 607 367 l 289 381 l 289 85 l 451 65 l 450 0 l 50 0 l 42 44 l 160 88 l 160 831 l 61 836 l 63 903 l 697 903 z "},"G":{"ha":931,"x_min":21,"x_max":889,"o":"m 783 338 l 783 99 l 513 -28 l 478 -29 q 147 100 272 -29 q 21 432 21 229 q 74 676 21 563 q 236 860 128 790 q 499 931 344 931 q 776 846 665 931 l 778 813 q 753 644 778 733 l 671 644 l 660 768 q 406 833 540 833 l 340 829 q 206 675 250 779 q 163 443 163 571 q 249 179 163 283 q 475 75 336 75 q 654 106 556 75 l 654 315 q 501 369 558 343 l 510 418 l 888 418 l 889 350 l 783 338 z "},"H":{"ha":1043,"x_min":42,"x_max":1001,"o":"m 1001 65 l 1000 0 l 628 0 l 619 44 l 738 88 l 738 399 l 289 399 l 289 81 l 424 65 l 422 0 l 50 0 l 42 44 l 160 88 l 160 825 l 53 838 l 54 903 l 399 903 l 407 858 l 289 815 l 289 496 l 738 496 l 738 825 l 631 838 l 632 903 l 976 903 l 985 858 l 867 815 l 867 81 l 1001 65 z "},"I":{"ha":465,"x_min":42,"x_max":424,"o":"m 424 65 l 422 0 l 50 0 l 42 44 l 160 88 l 160 825 l 53 838 l 54 903 l 399 903 l 407 858 l 289 815 l 289 81 l 424 65 z "},"J":{"ha":482,"x_min":-6,"x_max":440,"o":"m 440 858 l 322 815 l 322 113 q 247 -94 322 -8 q 44 -253 171 -179 l -6 -182 q 143 -40 93 -119 q 193 178 193 39 l 193 822 l 58 838 l 60 903 l 432 903 l 440 858 z "},"K":{"ha":904,"x_min":42,"x_max":886,"o":"m 886 67 l 885 0 l 693 0 l 381 429 l 289 331 l 289 81 l 424 65 l 422 0 l 50 0 l 42 44 l 160 88 l 160 825 l 51 838 l 53 903 l 399 903 l 407 858 l 289 815 l 289 458 l 632 826 l 535 838 l 536 903 l 838 903 l 846 858 l 749 822 l 468 522 l 806 72 l 886 67 z "},"L":{"ha":761,"x_min":42,"x_max":744,"o":"m 742 276 q 725 0 744 113 l 50 0 l 42 44 l 160 88 l 160 825 l 53 838 l 54 903 l 399 903 l 407 858 l 289 815 l 289 93 l 628 107 l 664 282 l 742 276 z "},"M":{"ha":1251,"x_min":42,"x_max":1210,"o":"m 1210 65 l 1208 0 l 836 0 l 828 44 l 947 88 l 939 583 l 958 813 l 674 22 l 553 -10 l 260 801 l 286 583 l 274 79 l 390 65 l 389 0 l 50 0 l 42 44 q 165 89 82 64 l 192 825 l 82 838 l 83 903 l 363 903 l 633 150 l 900 903 l 1154 903 l 1163 858 q 1060 821 1128 842 l 1072 81 l 1210 65 z "},"N":{"ha":1035,"x_min":42,"x_max":993,"o":"m 993 858 l 875 815 l 875 0 l 732 -15 l 239 774 l 264 581 l 264 79 l 388 65 l 386 0 l 50 0 l 42 44 l 160 88 l 160 826 l 69 838 l 71 903 l 318 903 l 796 133 l 769 322 l 769 822 l 635 838 l 636 903 l 985 903 l 993 858 z "},"O":{"ha":906,"x_min":28,"x_max":878,"o":"m 446 931 q 756 793 635 931 q 878 440 878 656 q 760 101 878 231 q 457 -28 642 -28 q 149 104 269 -28 q 28 446 28 236 q 146 795 28 660 q 446 931 264 931 m 296 811 q 204 672 239 768 q 169 465 169 575 q 254 179 169 288 q 482 71 339 71 q 589 85 533 71 q 694 221 654 126 q 735 433 735 315 q 651 723 735 611 q 429 835 567 835 q 296 811 365 835 z "},"P":{"ha":807,"x_min":42,"x_max":779,"o":"m 450 914 q 688 833 596 914 q 779 626 779 751 q 695 426 779 507 q 478 340 611 344 l 289 340 l 289 85 l 451 65 l 450 0 l 50 0 l 42 44 l 160 88 l 160 831 l 61 836 l 63 903 l 450 914 m 431 421 q 586 482 535 421 q 638 631 638 543 q 610 752 638 697 q 529 832 582 807 l 289 811 l 289 433 q 431 421 372 421 z "},"Q":{"ha":960,"x_min":28,"x_max":1043,"o":"m 989 -225 l 543 -19 q 457 -28 501 -28 q 149 104 269 -28 q 28 446 28 236 q 146 795 28 660 q 446 931 264 931 q 756 793 635 931 q 878 440 878 656 q 817 180 878 286 q 656 21 757 74 l 1043 -89 l 989 -225 m 169 465 q 254 179 169 288 q 482 71 339 71 q 589 85 533 71 q 694 221 654 126 q 735 433 735 315 q 651 723 735 611 q 429 835 567 835 q 296 811 365 835 q 204 672 239 768 q 169 465 169 575 z "},"R":{"ha":886,"x_min":42,"x_max":865,"o":"m 865 65 l 864 0 l 653 0 l 454 361 l 289 360 l 289 82 l 438 65 l 436 0 l 50 0 l 42 44 l 160 88 l 160 831 l 61 836 l 63 903 l 450 914 q 688 838 597 914 q 779 646 779 763 q 728 488 779 563 q 582 381 676 414 l 771 74 l 865 65 m 289 451 q 407 442 351 442 q 586 502 535 442 q 638 646 638 563 q 529 832 638 779 l 289 811 l 289 451 z "},"S":{"ha":740,"x_min":76,"x_max":678,"o":"m 678 239 q 590 47 678 122 q 371 -28 503 -28 q 208 -2 296 -28 q 78 68 121 24 l 76 117 q 92 303 76 219 l 167 303 l 186 136 q 418 64 282 64 l 465 67 q 546 208 546 110 q 449 349 546 293 l 224 465 q 83 679 83 549 q 175 860 83 790 q 407 931 267 931 q 636 888 504 931 l 638 839 q 622 653 638 738 l 547 653 l 533 779 q 343 840 454 840 l 279 835 q 213 708 213 794 q 308 576 213 629 l 531 464 q 678 239 678 379 z "},"T":{"ha":829,"x_min":14,"x_max":815,"o":"m 814 911 l 815 863 q 800 676 815 761 l 725 676 l 707 815 l 479 824 l 479 83 l 638 65 l 636 0 l 207 0 l 199 44 l 350 92 l 350 824 l 122 815 l 104 676 l 29 676 q 14 863 14 761 l 15 911 q 415 906 188 906 q 814 911 646 906 z "},"U":{"ha":972,"x_min":14,"x_max":958,"o":"m 958 858 l 840 815 l 840 379 q 506 -25 831 -25 q 223 87 325 -25 q 121 393 121 199 l 121 825 l 14 838 l 15 903 l 360 903 l 368 858 l 250 815 l 250 379 q 319 158 250 236 q 511 79 388 79 q 643 107 578 79 q 738 379 738 174 l 738 824 l 614 838 l 615 903 l 950 903 l 958 858 z "},"V":{"ha":944,"x_min":0,"x_max":944,"o":"m 944 858 l 836 818 l 539 -3 q 399 -14 471 -17 l 110 825 l 0 838 l 1 903 l 372 903 l 381 858 l 254 813 l 447 246 l 465 82 l 472 82 l 729 822 l 603 838 l 604 903 l 936 903 l 944 858 z "},"W":{"ha":1276,"x_min":0,"x_max":1276,"o":"m 1276 858 q 1167 818 1228 836 l 935 -4 q 824 -15 876 -15 l 783 -14 l 633 517 l 631 517 l 604 360 l 490 -4 q 382 -15 432 -15 l 342 -14 l 104 825 l 0 838 l 1 903 l 358 903 l 367 858 l 244 814 l 401 243 l 417 82 l 422 82 l 592 664 l 539 853 l 671 888 l 835 240 l 854 82 l 858 82 l 1061 821 l 921 838 l 922 903 l 1268 903 l 1276 858 z "},"X":{"ha":931,"x_min":14,"x_max":917,"o":"m 917 65 l 915 0 l 567 0 l 558 44 q 656 81 600 64 l 447 396 l 242 79 l 365 65 l 364 0 l 22 0 l 14 44 q 125 85 60 65 l 394 476 l 161 826 l 67 838 l 68 903 l 383 903 l 392 858 l 311 828 l 494 556 l 656 825 l 553 838 l 554 903 l 860 903 l 868 858 q 764 819 828 839 l 543 482 l 817 75 l 917 65 z "},"Y":{"ha":829,"x_min":0,"x_max":829,"o":"m 474 79 l 588 65 l 586 0 l 244 0 l 236 44 l 344 85 l 344 350 l 86 828 l 0 838 l 1 903 l 317 903 l 325 858 q 232 824 292 842 l 383 539 l 419 426 l 426 426 l 624 825 l 514 838 l 515 903 l 821 903 l 829 858 q 731 822 781 836 l 474 346 l 474 79 z "},"Z":{"ha":797,"x_min":49,"x_max":749,"o":"m 749 257 q 713 0 739 143 l 78 0 l 49 63 l 574 817 l 193 803 l 175 650 l 100 650 q 85 851 85 735 l 86 903 l 707 903 l 736 839 l 218 103 l 624 106 l 668 268 l 749 257 z "},"[":{"ha":481,"x_min":138,"x_max":433,"o":"m 433 911 l 253 881 l 253 -61 l 433 -92 l 425 -169 l 138 -169 l 138 989 l 425 989 l 433 911 z "},"\\":{"ha":539,"x_min":6,"x_max":525,"o":"m 6 946 l 97 982 l 525 -142 l 431 -175 l 6 946 z "},"]":{"ha":486,"x_min":49,"x_max":344,"o":"m 344 989 l 344 -169 l 57 -169 l 49 -92 l 229 -61 l 229 881 l 49 911 l 57 989 l 344 989 z "},"^":{"ha":749,"x_min":56,"x_max":707,"o":"m 418 900 l 707 507 l 642 460 l 381 826 l 371 826 l 122 451 l 56 497 l 328 900 l 418 900 z "},"_":{"ha":739,"x_min":14,"x_max":725,"o":"m 725 -283 l 14 -283 l 14 -193 l 725 -193 l 725 -283 z "},"`":{"ha":396,"x_min":56,"x_max":354,"o":"m 282 738 q 56 936 176 838 l 157 1019 l 354 797 l 282 738 z "},"a":{"ha":704,"x_min":69,"x_max":683,"o":"m 683 43 l 543 -21 q 490 12 522 -18 q 444 75 458 42 l 288 -19 l 254 -21 q 120 26 171 -21 q 69 144 69 74 q 167 293 69 239 l 438 300 l 438 443 q 422 540 438 507 q 369 592 407 572 q 213 568 285 589 l 201 424 l 128 418 q 88 585 92 483 q 251 652 149 619 q 397 685 354 685 q 478 656 436 685 q 540 597 519 628 q 563 483 561 565 l 563 119 q 599 92 563 92 q 663 104 619 92 l 683 43 m 236 81 q 438 132 318 78 l 438 228 l 368 232 q 200 144 200 232 q 236 81 200 103 z "},"b":{"ha":722,"x_min":-28,"x_max":688,"o":"m 379 668 l 432 674 q 615 580 542 674 q 688 347 688 486 q 586 80 688 186 q 329 -26 485 -26 q 92 33 222 -26 l 92 921 l -11 913 l -28 978 q 161 1021 65 1018 l 215 971 l 215 564 l 379 668 m 439 69 q 525 172 493 103 q 557 319 557 242 q 508 489 557 418 q 386 560 460 560 q 215 490 319 560 l 215 117 q 385 65 286 65 l 439 69 z "},"c":{"ha":576,"x_min":28,"x_max":556,"o":"m 358 -21 q 118 73 208 -22 q 28 325 28 168 q 117 578 28 479 q 344 678 207 678 q 556 586 461 678 l 482 488 q 243 590 360 582 q 157 353 157 490 q 216 158 157 233 q 379 82 275 82 q 524 114 451 82 l 547 56 l 358 -21 z "},"d":{"ha":751,"x_min":28,"x_max":738,"o":"m 738 43 l 597 -21 q 542 13 575 -18 q 497 81 510 44 l 346 -21 q 118 78 208 -22 q 28 324 28 178 q 130 578 28 475 q 378 681 232 681 q 493 660 438 681 l 493 921 l 389 913 l 372 978 q 561 1021 465 1018 l 617 971 l 617 119 q 653 92 617 92 q 717 104 674 92 l 738 43 m 158 339 q 210 163 158 233 q 347 93 263 93 q 493 142 413 93 l 493 528 q 315 589 414 589 l 257 583 q 158 339 158 496 z "},"e":{"ha":626,"x_min":28,"x_max":596,"o":"m 158 364 q 222 156 158 226 q 386 85 285 85 q 564 131 461 85 l 585 71 l 368 -21 q 122 73 215 -21 q 28 314 28 167 q 120 571 28 464 q 346 678 213 678 q 476 646 418 678 q 565 558 533 614 q 594 435 596 503 l 515 357 l 158 364 m 276 593 q 169 438 197 551 l 474 451 q 405 558 460 518 q 276 593 350 599 z "},"f":{"ha":453,"x_min":21,"x_max":501,"o":"m 424 864 q 274 932 353 932 q 214 921 244 932 l 246 650 l 392 650 l 396 611 l 331 543 l 239 543 l 239 92 q 365 67 326 83 l 357 0 l 28 0 l 21 46 l 115 81 l 115 546 l 29 543 l 21 611 q 115 642 57 628 l 115 782 q 182 969 115 896 q 344 1043 249 1043 q 501 975 436 1043 l 424 864 z "},"g":{"ha":758,"x_min":46,"x_max":731,"o":"m 208 133 q 455 103 310 132 q 692 39 600 75 l 699 -21 q 582 -234 699 -147 q 306 -321 465 -321 q 122 -274 197 -321 q 46 -144 46 -226 l 47 -124 l 213 29 l 103 35 l 78 100 q 225 238 146 181 q 65 451 65 299 q 149 622 65 554 q 354 689 232 689 q 539 635 463 689 q 704 753 589 729 l 731 608 q 599 581 658 608 q 642 449 642 522 q 558 279 642 344 q 354 214 474 214 l 303 218 q 208 133 242 171 m 239 588 q 193 460 193 533 q 236 333 193 382 q 354 285 279 285 q 447 303 397 285 q 514 439 514 357 q 464 563 514 511 q 342 614 414 614 q 239 588 292 614 m 314 -208 q 492 -170 406 -208 q 617 -62 579 -132 q 296 21 528 -10 q 160 -132 160 -72 q 203 -187 160 -167 q 314 -208 246 -208 z "},"h":{"ha":817,"x_min":21,"x_max":789,"o":"m 689 89 q 789 67 758 81 l 781 0 l 493 0 l 486 46 l 565 76 l 565 411 q 476 561 565 561 q 265 461 399 561 l 265 88 q 356 67 324 81 l 347 0 l 46 0 l 39 46 l 142 83 l 142 921 l 38 913 l 21 978 q 210 1021 114 1018 l 265 972 l 265 536 q 543 672 469 672 q 624 631 583 665 q 677 561 665 597 q 689 426 689 525 l 689 89 z "},"i":{"ha":393,"x_min":21,"x_max":365,"o":"m 210 796 q 103 879 142 825 q 188 985 139 954 q 292 901 250 960 q 210 796 269 838 m 265 89 q 365 67 335 81 l 357 0 l 43 0 l 36 46 q 142 85 69 63 l 142 572 l 38 564 l 21 629 q 210 672 114 669 l 265 624 l 265 89 z "},"j":{"ha":378,"x_min":0,"x_max":297,"o":"m 215 794 q 108 878 147 824 q 193 983 144 953 q 297 900 256 958 q 215 794 275 836 m 26 629 q 215 672 119 669 l 271 624 l 271 -85 q 203 -206 271 -149 q 18 -292 135 -264 l 0 -229 q 117 -153 86 -200 q 147 -15 147 -106 l 147 572 l 43 564 l 26 629 z "},"k":{"ha":783,"x_min":21,"x_max":742,"o":"m 742 39 l 610 -21 q 525 43 564 -11 l 374 274 l 265 257 l 265 86 l 342 67 l 333 0 l 46 0 l 39 46 l 142 83 l 142 921 l 38 913 l 21 978 q 210 1021 114 1018 l 265 972 l 265 325 l 371 383 l 539 579 l 422 564 l 406 629 q 639 672 511 668 l 682 603 l 463 349 l 632 104 q 665 90 642 90 q 721 100 690 90 l 742 39 z "},"l":{"ha":414,"x_min":21,"x_max":365,"o":"m 265 89 q 365 67 335 81 l 357 0 l 43 0 l 36 46 q 142 85 69 63 l 142 921 l 38 913 l 21 978 q 210 1021 114 1018 l 265 972 l 265 89 z "},"m":{"ha":1219,"x_min":21,"x_max":1192,"o":"m 1094 89 q 1192 67 1165 79 l 1183 0 l 899 0 l 892 46 l 971 76 l 971 411 q 882 561 971 561 q 679 467 811 561 l 679 89 q 776 67 750 79 l 768 0 l 483 0 l 476 46 l 556 76 l 556 411 q 467 561 556 561 q 265 468 394 561 l 265 88 q 356 67 324 81 l 347 0 l 50 0 l 43 46 l 142 82 l 142 572 l 38 564 l 21 629 q 210 672 114 669 l 265 624 l 265 542 q 533 672 461 672 q 607 638 571 665 q 660 579 643 610 l 672 538 q 949 672 882 672 q 1030 631 989 665 q 1083 561 1071 597 q 1094 426 1094 525 l 1094 89 z "},"n":{"ha":819,"x_min":21,"x_max":792,"o":"m 694 89 q 792 67 765 79 l 783 0 l 499 0 l 492 46 l 571 76 l 571 411 q 482 561 571 561 q 265 457 401 561 l 265 88 q 356 67 324 81 l 347 0 l 50 0 l 43 46 l 142 82 l 142 572 l 38 564 l 21 629 q 210 672 114 669 l 265 624 l 265 532 q 549 672 474 672 q 630 631 589 665 q 683 561 671 597 q 694 426 694 525 l 694 89 z "},"o":{"ha":682,"x_min":28,"x_max":647,"o":"m 28 328 q 28 406 28 328 q 116 581 28 483 q 342 678 204 678 q 563 578 478 678 q 647 319 647 478 q 564 67 647 163 q 344 -28 481 -28 q 117 72 207 -28 q 28 328 28 172 m 426 72 q 517 304 517 132 q 471 510 517 428 q 331 592 425 592 q 225 561 268 592 q 160 343 160 483 q 210 143 160 224 q 360 63 261 63 q 426 72 392 63 z "},"p":{"ha":764,"x_min":21,"x_max":729,"o":"m 371 -26 q 264 -14 318 -26 l 264 -193 q 378 -217 340 -200 l 369 -283 l 56 -283 l 49 -237 l 140 -204 l 140 572 l 38 564 l 21 629 q 210 672 114 669 l 264 624 l 264 565 l 421 668 l 474 674 q 656 580 583 674 q 729 347 729 486 q 628 80 729 186 q 371 -26 526 -26 m 428 560 q 264 494 365 560 l 264 111 q 425 65 331 65 l 481 69 q 567 172 535 103 q 599 319 599 242 q 550 489 599 418 q 428 560 501 560 z "},"q":{"ha":733,"x_min":28,"x_max":692,"o":"m 613 -197 q 692 -217 663 -204 l 683 -283 l 365 -283 l 358 -237 l 489 -192 l 489 74 l 347 -21 q 119 77 210 -22 q 28 324 28 176 q 131 578 28 476 q 379 681 233 681 q 549 632 479 681 l 658 650 l 682 583 l 613 539 l 613 -197 m 349 93 q 489 138 413 93 l 489 532 q 317 590 410 590 l 258 583 q 160 339 160 496 q 212 163 160 233 q 349 93 264 93 z "},"r":{"ha":593,"x_min":21,"x_max":576,"o":"m 571 643 q 546 418 576 540 l 471 418 l 456 571 q 265 406 343 508 l 265 92 q 408 67 367 85 l 400 0 l 47 0 l 40 46 l 142 83 l 142 572 l 38 564 l 21 629 q 210 672 114 669 l 265 624 l 265 497 l 411 653 q 485 669 451 669 q 571 643 529 669 z "},"s":{"ha":582,"x_min":35,"x_max":519,"o":"m 171 514 q 207 443 171 469 q 318 383 243 417 l 400 346 q 519 174 519 283 q 453 28 519 85 q 281 -28 386 -28 q 35 44 165 -28 l 86 167 q 361 58 217 78 q 399 139 399 92 q 364 215 399 186 q 227 290 329 244 q 90 377 125 335 q 54 479 54 419 q 128 622 54 567 q 318 678 203 678 q 496 636 415 678 q 472 457 500 535 l 397 457 l 388 564 q 242 594 318 594 l 215 593 q 171 514 171 565 z "},"t":{"ha":476,"x_min":28,"x_max":447,"o":"m 293 94 q 421 126 333 94 l 444 63 l 264 -21 q 170 15 217 -24 q 124 97 124 53 l 124 546 l 38 544 l 28 611 q 126 643 72 631 l 182 818 l 247 818 l 247 650 l 442 650 l 447 610 l 382 543 l 247 543 l 247 169 q 257 110 247 126 q 293 94 267 94 z "},"u":{"ha":789,"x_min":0,"x_max":775,"o":"m 775 43 l 635 -21 q 580 14 613 -18 q 535 82 547 46 q 388 8 465 38 q 267 -21 310 -21 q 144 69 190 -4 q 121 196 122 101 l 121 572 l 17 564 l 0 629 q 189 672 93 669 l 244 624 l 244 206 q 336 86 249 86 q 531 158 413 86 l 531 572 l 426 564 l 410 629 q 599 672 503 669 l 654 624 l 654 119 q 690 92 654 92 q 754 104 711 92 l 775 43 z "},"v":{"ha":701,"x_min":-14,"x_max":715,"o":"m 715 600 l 628 567 q 424 4 501 194 q 335 -8 386 -8 l 263 -3 l 64 578 l -14 582 l -12 650 l 265 650 l 274 600 l 204 574 l 308 240 l 328 92 l 361 92 q 503 578 431 296 l 428 582 l 429 650 l 707 650 l 715 600 z "},"w":{"ha":1025,"x_min":-14,"x_max":1039,"o":"m 1039 600 l 951 567 l 785 8 q 675 -8 739 -8 q 617 -3 640 -8 l 511 306 l 500 244 l 403 8 q 301 -7 363 -7 l 242 -3 l 64 578 l -14 582 l -12 650 l 265 650 l 274 600 l 199 571 l 296 238 l 328 82 l 339 82 l 468 429 l 407 608 l 529 640 l 661 238 l 688 82 l 697 82 l 833 576 l 747 582 l 749 650 l 1031 650 l 1039 600 z "},"x":{"ha":750,"x_min":7,"x_max":729,"o":"m 638 88 q 729 67 699 81 l 721 0 l 438 0 l 431 46 l 510 76 l 358 272 l 222 86 q 304 67 272 79 l 296 0 l 14 0 l 7 46 l 92 78 l 304 342 l 122 576 l 43 582 l 44 650 l 315 650 l 324 600 l 267 578 l 393 411 l 515 578 l 442 582 l 443 650 l 696 650 l 704 600 l 621 568 l 443 344 l 638 88 z "},"y":{"ha":699,"x_min":-14,"x_max":713,"o":"m 713 600 l 624 567 q 461 78 544 310 q 333 -139 408 -46 q 143 -301 258 -232 l 74 -175 q 332 -6 243 -104 q 258 38 288 10 l 63 578 l -14 582 l -12 650 l 279 650 l 288 600 l 207 569 l 313 253 l 336 93 l 363 93 q 503 578 442 313 l 419 582 l 421 650 l 704 650 l 713 600 z "},"z":{"ha":669,"x_min":42,"x_max":635,"o":"m 635 194 q 603 -14 631 81 l 156 26 l 103 -21 l 42 29 l 439 567 l 167 558 l 150 419 l 82 419 q 67 579 67 485 l 69 650 l 542 650 l 585 681 l 632 639 l 243 113 l 535 99 l 564 204 l 635 194 z "},"{":{"ha":582,"x_min":96,"x_max":461,"o":"m 443 -201 q 270 -129 340 -192 q 200 17 200 -67 l 200 224 q 176 338 199 310 q 96 372 153 367 l 104 454 q 182 497 164 460 q 200 615 200 535 l 200 779 q 263 933 200 868 q 453 1013 326 999 l 461 911 l 332 911 l 332 622 q 263 422 332 511 l 263 410 q 332 219 329 322 l 332 -83 l 457 -100 l 443 -201 z "},"|":{"ha":407,"x_min":149,"x_max":256,"o":"m 149 1021 l 256 1021 l 256 -312 l 149 -312 l 149 1021 z "},"}":{"ha":590,"x_min":124,"x_max":489,"o":"m 128 -100 l 253 -83 l 253 219 q 322 410 256 322 l 322 422 q 253 622 253 511 l 253 911 l 124 911 l 132 1013 q 322 933 258 999 q 385 779 385 868 l 385 615 q 403 497 385 535 q 481 454 421 460 l 489 372 q 409 338 432 367 q 385 224 386 310 l 385 17 q 315 -129 385 -67 q 142 -201 244 -192 l 128 -100 z "},"~":{"ha":832,"x_min":126,"x_max":717,"o":"m 126 314 q 217 433 181 396 q 290 471 254 471 q 399 435 325 471 l 561 351 l 678 449 l 717 414 q 624 285 656 321 q 565 250 592 250 q 415 310 538 250 q 289 363 315 363 q 176 275 256 363 l 126 314 z "},"¡":{"ha":413,"x_min":111,"x_max":301,"o":"m 122 -235 q 211 -262 150 -262 q 293 -232 276 -262 l 246 357 l 167 357 l 122 -235 m 200 476 q 301 576 290 510 q 217 676 281 646 q 111 592 140 661 q 200 476 124 515 z "},"¢":{"ha":576,"x_min":28,"x_max":556,"o":"m 547 92 l 378 28 l 378 -160 l 292 -160 l 292 25 q 97 130 165 43 q 28 338 28 217 q 101 552 28 464 q 292 657 174 640 l 292 840 l 378 840 l 378 660 q 556 578 475 650 l 482 488 q 243 581 358 575 q 157 364 157 489 q 216 184 157 253 q 379 115 275 115 q 524 144 454 115 l 547 92 z "},"£":{"ha":710,"x_min":14,"x_max":654,"o":"m 654 185 q 642 0 654 71 l 22 0 l 14 44 l 108 79 q 183 339 183 213 l 182 371 l 58 371 l 50 411 l 110 460 l 169 460 l 119 643 l 115 688 q 195 859 115 788 q 399 931 275 931 q 610 888 478 931 l 611 839 q 596 653 611 738 l 521 656 l 501 800 q 338 846 440 846 l 296 844 q 239 692 239 800 q 269 538 239 640 l 288 474 l 515 474 l 524 433 l 464 385 l 306 385 l 307 344 q 215 92 307 215 l 544 107 l 575 243 l 653 238 l 654 185 z "},"¤":{"ha":708,"x_min":83,"x_max":625,"o":"m 592 497 q 539 332 592 399 l 622 242 l 561 182 l 475 275 q 351 242 419 242 q 233 274 286 242 l 156 179 l 92 236 l 168 331 q 114 494 114 403 q 167 653 114 583 l 83 747 l 149 804 l 233 710 q 361 744 292 744 q 482 711 428 744 l 558 803 l 625 749 l 546 653 q 592 497 592 586 m 432 329 q 474 382 454 336 q 493 482 493 428 q 453 607 493 554 q 324 660 414 660 l 272 654 q 228 590 246 633 q 211 499 211 547 q 251 375 211 426 q 376 324 292 324 l 432 329 z "},"¥":{"ha":829,"x_min":-28,"x_max":801,"o":"m 446 331 l 446 238 l 629 238 l 638 197 l 578 163 l 446 163 l 446 79 l 560 65 l 558 0 l 217 0 l 208 44 l 317 85 l 317 163 l 156 163 l 147 203 l 207 238 l 317 238 l 317 331 l 156 331 l 147 371 l 207 406 l 286 406 l 58 828 l -28 838 l -26 903 l 289 903 l 297 858 q 204 824 264 842 l 356 539 l 392 426 l 399 426 l 596 825 l 486 838 l 488 903 l 793 903 l 801 858 q 703 822 753 836 l 478 406 l 629 406 l 638 365 l 578 331 l 446 331 z "},"¦":{"ha":407,"x_min":149,"x_max":256,"o":"m 149 856 l 256 856 l 256 497 l 149 497 l 149 856 m 149 253 l 256 253 l 256 -106 l 149 -106 l 149 253 z "},"§":{"ha":719,"x_min":79,"x_max":664,"o":"m 569 168 q 650 22 650 113 q 570 -140 650 -75 q 375 -204 490 -204 q 232 -183 311 -204 q 97 -122 153 -162 l 149 -4 q 435 -94 294 -94 q 504 -85 475 -94 q 542 3 542 -43 q 453 107 542 69 l 357 143 q 150 242 221 189 q 79 381 79 296 q 169 550 79 475 q 92 700 92 610 q 182 865 92 800 q 403 931 272 931 q 632 888 500 931 l 633 839 q 618 653 633 738 l 543 656 l 525 796 q 365 838 454 838 q 264 825 317 838 q 210 708 210 776 q 294 607 210 643 l 501 525 q 664 328 664 453 q 569 168 664 240 m 185 403 q 219 331 185 361 q 383 257 254 301 l 500 210 q 551 303 551 256 q 454 424 551 382 l 293 483 l 239 507 q 185 403 185 460 z "},"¨":{"ha":529,"x_min":38,"x_max":483,"o":"m 201 853 q 128 765 185 790 q 38 839 63 782 q 114 940 43 907 q 201 853 190 911 m 483 853 q 410 765 467 790 q 319 839 344 782 q 396 940 325 907 q 483 853 472 911 z "},"©":{"ha":1153,"x_min":86,"x_max":1065,"o":"m 576 -26 q 229 114 372 -26 q 86 460 86 254 q 228 809 86 665 q 575 953 371 953 q 922 809 778 953 q 1065 461 1065 665 q 924 115 1065 257 q 576 -26 782 -26 m 574 58 q 862 177 743 58 q 981 464 981 296 q 861 750 981 632 q 576 868 742 868 q 290 749 410 868 q 171 460 171 629 q 288 174 171 290 q 574 58 406 58 m 596 185 q 397 263 474 186 q 321 457 321 340 q 397 655 321 575 q 592 735 474 735 q 799 635 722 735 l 717 560 q 510 656 632 651 q 425 474 425 582 q 474 340 425 394 q 610 285 522 285 q 761 322 678 285 l 785 264 l 596 185 z "},"ª":{"ha":561,"x_min":42,"x_max":519,"o":"m 319 619 l 319 706 q 274 804 319 781 q 171 792 204 801 l 165 692 l 107 685 q 86 797 86 739 q 185 847 113 825 q 294 869 257 869 q 374 832 335 869 q 415 756 413 794 l 417 503 q 440 483 417 483 l 483 490 l 496 450 l 397 403 q 358 424 381 404 q 326 468 336 444 l 222 403 q 112 433 151 400 q 72 514 72 465 q 128 614 72 571 l 319 619 m 182 472 q 319 506 238 472 l 319 568 l 272 569 q 164 511 164 569 q 182 472 164 488 m 519 354 l 519 283 l 42 283 l 42 354 l 519 354 z "},"«":{"ha":703,"x_min":83,"x_max":619,"o":"m 269 643 l 347 601 l 221 351 l 354 113 l 278 64 l 83 324 l 83 379 l 269 643 m 535 643 l 613 601 l 486 351 l 619 113 l 543 64 l 349 324 l 349 379 l 535 643 z "},"¬":{"ha":822,"x_min":83,"x_max":739,"o":"m 739 0 l 632 0 l 632 276 l 83 276 l 83 367 l 739 367 l 739 0 z "},"­":{"ha":490,"x_min":42,"x_max":449,"o":"m 42 415 l 54 443 l 407 443 l 449 374 l 436 346 l 83 346 l 42 415 z "},"®":{"ha":792,"x_min":22,"x_max":769,"o":"m 396 1067 q 477 1067 396 1067 q 664 963 558 1067 q 769 699 769 860 q 664 435 769 538 q 393 333 558 333 q 126 436 229 333 q 22 700 22 539 q 128 963 22 860 q 396 1067 233 1067 m 390 390 q 622 476 533 390 q 711 699 711 561 q 624 924 711 836 q 396 1013 536 1013 q 168 924 256 1013 q 81 696 81 836 q 165 474 81 558 q 390 390 250 390 m 556 561 l 603 557 l 601 518 l 489 518 l 403 661 l 329 661 l 329 563 l 397 557 l 396 518 l 200 518 l 194 549 l 251 571 l 251 857 l 199 861 l 199 903 l 396 903 q 522 869 476 903 q 567 783 567 835 q 481 675 567 706 l 556 561 m 329 713 l 361 711 q 483 783 483 711 q 424 856 483 832 l 329 847 l 329 713 z "},"¯":{"ha":571,"x_min":69,"x_max":557,"o":"m 550 876 l 557 828 l 492 781 l 78 781 l 69 842 q 226 876 138 876 l 550 876 z "},"°":{"ha":490,"x_min":42,"x_max":407,"o":"m 42 701 q 94 832 42 779 q 222 885 146 885 q 353 832 300 885 q 407 701 407 779 q 357 569 407 619 q 228 519 307 519 q 96 570 150 519 q 42 701 42 621 m 285 593 q 325 688 325 629 q 294 776 325 738 q 213 815 263 815 q 156 803 186 815 q 122 710 122 764 q 153 623 122 660 q 238 586 185 586 q 285 593 264 586 z "},"±":{"ha":738,"x_min":83,"x_max":654,"o":"m 654 446 l 422 446 l 422 192 l 315 192 l 315 446 l 83 446 l 83 532 l 315 532 l 315 782 l 422 782 l 422 532 l 654 532 l 654 446 m 640 0 l 93 0 l 92 86 l 640 86 l 640 0 z "},"²":{"ha":388,"x_min":28,"x_max":356,"o":"m 356 685 l 340 592 l 47 592 l 28 643 l 171 785 q 244 908 244 861 q 222 967 244 946 q 165 988 199 988 l 121 982 l 99 878 l 43 878 q 33 972 33 926 l 35 996 q 182 1043 107 1043 q 294 1003 254 1043 q 335 910 335 963 q 286 797 335 856 q 138 664 238 739 l 140 656 l 356 685 z "},"³":{"ha":399,"x_min":42,"x_max":358,"o":"m 251 822 q 328 785 297 818 q 358 703 358 751 q 313 610 358 643 q 197 578 267 578 q 42 614 121 578 l 68 697 q 251 644 175 639 q 276 697 276 665 q 247 754 276 731 q 164 778 218 778 l 118 778 l 118 835 l 144 835 q 225 865 200 838 q 250 922 250 892 q 226 972 250 954 q 167 990 203 990 l 147 989 l 115 900 l 67 901 q 58 976 58 939 l 60 1003 q 193 1043 115 1043 q 294 1011 253 1043 q 336 931 336 979 q 251 824 336 846 l 251 822 z "},"⁴":{"ha":399,"x_min":7,"x_max":369,"o":"m 369 757 l 369 721 l 351 693 l 293 693 l 293 635 l 350 626 l 347 592 l 136 592 l 132 614 q 206 642 168 632 l 206 693 l 22 693 l 7 735 l 222 1043 l 293 1028 l 293 757 l 369 757 m 206 756 l 206 876 l 219 936 l 101 754 l 206 756 z "},"´":{"ha":396,"x_min":42,"x_max":340,"o":"m 42 797 l 239 1019 l 340 936 q 114 738 218 835 l 42 797 z "},"µ":{"ha":751,"x_min":83,"x_max":738,"o":"m 738 43 l 597 -21 q 544 13 575 -18 q 499 78 513 43 q 342 6 419 32 q 229 -21 265 -21 q 164 32 203 -21 l 158 32 l 221 -286 q 111 -314 181 -314 l 83 -312 l 83 650 q 207 678 135 678 l 207 222 q 310 88 207 88 q 493 151 379 88 l 493 650 q 617 678 544 678 l 617 119 q 653 92 617 92 q 717 104 674 92 l 738 43 z "},"¶":{"ha":847,"x_min":0,"x_max":799,"o":"m 799 -164 l 797 -229 l 574 -229 l 574 835 l 463 842 l 463 -229 l 217 -229 l 208 -181 q 372 -131 281 -149 l 372 833 q 193 635 193 801 q 211 545 193 585 q 272 453 229 506 l 219 401 q 58 510 115 438 q 0 671 0 583 q 99 873 0 794 q 360 951 199 951 l 404 950 l 778 897 l 768 818 l 664 826 l 664 -149 l 799 -164 z "},"·":{"ha":276,"x_min":42,"x_max":207,"o":"m 135 265 q 42 338 75 288 q 117 429 71 400 q 207 357 167 411 q 135 265 183 296 z "},"¸":{"ha":347,"x_min":42,"x_max":306,"o":"m 144 -82 q 264 -117 222 -82 q 306 -199 306 -153 q 60 -368 306 -317 l 42 -321 q 153 -264 114 -299 q 193 -197 193 -229 q 85 -146 193 -137 l 47 -92 l 135 8 l 203 8 l 144 -82 z "},"¹":{"ha":321,"x_min":0,"x_max":279,"o":"m 279 626 l 276 592 l 28 592 l 24 614 q 110 646 57 632 l 110 946 l 21 908 l 0 947 l 154 1043 l 197 1015 l 197 640 l 279 626 z "},"º":{"ha":575,"x_min":28,"x_max":506,"o":"m 51 635 q 115 806 51 738 q 268 874 178 874 q 417 806 357 874 q 478 629 478 738 q 418 461 478 525 q 265 397 358 397 q 112 464 172 397 q 51 635 51 531 m 326 467 q 360 511 343 474 q 376 610 376 549 q 346 749 376 688 q 244 811 315 811 q 201 803 222 811 q 166 741 181 788 q 151 640 151 694 q 183 513 151 564 q 283 461 215 461 l 326 467 m 506 283 l 28 283 l 28 354 l 506 354 l 506 283 z "},"»":{"ha":703,"x_min":83,"x_max":619,"o":"m 160 64 l 83 113 l 217 351 l 90 601 l 168 643 l 354 379 l 354 324 l 160 64 m 425 64 l 349 113 l 482 351 l 356 601 l 433 643 l 619 379 l 619 324 l 425 64 z "},"¼":{"ha":889,"x_min":0,"x_max":863,"o":"m 279 514 l 276 479 l 28 479 l 24 501 q 110 533 57 519 l 110 833 l 21 796 l 0 835 l 154 931 l 197 903 l 197 528 l 279 514 m 801 922 l 863 860 l 68 28 l 4 89 l 801 922 m 860 165 l 860 129 l 842 101 l 783 101 l 783 43 l 840 35 l 838 0 l 626 0 l 622 22 q 696 50 658 40 l 696 101 l 513 101 l 497 143 l 713 451 l 783 436 l 783 165 l 860 165 m 696 164 l 696 285 l 710 344 l 592 163 l 696 164 z "},"½":{"ha":876,"x_min":0,"x_max":863,"o":"m 279 514 l 276 479 l 28 479 l 24 501 q 110 533 57 519 l 110 833 l 21 796 l 0 835 l 154 931 l 197 903 l 197 528 l 279 514 m 801 922 l 863 860 l 68 28 l 4 89 l 801 922 m 846 93 l 831 0 l 538 0 l 518 51 l 661 193 q 735 317 735 269 q 712 375 735 354 q 656 396 689 396 l 611 390 l 589 286 l 533 286 q 524 381 524 335 l 525 404 q 672 451 597 451 q 785 411 744 451 q 825 318 825 371 q 776 206 825 264 q 628 72 728 147 l 631 64 l 846 93 z "},"¾":{"ha":954,"x_min":50,"x_max":928,"o":"m 260 710 q 336 672 306 706 q 367 590 367 639 q 321 498 367 531 q 206 465 275 465 q 50 501 129 465 l 76 585 q 260 532 183 526 q 285 585 285 553 q 256 642 285 618 q 172 665 226 665 l 126 665 l 126 722 l 153 722 q 233 752 208 725 q 258 810 258 779 q 235 860 258 842 q 175 878 211 878 l 156 876 l 124 788 l 75 789 q 67 864 67 826 l 68 890 q 201 931 124 931 q 303 899 261 931 q 344 818 344 867 q 260 711 344 733 l 260 710 m 867 922 l 928 860 l 133 28 l 69 89 l 867 922 m 925 165 l 925 129 l 907 101 l 849 101 l 849 43 l 906 35 l 903 0 l 692 0 l 688 22 q 761 50 724 40 l 761 101 l 578 101 l 563 143 l 778 451 l 849 436 l 849 165 l 925 165 m 761 164 l 761 285 l 775 344 l 657 163 l 761 164 z "},"¿":{"ha":808,"x_min":140,"x_max":651,"o":"m 404 -278 q 216 -206 292 -278 q 140 -32 140 -135 q 217 132 140 61 l 326 226 q 379 331 379 276 l 492 331 q 467 223 492 271 q 370 118 443 175 q 274 26 297 61 q 251 -58 251 -10 q 321 -193 251 -140 q 538 -133 424 -200 l 551 7 l 631 7 l 651 -189 q 404 -278 535 -278 m 417 481 q 315 581 326 513 q 400 681 336 650 q 506 596 476 665 q 417 481 493 519 z "},"À":{"ha":967,"x_min":-28,"x_max":967,"o":"m 967 65 l 965 0 l 593 0 l 585 44 q 721 93 629 65 l 647 279 l 272 279 l 194 82 l 340 65 l 339 0 l -19 0 l -28 44 q 88 86 7 61 l 413 874 l 403 899 l 513 936 l 865 76 l 967 65 m 614 364 l 458 756 l 306 364 l 614 364 m 614 961 l 281 1097 l 350 1214 l 663 1040 l 614 961 z "},"Á":{"ha":967,"x_min":-28,"x_max":967,"o":"m 967 65 l 965 0 l 593 0 l 585 44 q 721 93 629 65 l 647 279 l 272 279 l 194 82 l 340 65 l 339 0 l -19 0 l -28 44 q 88 86 7 61 l 413 874 l 403 899 l 513 936 l 865 76 l 967 65 m 614 364 l 458 756 l 306 364 l 614 364 m 624 1214 l 693 1097 l 360 961 l 311 1040 l 624 1214 z "},"Â":{"ha":967,"x_min":-28,"x_max":967,"o":"m 967 65 l 965 0 l 593 0 l 585 44 q 721 93 629 65 l 647 279 l 272 279 l 194 82 l 340 65 l 339 0 l -19 0 l -28 44 q 88 86 7 61 l 413 874 l 403 899 l 513 936 l 865 76 l 967 65 m 614 364 l 458 756 l 306 364 l 614 364 m 400 1213 l 524 1213 l 726 1025 l 668 967 l 465 1113 l 268 967 l 207 1025 l 400 1213 z "},"Ã":{"ha":967,"x_min":-28,"x_max":967,"o":"m 967 65 l 965 0 l 593 0 l 585 44 q 721 93 629 65 l 647 279 l 272 279 l 194 82 l 340 65 l 339 0 l -19 0 l -28 44 q 88 86 7 61 l 413 874 l 403 899 l 513 936 l 865 76 l 967 65 m 614 364 l 458 756 l 306 364 l 614 364 m 182 1040 q 273 1160 236 1122 q 346 1197 310 1197 q 454 1161 381 1197 l 617 1078 l 733 1175 l 772 1140 q 679 1012 711 1047 q 621 976 647 976 q 471 1036 593 976 q 344 1089 371 1089 q 232 1001 311 1089 l 182 1040 z "},"Ä":{"ha":967,"x_min":-28,"x_max":967,"o":"m 967 65 l 965 0 l 593 0 l 585 44 q 721 93 629 65 l 647 279 l 272 279 l 194 82 l 340 65 l 339 0 l -19 0 l -28 44 q 88 86 7 61 l 413 874 l 403 899 l 513 936 l 865 76 l 967 65 m 614 364 l 458 756 l 306 364 l 614 364 m 406 1106 q 332 1018 389 1043 q 242 1092 267 1035 q 318 1193 247 1160 q 406 1106 394 1164 m 688 1106 q 614 1018 671 1043 q 524 1092 549 1035 q 600 1193 529 1160 q 688 1106 676 1164 z "},"Å":{"ha":967,"x_min":-28,"x_max":967,"o":"m 967 65 l 965 0 l 593 0 l 585 44 q 721 93 629 65 l 647 279 l 272 279 l 194 82 l 340 65 l 339 0 l -19 0 l -28 44 q 88 86 7 61 l 413 874 l 403 899 l 513 936 l 865 76 l 967 65 m 614 364 l 458 756 l 306 364 l 614 364 m 314 1138 q 357 1245 314 1201 q 464 1289 400 1289 q 572 1245 528 1289 q 615 1135 615 1201 q 574 1029 615 1071 q 469 988 533 988 q 359 1029 404 988 q 314 1138 314 1071 m 385 1124 q 385 1106 385 1124 q 408 1067 385 1089 q 467 1044 432 1044 q 523 1066 501 1044 q 544 1122 544 1088 q 522 1181 544 1157 q 465 1204 499 1204 q 408 1181 431 1204 q 385 1124 385 1158 z "},"Æ":{"ha":1263,"x_min":14,"x_max":1199,"o":"m 1194 249 q 1178 0 1199 111 l 531 0 l 522 49 q 640 92 553 64 l 640 279 l 351 279 l 351 281 l 247 81 l 382 65 l 381 0 l 22 0 l 14 49 q 144 96 53 69 l 543 832 l 467 836 l 468 903 l 1178 903 l 1179 856 q 1164 674 1179 758 l 1089 674 l 1072 800 l 769 813 l 769 492 l 1088 515 l 1088 394 l 769 408 l 769 90 l 1085 104 l 1121 254 l 1194 249 m 640 364 l 640 829 l 396 364 l 640 364 z "},"Ç":{"ha":768,"x_min":21,"x_max":740,"o":"m 429 -82 q 549 -117 507 -82 q 590 -199 590 -153 q 344 -368 590 -317 l 326 -321 q 438 -264 399 -299 q 478 -197 478 -229 q 369 -146 478 -137 l 332 -92 l 397 -17 q 122 127 224 3 q 21 440 21 251 q 140 792 21 653 q 450 931 260 931 q 718 846 606 931 l 719 803 q 694 631 719 706 l 611 631 l 601 772 q 385 832 503 832 l 328 829 q 202 682 242 781 q 163 472 163 583 q 247 199 163 304 q 472 93 332 93 l 501 94 l 715 169 l 740 101 l 469 -21 l 429 -82 z "},"È":{"ha":782,"x_min":42,"x_max":718,"o":"m 714 249 q 697 0 718 111 l 50 0 l 42 44 l 160 88 l 160 831 l 61 836 l 63 903 l 697 903 l 699 856 q 683 674 699 758 l 608 674 l 592 801 l 289 822 l 289 492 l 607 515 l 607 394 l 289 408 l 289 90 l 604 104 l 640 254 l 714 249 m 553 961 l 219 1097 l 289 1214 l 601 1040 l 553 961 z "},"É":{"ha":782,"x_min":42,"x_max":718,"o":"m 714 249 q 697 0 718 111 l 50 0 l 42 44 l 160 88 l 160 831 l 61 836 l 63 903 l 697 903 l 699 856 q 683 674 699 758 l 608 674 l 592 801 l 289 822 l 289 492 l 607 515 l 607 394 l 289 408 l 289 90 l 604 104 l 640 254 l 714 249 m 563 1214 l 632 1097 l 299 961 l 250 1040 l 563 1214 z "},"Ê":{"ha":782,"x_min":42,"x_max":718,"o":"m 714 249 q 697 0 718 111 l 50 0 l 42 44 l 160 88 l 160 831 l 61 836 l 63 903 l 697 903 l 699 856 q 683 674 699 758 l 608 674 l 592 801 l 289 822 l 289 492 l 607 515 l 607 394 l 289 408 l 289 90 l 604 104 l 640 254 l 714 249 m 339 1213 l 463 1213 l 665 1025 l 607 967 l 404 1113 l 207 967 l 146 1025 l 339 1213 z "},"Ë":{"ha":782,"x_min":42,"x_max":718,"o":"m 714 249 q 697 0 718 111 l 50 0 l 42 44 l 160 88 l 160 831 l 61 836 l 63 903 l 697 903 l 699 856 q 683 674 699 758 l 608 674 l 592 801 l 289 822 l 289 492 l 607 515 l 607 394 l 289 408 l 289 90 l 604 104 l 640 254 l 714 249 m 344 1106 q 271 1018 328 1043 q 181 1092 206 1035 q 257 1193 186 1160 q 344 1106 333 1164 m 626 1106 q 553 1018 610 1043 q 463 1092 488 1035 q 539 1193 468 1160 q 626 1106 615 1164 z "},"Ì":{"ha":465,"x_min":42,"x_max":424,"o":"m 424 65 l 422 0 l 50 0 l 42 44 l 160 88 l 160 825 l 53 838 l 54 903 l 399 903 l 407 858 l 289 815 l 289 81 l 424 65 m 375 961 l 42 1097 l 111 1214 l 424 1040 l 375 961 z "},"Í":{"ha":465,"x_min":42,"x_max":454,"o":"m 424 65 l 422 0 l 50 0 l 42 44 l 160 88 l 160 825 l 53 838 l 54 903 l 399 903 l 407 858 l 289 815 l 289 81 l 424 65 m 385 1214 l 454 1097 l 121 961 l 72 1040 l 385 1214 z "},"Î":{"ha":465,"x_min":-32,"x_max":488,"o":"m 424 65 l 422 0 l 50 0 l 42 44 l 160 88 l 160 825 l 53 838 l 54 903 l 399 903 l 407 858 l 289 815 l 289 81 l 424 65 m 161 1213 l 285 1213 l 488 1025 l 429 967 l 226 1113 l 29 967 l -32 1025 l 161 1213 z "},"Ï":{"ha":465,"x_min":3,"x_max":449,"o":"m 424 65 l 422 0 l 50 0 l 42 44 l 160 88 l 160 825 l 53 838 l 54 903 l 399 903 l 407 858 l 289 815 l 289 81 l 424 65 m 167 1106 q 93 1018 150 1043 q 3 1092 28 1035 q 79 1193 8 1160 q 167 1106 156 1164 m 449 1106 q 375 1018 432 1043 q 285 1092 310 1035 q 361 1193 290 1160 q 449 1106 438 1164 z "},"Ð":{"ha":935,"x_min":24,"x_max":882,"o":"m 475 914 q 765 780 649 914 q 882 457 882 646 q 760 131 882 257 q 442 0 639 6 l 50 0 l 42 44 l 160 88 l 160 397 l 32 397 l 24 438 l 83 497 l 160 497 l 160 831 l 61 836 l 63 903 q 475 914 282 914 m 418 92 q 650 194 563 92 q 738 457 738 296 q 683 685 738 581 q 544 832 628 789 l 289 811 l 289 497 l 503 497 l 511 457 l 451 397 l 289 397 l 289 110 q 418 92 357 92 z "},"Ñ":{"ha":1035,"x_min":42,"x_max":993,"o":"m 993 858 l 875 815 l 875 0 l 732 -15 l 239 774 l 264 581 l 264 79 l 388 65 l 386 0 l 50 0 l 42 44 l 160 88 l 160 826 l 69 838 l 71 903 l 318 903 l 796 133 l 769 322 l 769 822 l 635 838 l 636 903 l 985 903 l 993 858 m 208 1040 q 299 1160 263 1122 q 372 1197 336 1197 q 481 1161 407 1197 l 643 1078 l 760 1175 l 799 1140 q 706 1012 738 1047 q 647 976 674 976 q 497 1036 619 976 q 371 1089 397 1089 q 258 1001 338 1089 l 208 1040 z "},"Ò":{"ha":906,"x_min":28,"x_max":878,"o":"m 446 931 q 756 793 635 931 q 878 440 878 656 q 760 101 878 231 q 457 -28 642 -28 q 149 104 269 -28 q 28 446 28 236 q 146 795 28 660 q 446 931 264 931 m 296 811 q 204 672 239 768 q 169 465 169 575 q 254 179 169 288 q 482 71 339 71 q 589 85 533 71 q 694 221 654 126 q 735 433 735 315 q 651 723 735 611 q 429 835 567 835 q 296 811 365 835 m 600 961 l 267 1097 l 336 1214 l 649 1040 l 600 961 z "},"Ó":{"ha":906,"x_min":28,"x_max":878,"o":"m 446 931 q 756 793 635 931 q 878 440 878 656 q 760 101 878 231 q 457 -28 642 -28 q 149 104 269 -28 q 28 446 28 236 q 146 795 28 660 q 446 931 264 931 m 296 811 q 204 672 239 768 q 169 465 169 575 q 254 179 169 288 q 482 71 339 71 q 589 85 533 71 q 694 221 654 126 q 735 433 735 315 q 651 723 735 611 q 429 835 567 835 q 296 811 365 835 m 610 1214 l 679 1097 l 346 961 l 297 1040 l 610 1214 z "},"Ô":{"ha":906,"x_min":28,"x_max":878,"o":"m 446 931 q 756 793 635 931 q 878 440 878 656 q 760 101 878 231 q 457 -28 642 -28 q 149 104 269 -28 q 28 446 28 236 q 146 795 28 660 q 446 931 264 931 m 296 811 q 204 672 239 768 q 169 465 169 575 q 254 179 169 288 q 482 71 339 71 q 589 85 533 71 q 694 221 654 126 q 735 433 735 315 q 651 723 735 611 q 429 835 567 835 q 296 811 365 835 m 386 1213 l 510 1213 l 713 1025 l 654 967 l 451 1113 l 254 967 l 193 1025 l 386 1213 z "},"Õ":{"ha":906,"x_min":28,"x_max":878,"o":"m 446 931 q 756 793 635 931 q 878 440 878 656 q 760 101 878 231 q 457 -28 642 -28 q 149 104 269 -28 q 28 446 28 236 q 146 795 28 660 q 446 931 264 931 m 296 811 q 204 672 239 768 q 169 465 169 575 q 254 179 169 288 q 482 71 339 71 q 589 85 533 71 q 694 221 654 126 q 735 433 735 315 q 651 723 735 611 q 429 835 567 835 q 296 811 365 835 m 168 1040 q 259 1160 222 1122 q 332 1197 296 1197 q 440 1161 367 1197 l 603 1078 l 719 1175 l 758 1140 q 665 1012 697 1047 q 607 976 633 976 q 457 1036 579 976 q 331 1089 357 1089 q 218 1001 297 1089 l 168 1040 z "},"Ö":{"ha":906,"x_min":28,"x_max":878,"o":"m 446 931 q 756 793 635 931 q 878 440 878 656 q 760 101 878 231 q 457 -28 642 -28 q 149 104 269 -28 q 28 446 28 236 q 146 795 28 660 q 446 931 264 931 m 296 811 q 204 672 239 768 q 169 465 169 575 q 254 179 169 288 q 482 71 339 71 q 589 85 533 71 q 694 221 654 126 q 735 433 735 315 q 651 723 735 611 q 429 835 567 835 q 296 811 365 835 m 392 1106 q 318 1018 375 1043 q 228 1092 253 1035 q 304 1193 233 1160 q 392 1106 381 1164 m 674 1106 q 600 1018 657 1043 q 510 1092 535 1035 q 586 1193 515 1160 q 674 1106 663 1164 z "},"×":{"ha":792,"x_min":104,"x_max":688,"o":"m 688 568 l 460 331 l 683 96 l 615 31 l 396 265 l 176 31 l 107 97 l 331 331 l 104 568 l 176 629 l 396 396 l 615 632 l 688 568 z "},"Ø":{"ha":961,"x_min":28,"x_max":878,"o":"m 731 819 q 878 440 878 683 q 760 101 878 231 q 457 -28 642 -28 q 306 -1 376 -28 l 249 -112 l 164 -65 l 219 43 q 79 205 131 103 q 28 446 28 307 q 146 795 28 660 q 446 931 264 931 q 651 878 557 931 l 721 1013 l 804 963 l 731 819 m 169 465 q 276 153 169 265 l 600 778 q 429 835 528 835 q 296 811 365 835 q 204 672 239 768 q 169 465 169 575 m 589 85 q 694 221 654 126 q 735 433 735 315 q 668 699 735 590 l 357 96 q 482 71 417 71 q 589 85 533 71 z "},"Ù":{"ha":972,"x_min":14,"x_max":958,"o":"m 958 858 l 840 815 l 840 379 q 506 -25 831 -25 q 223 87 325 -25 q 121 393 121 199 l 121 825 l 14 838 l 15 903 l 360 903 l 368 858 l 250 815 l 250 379 q 319 158 250 236 q 511 79 388 79 q 643 107 578 79 q 738 379 738 174 l 738 824 l 614 838 l 615 903 l 950 903 l 958 858 m 643 961 l 310 1097 l 379 1214 l 692 1040 l 643 961 z "},"Ú":{"ha":972,"x_min":14,"x_max":958,"o":"m 958 858 l 840 815 l 840 379 q 506 -25 831 -25 q 223 87 325 -25 q 121 393 121 199 l 121 825 l 14 838 l 15 903 l 360 903 l 368 858 l 250 815 l 250 379 q 319 158 250 236 q 511 79 388 79 q 643 107 578 79 q 738 379 738 174 l 738 824 l 614 838 l 615 903 l 950 903 l 958 858 m 653 1214 l 722 1097 l 389 961 l 340 1040 l 653 1214 z "},"Û":{"ha":972,"x_min":14,"x_max":958,"o":"m 958 858 l 840 815 l 840 379 q 506 -25 831 -25 q 223 87 325 -25 q 121 393 121 199 l 121 825 l 14 838 l 15 903 l 360 903 l 368 858 l 250 815 l 250 379 q 319 158 250 236 q 511 79 388 79 q 643 107 578 79 q 738 379 738 174 l 738 824 l 614 838 l 615 903 l 950 903 l 958 858 m 429 1213 l 553 1213 l 756 1025 l 697 967 l 494 1113 l 297 967 l 236 1025 l 429 1213 z "},"Ü":{"ha":972,"x_min":14,"x_max":958,"o":"m 958 858 l 840 815 l 840 379 q 506 -25 831 -25 q 223 87 325 -25 q 121 393 121 199 l 121 825 l 14 838 l 15 903 l 360 903 l 368 858 l 250 815 l 250 379 q 319 158 250 236 q 511 79 388 79 q 643 107 578 79 q 738 379 738 174 l 738 824 l 614 838 l 615 903 l 950 903 l 958 858 m 435 1106 q 361 1018 418 1043 q 271 1092 296 1035 q 347 1193 276 1160 q 435 1106 424 1164 m 717 1106 q 643 1018 700 1043 q 553 1092 578 1035 q 629 1193 558 1160 q 717 1106 706 1164 z "},"Ý":{"ha":829,"x_min":0,"x_max":829,"o":"m 474 79 l 588 65 l 586 0 l 244 0 l 236 44 l 344 85 l 344 350 l 86 828 l 0 838 l 1 903 l 317 903 l 325 858 q 232 824 292 842 l 383 539 l 419 426 l 426 426 l 624 825 l 514 838 l 515 903 l 821 903 l 829 858 q 731 822 781 836 l 474 346 l 474 79 m 582 1214 l 651 1097 l 318 961 l 269 1040 l 582 1214 z "},"Þ":{"ha":821,"x_min":42,"x_max":763,"o":"m 296 215 l 296 81 l 431 65 l 429 0 l 50 0 l 42 49 q 167 93 72 65 l 167 824 l 53 838 l 54 903 l 417 903 l 425 854 q 296 808 388 833 l 296 718 l 447 718 q 674 647 586 718 q 763 465 763 575 q 669 286 763 356 q 424 215 576 217 l 296 215 m 296 606 l 296 310 l 379 304 q 565 351 508 304 q 622 471 622 397 q 511 643 622 588 l 296 606 z "},"ß":{"ha":754,"x_min":21,"x_max":721,"o":"m 440 490 q 477 440 450 463 q 554 385 504 418 q 677 289 633 336 q 721 167 721 242 q 658 28 721 79 q 500 -22 594 -22 q 313 29 407 -22 l 365 146 q 572 61 469 76 q 603 144 603 104 q 570 224 603 190 q 472 302 538 257 q 374 378 406 347 q 343 451 343 408 q 403 543 358 481 q 472 653 447 606 q 497 749 497 700 q 465 843 497 797 q 378 856 431 856 q 218 813 282 856 l 235 603 l 235 0 l 28 0 l 21 46 l 115 81 l 115 546 l 29 543 l 21 611 q 115 642 57 628 l 115 668 q 184 875 115 797 q 367 953 253 953 q 543 884 471 953 q 615 722 615 815 q 440 490 615 590 z "},"à":{"ha":704,"x_min":69,"x_max":683,"o":"m 683 43 l 543 -21 q 490 12 522 -18 q 444 75 458 42 l 288 -19 l 254 -21 q 120 26 171 -21 q 69 144 69 74 q 167 293 69 239 l 438 300 l 438 443 q 422 540 438 507 q 369 592 407 572 q 213 568 285 589 l 201 424 l 128 418 q 88 585 92 483 q 251 652 149 619 q 397 685 354 685 q 478 656 436 685 q 540 597 519 628 q 563 483 561 565 l 563 119 q 599 92 563 92 q 663 104 619 92 l 683 43 m 236 81 q 438 132 318 78 l 438 228 l 368 232 q 200 144 200 232 q 236 81 200 103 m 389 738 q 163 936 283 838 l 264 1019 l 461 797 l 389 738 z "},"á":{"ha":704,"x_min":69,"x_max":683,"o":"m 683 43 l 543 -21 q 490 12 522 -18 q 444 75 458 42 l 288 -19 l 254 -21 q 120 26 171 -21 q 69 144 69 74 q 167 293 69 239 l 438 300 l 438 443 q 422 540 438 507 q 369 592 407 572 q 213 568 285 589 l 201 424 l 128 418 q 88 585 92 483 q 251 652 149 619 q 397 685 354 685 q 478 656 436 685 q 540 597 519 628 q 563 483 561 565 l 563 119 q 599 92 563 92 q 663 104 619 92 l 683 43 m 236 81 q 438 132 318 78 l 438 228 l 368 232 q 200 144 200 232 q 236 81 200 103 m 226 797 l 424 1019 l 525 936 q 299 738 403 835 l 226 797 z "},"â":{"ha":704,"x_min":69,"x_max":683,"o":"m 683 43 l 543 -21 q 490 12 522 -18 q 444 75 458 42 l 288 -19 l 254 -21 q 120 26 171 -21 q 69 144 69 74 q 167 293 69 239 l 438 300 l 438 443 q 422 540 438 507 q 369 592 407 572 q 213 568 285 589 l 201 424 l 128 418 q 88 585 92 483 q 251 652 149 619 q 397 685 354 685 q 478 656 436 685 q 540 597 519 628 q 563 483 561 565 l 563 119 q 599 92 563 92 q 663 104 619 92 l 683 43 m 236 81 q 438 132 318 78 l 438 228 l 368 232 q 200 144 200 232 q 236 81 200 103 m 292 996 l 404 996 l 578 804 l 518 747 l 343 894 l 182 743 l 118 796 l 292 996 z "},"ã":{"ha":704,"x_min":69,"x_max":683,"o":"m 683 43 l 543 -21 q 490 12 522 -18 q 444 75 458 42 l 288 -19 l 254 -21 q 120 26 171 -21 q 69 144 69 74 q 167 293 69 239 l 438 300 l 438 443 q 422 540 438 507 q 369 592 407 572 q 213 568 285 589 l 201 424 l 128 418 q 88 585 92 483 q 251 652 149 619 q 397 685 354 685 q 478 656 436 685 q 540 597 519 628 q 563 483 561 565 l 563 119 q 599 92 563 92 q 663 104 619 92 l 683 43 m 236 81 q 438 132 318 78 l 438 228 l 368 232 q 200 144 200 232 q 236 81 200 103 m 92 810 q 188 938 149 897 q 263 978 226 978 q 464 857 294 978 l 567 964 l 615 928 q 531 799 565 842 q 467 756 497 756 q 358 813 439 756 q 258 869 276 869 q 142 769 231 869 l 92 810 z "},"ä":{"ha":704,"x_min":69,"x_max":683,"o":"m 683 43 l 543 -21 q 490 12 522 -18 q 444 75 458 42 l 288 -19 l 254 -21 q 120 26 171 -21 q 69 144 69 74 q 167 293 69 239 l 438 300 l 438 443 q 422 540 438 507 q 369 592 407 572 q 213 568 285 589 l 201 424 l 128 418 q 88 585 92 483 q 251 652 149 619 q 397 685 354 685 q 478 656 436 685 q 540 597 519 628 q 563 483 561 565 l 563 119 q 599 92 563 92 q 663 104 619 92 l 683 43 m 236 81 q 438 132 318 78 l 438 228 l 368 232 q 200 144 200 232 q 236 81 200 103 m 283 853 q 210 765 267 790 q 119 839 144 782 q 196 940 125 907 q 283 853 272 911 m 565 853 q 492 765 549 790 q 401 839 426 782 q 478 940 407 907 q 565 853 554 911 z "},"å":{"ha":704,"x_min":69,"x_max":683,"o":"m 683 43 l 543 -21 q 490 12 522 -18 q 444 75 458 42 l 288 -19 l 254 -21 q 120 26 171 -21 q 69 144 69 74 q 167 293 69 239 l 438 300 l 438 443 q 422 540 438 507 q 369 592 407 572 q 213 568 285 589 l 201 424 l 128 418 q 88 585 92 483 q 251 652 149 619 q 397 685 354 685 q 478 656 436 685 q 540 597 519 628 q 563 483 561 565 l 563 119 q 599 92 563 92 q 663 104 619 92 l 683 43 m 236 81 q 438 132 318 78 l 438 228 l 368 232 q 200 144 200 232 q 236 81 200 103 m 192 885 q 235 992 192 949 q 342 1036 278 1036 q 449 992 406 1036 q 493 882 493 949 q 452 776 493 818 q 347 735 411 735 q 237 776 282 735 q 192 885 192 818 m 263 871 q 263 853 263 871 q 286 814 263 836 q 344 792 310 792 q 401 813 379 792 q 422 869 422 835 q 399 928 422 904 q 343 951 376 951 q 285 928 308 951 q 263 871 263 906 z "},"æ":{"ha":1036,"x_min":69,"x_max":1006,"o":"m 561 364 q 625 147 561 210 q 790 85 689 85 q 974 131 868 85 l 994 71 l 778 -21 q 511 94 606 -21 l 288 -19 l 254 -21 q 120 26 171 -21 q 69 144 69 74 q 167 293 69 239 l 438 300 l 438 443 q 422 540 438 507 q 369 592 407 572 q 213 568 285 589 l 201 424 l 128 418 q 88 585 92 483 q 251 652 149 619 q 396 685 353 685 q 478 652 438 685 q 540 583 519 619 q 756 678 629 678 q 885 646 828 678 q 974 558 943 614 q 1004 435 1006 503 l 925 357 l 561 364 m 686 593 q 571 436 594 544 l 883 451 q 815 558 869 518 q 686 593 760 599 m 236 81 q 476 147 319 78 q 447 228 458 183 l 444 228 l 372 232 q 200 144 200 232 q 236 81 200 103 z "},"ç":{"ha":576,"x_min":28,"x_max":556,"o":"m 361 -19 l 321 -82 q 440 -117 399 -82 q 482 -199 482 -153 q 236 -368 482 -317 l 218 -321 q 330 -264 290 -299 q 369 -197 369 -229 q 261 -146 369 -137 l 224 -92 l 290 -17 q 96 99 164 4 q 28 325 28 193 q 117 578 28 479 q 344 678 207 678 q 556 586 461 678 l 482 488 q 243 590 360 582 q 157 353 157 490 q 216 158 157 233 q 379 82 275 82 q 524 114 451 82 l 547 56 l 361 -19 z "},"è":{"ha":626,"x_min":28,"x_max":596,"o":"m 158 364 q 222 156 158 226 q 386 85 285 85 q 564 131 461 85 l 585 71 l 368 -21 q 122 73 215 -21 q 28 314 28 167 q 120 571 28 464 q 346 678 213 678 q 476 646 418 678 q 565 558 533 614 q 594 435 596 503 l 515 357 l 158 364 m 276 593 q 169 438 197 551 l 474 451 q 405 558 460 518 q 276 593 350 599 m 383 738 q 157 936 278 838 l 258 1019 l 456 797 l 383 738 z "},"é":{"ha":626,"x_min":28,"x_max":596,"o":"m 158 364 q 222 156 158 226 q 386 85 285 85 q 564 131 461 85 l 585 71 l 368 -21 q 122 73 215 -21 q 28 314 28 167 q 120 571 28 464 q 346 678 213 678 q 476 646 418 678 q 565 558 533 614 q 594 435 596 503 l 515 357 l 158 364 m 276 593 q 169 438 197 551 l 474 451 q 405 558 460 518 q 276 593 350 599 m 221 797 l 418 1019 l 519 936 q 293 738 397 835 l 221 797 z "},"ê":{"ha":626,"x_min":28,"x_max":596,"o":"m 158 364 q 222 156 158 226 q 386 85 285 85 q 564 131 461 85 l 585 71 l 368 -21 q 122 73 215 -21 q 28 314 28 167 q 120 571 28 464 q 346 678 213 678 q 476 646 418 678 q 565 558 533 614 q 594 435 596 503 l 515 357 l 158 364 m 276 593 q 169 438 197 551 l 474 451 q 405 558 460 518 q 276 593 350 599 m 286 996 l 399 996 l 572 804 l 513 747 l 338 894 l 176 743 l 113 796 l 286 996 z "},"ë":{"ha":626,"x_min":28,"x_max":596,"o":"m 158 364 q 222 156 158 226 q 386 85 285 85 q 564 131 461 85 l 585 71 l 368 -21 q 122 73 215 -21 q 28 314 28 167 q 120 571 28 464 q 346 678 213 678 q 476 646 418 678 q 565 558 533 614 q 594 435 596 503 l 515 357 l 158 364 m 276 593 q 169 438 197 551 l 474 451 q 405 558 460 518 q 276 593 350 599 m 278 853 q 204 765 261 790 q 114 839 139 782 q 190 940 119 907 q 278 853 267 911 m 560 853 q 486 765 543 790 q 396 839 421 782 q 472 940 401 907 q 560 853 549 911 z "},"ì":{"ha":383,"x_min":0,"x_max":356,"o":"m 265 88 q 356 67 324 81 l 347 0 l 50 0 l 43 46 l 142 82 l 142 572 l 38 564 l 21 629 q 210 672 114 669 l 265 624 l 265 88 m 226 738 q 0 936 121 838 l 101 1019 l 299 797 l 226 738 z "},"í":{"ha":383,"x_min":21,"x_max":363,"o":"m 265 88 q 356 67 324 81 l 347 0 l 50 0 l 43 46 l 142 82 l 142 572 l 38 564 l 21 629 q 210 672 114 669 l 265 624 l 265 88 m 64 797 l 261 1019 l 363 936 q 136 738 240 835 l 64 797 z "},"î":{"ha":383,"x_min":-44,"x_max":415,"o":"m 265 88 q 356 67 324 81 l 347 0 l 50 0 l 43 46 l 142 82 l 142 572 l 38 564 l 21 629 q 210 672 114 669 l 265 624 l 265 88 m 129 996 l 242 996 l 415 804 l 356 747 l 181 894 l 19 743 l -44 796 l 129 996 z "},"ï":{"ha":383,"x_min":-43,"x_max":403,"o":"m 265 88 q 356 67 324 81 l 347 0 l 50 0 l 43 46 l 142 82 l 142 572 l 38 564 l 21 629 q 210 672 114 669 l 265 624 l 265 88 m 121 853 q 47 765 104 790 q -43 839 -18 782 q 33 940 -37 907 q 121 853 110 911 m 403 853 q 329 765 386 790 q 239 839 264 782 q 315 940 244 907 q 403 853 392 911 z "},"ð":{"ha":682,"x_min":28,"x_max":646,"o":"m 493 876 q 609 610 572 744 q 646 363 646 475 q 560 76 646 186 q 340 -33 475 -33 q 119 68 210 -33 q 28 319 28 169 q 119 570 28 469 q 342 671 210 671 q 490 614 428 671 q 396 824 447 740 l 272 757 l 215 782 l 199 818 l 347 899 l 264 1003 l 358 1057 q 444 950 397 1015 l 581 1024 l 624 946 l 493 876 m 415 67 q 519 356 519 160 q 508 481 519 424 q 269 582 393 585 q 182 476 215 549 q 149 324 149 403 q 212 138 149 211 q 381 65 275 65 l 415 67 z "},"ñ":{"ha":819,"x_min":21,"x_max":792,"o":"m 694 89 q 792 67 765 79 l 783 0 l 499 0 l 492 46 l 571 76 l 571 411 q 482 561 571 561 q 265 457 401 561 l 265 88 q 356 67 324 81 l 347 0 l 50 0 l 43 46 l 142 82 l 142 572 l 38 564 l 21 629 q 210 672 114 669 l 265 624 l 265 532 q 549 672 474 672 q 630 631 589 665 q 683 561 671 597 q 694 426 694 525 l 694 89 m 154 810 q 250 938 211 897 q 325 978 289 978 q 526 857 357 978 l 629 964 l 678 928 q 594 799 628 842 q 529 756 560 756 q 420 813 501 756 q 321 869 339 869 q 204 769 293 869 l 154 810 z "},"ò":{"ha":682,"x_min":28,"x_max":647,"o":"m 28 328 q 28 406 28 328 q 116 581 28 483 q 342 678 204 678 q 563 578 478 678 q 647 319 647 478 q 564 67 647 163 q 344 -28 481 -28 q 117 72 207 -28 q 28 328 28 172 m 426 72 q 517 304 517 132 q 471 510 517 428 q 331 592 425 592 q 225 561 268 592 q 160 343 160 483 q 210 143 160 224 q 360 63 261 63 q 426 72 392 63 m 383 738 q 157 936 278 838 l 258 1019 l 456 797 l 383 738 z "},"ó":{"ha":682,"x_min":28,"x_max":647,"o":"m 28 328 q 28 406 28 328 q 116 581 28 483 q 342 678 204 678 q 563 578 478 678 q 647 319 647 478 q 564 67 647 163 q 344 -28 481 -28 q 117 72 207 -28 q 28 328 28 172 m 426 72 q 517 304 517 132 q 471 510 517 428 q 331 592 425 592 q 225 561 268 592 q 160 343 160 483 q 210 143 160 224 q 360 63 261 63 q 426 72 392 63 m 221 797 l 418 1019 l 519 936 q 293 738 397 835 l 221 797 z "},"ô":{"ha":682,"x_min":28,"x_max":647,"o":"m 28 328 q 28 406 28 328 q 116 581 28 483 q 342 678 204 678 q 563 578 478 678 q 647 319 647 478 q 564 67 647 163 q 344 -28 481 -28 q 117 72 207 -28 q 28 328 28 172 m 426 72 q 517 304 517 132 q 471 510 517 428 q 331 592 425 592 q 225 561 268 592 q 160 343 160 483 q 210 143 160 224 q 360 63 261 63 q 426 72 392 63 m 286 996 l 399 996 l 572 804 l 513 747 l 338 894 l 176 743 l 113 796 l 286 996 z "},"õ":{"ha":682,"x_min":28,"x_max":647,"o":"m 28 328 q 28 406 28 328 q 116 581 28 483 q 342 678 204 678 q 563 578 478 678 q 647 319 647 478 q 564 67 647 163 q 344 -28 481 -28 q 117 72 207 -28 q 28 328 28 172 m 426 72 q 517 304 517 132 q 471 510 517 428 q 331 592 425 592 q 225 561 268 592 q 160 343 160 483 q 210 143 160 224 q 360 63 261 63 q 426 72 392 63 m 86 810 q 182 938 143 897 q 257 978 221 978 q 458 857 289 978 l 561 964 l 610 928 q 526 799 560 842 q 461 756 492 756 q 352 813 433 756 q 253 869 271 869 q 136 769 225 869 l 86 810 z "},"ö":{"ha":682,"x_min":28,"x_max":647,"o":"m 28 328 q 28 406 28 328 q 116 581 28 483 q 342 678 204 678 q 563 578 478 678 q 647 319 647 478 q 564 67 647 163 q 344 -28 481 -28 q 117 72 207 -28 q 28 328 28 172 m 426 72 q 517 304 517 132 q 471 510 517 428 q 331 592 425 592 q 225 561 268 592 q 160 343 160 483 q 210 143 160 224 q 360 63 261 63 q 426 72 392 63 m 278 853 q 204 765 261 790 q 114 839 139 782 q 190 940 119 907 q 278 853 267 911 m 560 853 q 486 765 543 790 q 396 839 421 782 q 472 940 401 907 q 560 853 549 911 z "},"÷":{"ha":836,"x_min":83,"x_max":753,"o":"m 515 572 l 514 565 q 435 476 496 504 q 335 554 364 490 l 333 558 q 415 667 342 628 l 418 668 q 496 616 476 646 q 515 572 515 586 m 753 275 l 83 275 l 83 367 l 753 367 l 753 275 m 514 67 l 513 60 q 433 -29 493 -4 q 333 49 363 -15 l 332 53 q 414 161 340 122 l 417 163 q 494 110 475 140 q 514 67 514 81 z "},"ø":{"ha":682,"x_min":28,"x_max":647,"o":"m 558 583 q 647 319 647 486 q 564 67 647 163 q 344 -28 481 -28 q 206 4 269 -28 l 142 -99 l 71 -53 l 136 53 q 28 328 28 156 q 116 581 28 483 q 342 678 204 678 q 494 638 426 678 l 547 724 l 619 682 l 558 583 m 160 343 q 201 158 160 232 l 440 549 q 331 592 397 592 q 225 561 268 592 q 160 343 160 483 m 426 72 q 517 304 517 132 q 490 471 517 400 l 258 93 q 360 63 301 63 q 426 72 392 63 z "},"ù":{"ha":789,"x_min":0,"x_max":775,"o":"m 775 43 l 635 -21 q 580 14 613 -18 q 535 82 547 46 q 388 8 465 38 q 267 -21 310 -21 q 144 69 190 -4 q 121 196 122 101 l 121 572 l 17 564 l 0 629 q 189 672 93 669 l 244 624 l 244 206 q 336 86 249 86 q 531 158 413 86 l 531 572 l 426 564 l 410 629 q 599 672 503 669 l 654 624 l 654 119 q 690 92 654 92 q 754 104 711 92 l 775 43 m 403 738 q 176 936 297 838 l 278 1019 l 475 797 l 403 738 z "},"ú":{"ha":789,"x_min":0,"x_max":775,"o":"m 775 43 l 635 -21 q 580 14 613 -18 q 535 82 547 46 q 388 8 465 38 q 267 -21 310 -21 q 144 69 190 -4 q 121 196 122 101 l 121 572 l 17 564 l 0 629 q 189 672 93 669 l 244 624 l 244 206 q 336 86 249 86 q 531 158 413 86 l 531 572 l 426 564 l 410 629 q 599 672 503 669 l 654 624 l 654 119 q 690 92 654 92 q 754 104 711 92 l 775 43 m 240 797 l 438 1019 l 539 936 q 313 738 417 835 l 240 797 z "},"û":{"ha":789,"x_min":0,"x_max":775,"o":"m 775 43 l 635 -21 q 580 14 613 -18 q 535 82 547 46 q 388 8 465 38 q 267 -21 310 -21 q 144 69 190 -4 q 121 196 122 101 l 121 572 l 17 564 l 0 629 q 189 672 93 669 l 244 624 l 244 206 q 336 86 249 86 q 531 158 413 86 l 531 572 l 426 564 l 410 629 q 599 672 503 669 l 654 624 l 654 119 q 690 92 654 92 q 754 104 711 92 l 775 43 m 306 996 l 418 996 l 592 804 l 532 747 l 357 894 l 196 743 l 132 796 l 306 996 z "},"ü":{"ha":789,"x_min":0,"x_max":775,"o":"m 775 43 l 635 -21 q 580 14 613 -18 q 535 82 547 46 q 388 8 465 38 q 267 -21 310 -21 q 144 69 190 -4 q 121 196 122 101 l 121 572 l 17 564 l 0 629 q 189 672 93 669 l 244 624 l 244 206 q 336 86 249 86 q 531 158 413 86 l 531 572 l 426 564 l 410 629 q 599 672 503 669 l 654 624 l 654 119 q 690 92 654 92 q 754 104 711 92 l 775 43 m 297 853 q 224 765 281 790 q 133 839 158 782 q 210 940 139 907 q 297 853 286 911 m 579 853 q 506 765 563 790 q 415 839 440 782 q 492 940 421 907 q 579 853 568 911 z "},"ý":{"ha":699,"x_min":-14,"x_max":713,"o":"m 713 600 l 624 567 q 461 78 544 310 q 333 -139 408 -46 q 143 -301 258 -232 l 74 -175 q 332 -6 243 -104 q 258 38 288 10 l 63 578 l -14 582 l -12 650 l 279 650 l 288 600 l 207 569 l 313 253 l 336 93 l 363 93 q 503 578 442 313 l 419 582 l 421 650 l 704 650 l 713 600 m 239 797 l 436 1019 l 538 936 q 311 738 415 835 l 239 797 z "},"þ":{"ha":726,"x_min":-28,"x_max":692,"o":"m 383 668 l 436 674 q 619 580 546 674 q 692 347 692 486 q 590 80 692 186 q 333 -26 489 -26 q 217 -11 281 -26 l 217 -193 q 331 -217 293 -200 l 322 -283 l 8 -283 l 1 -237 l 93 -204 l 93 33 l 92 33 l 92 921 l -11 913 l -28 978 q 161 1021 65 1018 l 217 971 l 217 563 l 383 668 m 443 69 q 529 172 497 103 q 561 319 561 242 q 513 489 561 418 q 390 560 464 560 q 217 489 329 560 l 217 119 q 388 65 286 65 l 443 69 z "},"ÿ":{"ha":699,"x_min":-14,"x_max":713,"o":"m 713 600 l 624 567 q 461 78 544 310 q 333 -139 408 -46 q 143 -301 258 -232 l 74 -175 q 332 -6 243 -104 q 258 38 288 10 l 63 578 l -14 582 l -12 650 l 279 650 l 288 600 l 207 569 l 313 253 l 336 93 l 363 93 q 503 578 442 313 l 419 582 l 421 650 l 704 650 l 713 600 m 296 853 q 222 765 279 790 q 132 839 157 782 q 208 940 138 907 q 296 853 285 911 m 578 853 q 504 765 561 790 q 414 839 439 782 q 490 940 419 907 q 578 853 567 911 z "},"Ā":{"ha":967,"x_min":-28,"x_max":967,"o":"m 967 65 l 965 0 l 593 0 l 585 44 q 721 93 629 65 l 647 279 l 272 279 l 194 82 l 340 65 l 339 0 l -19 0 l -28 44 q 88 86 7 61 l 413 874 l 403 899 l 513 936 l 865 76 l 967 65 m 614 364 l 458 756 l 306 364 l 614 364 m 742 1126 l 749 1078 l 683 1031 l 214 1031 l 206 1092 q 363 1126 274 1126 l 742 1126 z "},"ā":{"ha":704,"x_min":69,"x_max":683,"o":"m 683 43 l 543 -21 q 490 12 522 -18 q 444 75 458 42 l 288 -19 l 254 -21 q 120 26 171 -21 q 69 144 69 74 q 167 293 69 239 l 438 300 l 438 443 q 422 540 438 507 q 369 592 407 572 q 213 568 285 589 l 201 424 l 128 418 q 88 585 92 483 q 251 652 149 619 q 397 685 354 685 q 478 656 436 685 q 540 597 519 628 q 563 483 561 565 l 563 119 q 599 92 563 92 q 663 104 619 92 l 683 43 m 236 81 q 438 132 318 78 l 438 228 l 368 232 q 200 144 200 232 q 236 81 200 103 m 600 876 l 607 828 l 542 781 l 128 781 l 119 842 q 276 876 188 876 l 600 876 z "},"Ă":{"ha":967,"x_min":-28,"x_max":967,"o":"m 967 65 l 965 0 l 593 0 l 585 44 q 721 93 629 65 l 647 279 l 272 279 l 194 82 l 340 65 l 339 0 l -19 0 l -28 44 q 88 86 7 61 l 413 874 l 403 899 l 513 936 l 865 76 l 967 65 m 614 364 l 458 756 l 306 364 l 614 364 m 667 1171 q 606 1027 661 1079 q 471 975 550 975 q 337 1026 394 975 q 264 1167 279 1078 l 360 1185 q 463 1069 375 1069 q 531 1099 504 1069 q 563 1182 558 1128 l 667 1171 z "},"ă":{"ha":704,"x_min":69,"x_max":683,"o":"m 683 43 l 543 -21 q 490 12 522 -18 q 444 75 458 42 l 288 -19 l 254 -21 q 120 26 171 -21 q 69 144 69 74 q 167 293 69 239 l 438 300 l 438 443 q 422 540 438 507 q 369 592 407 572 q 213 568 285 589 l 201 424 l 128 418 q 88 585 92 483 q 251 652 149 619 q 397 685 354 685 q 478 656 436 685 q 540 597 519 628 q 563 483 561 565 l 563 119 q 599 92 563 92 q 663 104 619 92 l 683 43 m 236 81 q 438 132 318 78 l 438 228 l 368 232 q 200 144 200 232 q 236 81 200 103 m 546 978 q 488 821 542 876 q 351 765 433 765 q 213 818 272 765 q 143 976 154 871 l 235 993 q 343 860 254 860 q 415 894 389 860 q 442 989 440 929 l 546 978 z "},"Ą":{"ha":967,"x_min":-28,"x_max":967,"o":"m 872 0 q 707 -179 707 -81 q 729 -236 707 -214 q 793 -258 751 -258 q 907 -224 843 -258 l 931 -278 l 769 -353 q 652 -315 699 -357 q 606 -211 606 -274 q 774 0 606 -94 l 593 0 l 585 44 q 721 93 629 65 l 647 279 l 272 279 l 194 82 l 340 65 l 339 0 l -19 0 l -28 44 q 88 86 7 61 l 413 874 l 403 899 l 513 936 l 865 76 l 967 65 l 965 0 l 872 0 m 614 364 l 458 756 l 306 364 l 614 364 z "},"ą":{"ha":683,"x_min":69,"x_max":683,"o":"m 458 -162 q 481 -219 458 -197 q 544 -242 503 -242 q 658 -207 594 -242 l 682 -261 l 521 -336 q 403 -299 450 -340 q 357 -194 357 -257 q 500 1 357 -89 q 444 75 460 36 l 288 -19 l 254 -21 q 120 26 171 -21 q 69 144 69 74 q 167 293 69 239 l 438 300 l 438 443 q 422 540 438 507 q 369 592 407 572 q 213 568 285 589 l 201 424 l 128 418 q 88 585 92 483 q 251 652 149 619 q 397 685 354 685 q 478 656 436 685 q 540 597 519 628 q 563 483 561 565 l 563 119 q 599 92 563 92 q 663 104 619 92 l 683 43 l 607 8 q 458 -162 458 -71 m 236 81 q 438 132 318 78 l 438 228 l 368 232 q 200 144 200 232 q 236 81 200 103 z "},"Ć":{"ha":768,"x_min":21,"x_max":740,"o":"m 740 101 l 468 -21 q 143 103 265 -22 q 21 440 21 229 q 140 792 21 653 q 450 931 260 931 q 718 846 606 931 l 719 803 q 694 631 719 706 l 611 631 l 601 772 q 385 832 503 832 l 328 829 q 202 682 242 781 q 163 472 163 583 q 247 199 163 304 q 472 93 332 93 l 501 94 l 715 169 l 740 101 m 596 1214 l 665 1097 l 332 961 l 283 1040 l 596 1214 z "},"ć":{"ha":576,"x_min":28,"x_max":556,"o":"m 358 -21 q 118 73 208 -22 q 28 325 28 168 q 117 578 28 479 q 344 678 207 678 q 556 586 461 678 l 482 488 q 243 590 360 582 q 157 353 157 490 q 216 158 157 233 q 379 82 275 82 q 524 114 451 82 l 547 56 l 358 -21 m 213 797 l 410 1019 l 511 936 q 285 738 389 835 l 213 797 z "},"Č":{"ha":768,"x_min":21,"x_max":740,"o":"m 740 101 l 468 -21 q 143 103 265 -22 q 21 440 21 229 q 140 792 21 653 q 450 931 260 931 q 718 846 606 931 l 719 803 q 694 631 719 706 l 611 631 l 601 772 q 385 832 503 832 l 328 829 q 202 682 242 781 q 163 472 163 583 q 247 199 163 304 q 472 93 332 93 l 501 94 l 715 169 l 740 101 m 439 1068 l 622 1218 l 678 1146 l 492 979 l 379 976 l 190 1125 l 267 1210 l 439 1068 z "},"č":{"ha":576,"x_min":28,"x_max":556,"o":"m 358 -21 q 118 73 208 -22 q 28 325 28 168 q 117 578 28 479 q 344 678 207 678 q 556 586 461 678 l 482 488 q 243 590 360 582 q 157 353 157 490 q 216 158 157 233 q 379 82 275 82 q 524 114 451 82 l 547 56 l 358 -21 m 326 843 l 474 1032 l 544 974 l 379 754 l 267 751 l 81 951 l 168 1031 l 326 843 z "},"Ď":{"ha":910,"x_min":42,"x_max":882,"o":"m 475 914 q 765 780 649 914 q 882 457 882 646 q 760 131 882 257 q 442 0 639 6 l 50 0 l 42 44 l 160 88 l 160 831 l 61 836 l 63 903 q 475 914 282 914 m 418 92 q 650 194 563 92 q 738 457 738 296 q 683 685 738 581 q 544 832 628 789 l 289 811 l 289 110 q 418 92 357 92 m 422 1068 l 606 1218 l 661 1146 l 475 979 l 363 976 l 174 1125 l 250 1210 l 422 1068 z "},"ď":{"ha":872,"x_min":28,"x_max":886,"o":"m 738 43 l 597 -21 q 542 13 575 -18 q 497 81 510 44 l 346 -21 q 118 78 208 -22 q 28 324 28 178 q 130 578 28 475 q 378 681 232 681 q 493 660 438 681 l 493 921 l 389 913 l 372 978 q 561 1021 465 1018 l 617 971 l 617 119 q 653 92 617 92 q 717 104 674 92 l 738 43 m 158 339 q 210 163 158 233 q 347 93 263 93 q 493 142 413 93 l 493 528 q 315 589 414 589 l 257 583 q 158 339 158 496 m 844 1115 q 886 1013 886 1074 q 758 774 886 896 l 711 819 q 771 951 771 899 q 732 1018 771 993 l 729 1056 l 844 1115 z "},"Đ":{"ha":935,"x_min":24,"x_max":882,"o":"m 475 914 q 765 780 649 914 q 882 457 882 646 q 760 131 882 257 q 442 0 639 6 l 50 0 l 42 44 l 160 88 l 160 397 l 32 397 l 24 438 l 83 497 l 160 497 l 160 831 l 61 836 l 63 903 q 475 914 282 914 m 418 92 q 650 194 563 92 q 738 457 738 296 q 683 685 738 581 q 544 832 628 789 l 289 811 l 289 497 l 503 497 l 511 457 l 451 397 l 289 397 l 289 110 q 418 92 357 92 z "},"đ":{"ha":757,"x_min":28,"x_max":757,"o":"m 653 92 q 717 104 674 92 l 738 43 l 597 -21 q 542 13 575 -18 q 497 81 510 44 l 346 -21 q 118 78 208 -22 q 28 324 28 178 q 130 578 28 475 q 378 681 232 681 q 493 660 438 681 l 493 761 l 318 761 l 310 801 l 369 836 l 493 836 l 493 921 l 389 913 l 372 978 q 561 1021 465 1018 l 617 971 l 617 836 l 749 836 l 757 796 l 697 761 l 617 761 l 617 119 q 653 92 617 92 m 158 339 q 210 163 158 233 q 347 93 263 93 q 493 142 413 93 l 493 528 q 315 589 414 589 l 257 583 q 158 339 158 496 z "},"Ē":{"ha":782,"x_min":42,"x_max":718,"o":"m 714 249 q 697 0 718 111 l 50 0 l 42 44 l 160 88 l 160 831 l 61 836 l 63 903 l 697 903 l 699 856 q 683 674 699 758 l 608 674 l 592 801 l 289 822 l 289 492 l 607 515 l 607 394 l 289 408 l 289 90 l 604 104 l 640 254 l 714 249 m 681 1126 l 688 1078 l 622 1031 l 153 1031 l 144 1092 q 301 1126 213 1126 l 681 1126 z "},"ē":{"ha":626,"x_min":28,"x_max":601,"o":"m 158 364 q 222 156 158 226 q 386 85 285 85 q 564 131 461 85 l 585 71 l 368 -21 q 122 73 215 -21 q 28 314 28 167 q 120 571 28 464 q 346 678 213 678 q 476 646 418 678 q 565 558 533 614 q 594 435 596 503 l 515 357 l 158 364 m 276 593 q 169 438 197 551 l 474 451 q 405 558 460 518 q 276 593 350 599 m 594 876 l 601 828 l 536 781 l 122 781 l 114 842 q 271 876 182 876 l 594 876 z "},"Ė":{"ha":782,"x_min":42,"x_max":718,"o":"m 714 249 q 697 0 718 111 l 50 0 l 42 44 l 160 88 l 160 831 l 61 836 l 63 903 l 697 903 l 699 856 q 683 674 699 758 l 608 674 l 592 801 l 289 822 l 289 492 l 607 515 l 607 394 l 289 408 l 289 90 l 604 104 l 640 254 l 714 249 m 483 1106 q 411 1018 469 1046 q 319 1092 344 1033 q 396 1193 328 1160 q 456 1156 429 1182 q 483 1106 482 1131 z "},"ė":{"ha":626,"x_min":28,"x_max":596,"o":"m 158 364 q 222 156 158 226 q 386 85 285 85 q 564 131 461 85 l 585 71 l 368 -21 q 122 73 215 -21 q 28 314 28 167 q 120 571 28 464 q 346 678 213 678 q 476 646 418 678 q 565 558 533 614 q 594 435 596 503 l 515 357 l 158 364 m 276 593 q 169 438 197 551 l 474 451 q 405 558 460 518 q 276 593 350 599 m 417 853 q 344 765 403 793 q 253 839 278 781 q 329 940 261 907 q 389 903 363 929 q 417 853 415 878 z "},"Ę":{"ha":782,"x_min":42,"x_max":756,"o":"m 756 -278 l 594 -353 q 477 -315 524 -357 q 431 -211 431 -274 q 599 0 431 -94 l 50 0 l 42 44 l 160 88 l 160 831 l 61 836 l 63 903 l 697 903 l 699 856 q 683 674 699 758 l 608 674 l 592 801 l 289 822 l 289 492 l 607 515 l 607 394 l 289 408 l 289 90 l 604 104 l 640 254 l 714 249 q 697 0 718 111 q 532 -179 532 -81 q 554 -236 532 -214 q 618 -258 576 -258 q 732 -224 668 -258 l 756 -278 z "},"ę":{"ha":653,"x_min":28,"x_max":596,"o":"m 158 364 q 222 156 158 226 q 386 85 285 85 q 564 131 461 85 l 585 71 l 533 46 q 354 -140 354 -42 q 376 -197 354 -175 q 440 -219 399 -219 q 554 -185 490 -219 l 578 -239 l 417 -314 q 299 -276 346 -318 q 253 -172 253 -235 q 338 -19 253 -96 q 112 83 196 -10 q 28 314 28 176 q 120 571 28 464 q 346 678 213 678 q 476 646 418 678 q 565 558 533 614 q 594 435 596 503 l 515 357 l 158 364 m 276 593 q 169 438 197 551 l 474 451 q 405 558 460 518 q 276 593 350 599 z "},"Ě":{"ha":782,"x_min":42,"x_max":718,"o":"m 714 249 q 697 0 718 111 l 50 0 l 42 44 l 160 88 l 160 831 l 61 836 l 63 903 l 697 903 l 699 856 q 683 674 699 758 l 608 674 l 592 801 l 289 822 l 289 492 l 607 515 l 607 394 l 289 408 l 289 90 l 604 104 l 640 254 l 714 249 m 406 1068 l 589 1218 l 644 1146 l 458 979 l 346 976 l 157 1125 l 233 1210 l 406 1068 z "},"ě":{"ha":626,"x_min":28,"x_max":596,"o":"m 158 364 q 222 156 158 226 q 386 85 285 85 q 564 131 461 85 l 585 71 l 368 -21 q 122 73 215 -21 q 28 314 28 167 q 120 571 28 464 q 346 678 213 678 q 476 646 418 678 q 565 558 533 614 q 594 435 596 503 l 515 357 l 158 364 m 276 593 q 169 438 197 551 l 474 451 q 405 558 460 518 q 276 593 350 599 m 335 843 l 482 1032 l 553 974 l 388 754 l 275 751 l 89 951 l 176 1031 l 335 843 z "},"Ğ":{"ha":931,"x_min":21,"x_max":889,"o":"m 783 338 l 783 99 l 513 -28 l 478 -29 q 147 100 272 -29 q 21 432 21 229 q 74 676 21 563 q 236 860 128 790 q 499 931 344 931 q 776 846 665 931 l 778 813 q 753 644 778 733 l 671 644 l 660 768 q 406 833 540 833 l 340 829 q 206 675 250 779 q 163 443 163 571 q 249 179 163 283 q 475 75 336 75 q 654 106 556 75 l 654 315 q 501 369 558 343 l 510 418 l 888 418 l 889 350 l 783 338 m 674 1171 q 613 1027 668 1079 q 478 975 557 975 q 344 1026 401 975 q 271 1167 286 1078 l 367 1185 q 469 1069 382 1069 q 538 1099 511 1069 q 569 1182 565 1128 l 674 1171 z "},"ğ":{"ha":758,"x_min":46,"x_max":731,"o":"m 208 133 q 455 103 310 132 q 692 39 600 75 l 699 -21 q 582 -234 699 -147 q 306 -321 465 -321 q 122 -274 197 -321 q 46 -144 46 -226 l 47 -124 l 213 29 l 103 35 l 78 100 q 225 238 146 181 q 65 451 65 299 q 149 622 65 554 q 354 689 232 689 q 539 635 463 689 q 704 753 589 729 l 731 608 q 599 581 658 608 q 642 449 642 522 q 558 279 642 344 q 354 214 474 214 l 303 218 q 208 133 242 171 m 239 588 q 193 460 193 533 q 236 333 193 382 q 354 285 279 285 q 447 303 397 285 q 514 439 514 357 q 464 563 514 511 q 342 614 414 614 q 239 588 292 614 m 314 -208 q 492 -170 406 -208 q 617 -62 579 -132 q 296 21 528 -10 q 160 -132 160 -72 q 203 -187 160 -167 q 314 -208 246 -208 m 557 978 q 499 821 553 876 q 363 765 444 765 q 224 818 283 765 q 154 976 165 871 l 246 993 q 354 860 265 860 q 426 894 400 860 q 453 989 451 929 l 557 978 z "},"Ģ":{"ha":931,"x_min":21,"x_max":889,"o":"m 783 338 l 783 99 l 513 -28 l 478 -29 q 147 100 272 -29 q 21 432 21 229 q 74 676 21 563 q 236 860 128 790 q 499 931 344 931 q 776 846 665 931 l 778 813 q 753 644 778 733 l 671 644 l 660 768 q 406 833 540 833 l 340 829 q 206 675 250 779 q 163 443 163 571 q 249 179 163 283 q 475 75 336 75 q 654 106 556 75 l 654 315 q 501 369 558 343 l 510 418 l 888 418 l 889 350 l 783 338 m 472 -82 q 528 -176 528 -114 q 435 -367 528 -262 l 376 -332 q 424 -231 424 -269 q 389 -172 424 -197 l 386 -137 l 472 -82 z "},"ģ":{"ha":758,"x_min":46,"x_max":731,"o":"m 208 133 q 455 103 310 132 q 692 39 600 75 l 699 -21 q 582 -234 699 -147 q 306 -321 465 -321 q 122 -274 197 -321 q 46 -144 46 -226 l 47 -124 l 213 29 l 103 35 l 78 100 q 225 238 146 181 q 65 451 65 299 q 149 622 65 554 q 354 689 232 689 q 539 635 463 689 q 704 753 589 729 l 731 608 q 599 581 658 608 q 642 449 642 522 q 558 279 642 344 q 354 214 474 214 l 303 218 q 208 133 242 171 m 239 588 q 193 460 193 533 q 236 333 193 382 q 354 285 279 285 q 447 303 397 285 q 514 439 514 357 q 464 563 514 511 q 342 614 414 614 q 239 588 292 614 m 314 -208 q 492 -170 406 -208 q 617 -62 579 -132 q 296 21 528 -10 q 160 -132 160 -72 q 203 -187 160 -167 q 314 -208 246 -208 m 429 1015 q 485 921 485 983 q 392 731 485 835 l 333 765 q 381 867 381 828 q 346 925 381 900 l 343 960 l 429 1015 z "},"Ī":{"ha":501,"x_min":42,"x_max":460,"o":"m 394 993 l 50 993 l 42 1054 q 199 1089 110 1089 l 453 1089 l 460 1040 l 394 993 m 307 81 l 442 65 l 440 0 l 68 0 l 60 44 l 178 88 l 178 825 l 71 838 l 72 903 l 417 903 l 425 858 l 307 815 l 307 81 z "},"ī":{"ha":439,"x_min":21,"x_max":411,"o":"m 346 808 l 29 808 l 21 869 q 178 904 89 904 l 404 904 l 411 856 l 346 808 m 301 88 q 392 67 360 81 l 383 0 l 86 0 l 79 46 l 178 82 l 178 572 l 74 564 l 57 629 q 246 672 150 669 l 301 624 l 301 88 z "},"Į":{"ha":465,"x_min":42,"x_max":424,"o":"m 322 0 q 157 -179 157 -81 q 179 -236 157 -214 q 243 -258 201 -258 q 357 -224 293 -258 l 381 -278 l 219 -353 q 102 -315 149 -357 q 56 -211 56 -274 q 224 0 56 -94 l 50 0 l 42 44 l 160 88 l 160 825 l 53 838 l 54 903 l 399 903 l 407 858 l 289 815 l 289 81 l 424 65 l 422 0 l 322 0 z "},"į":{"ha":415,"x_min":21,"x_max":388,"o":"m 210 796 q 103 879 142 825 q 188 985 139 954 q 292 901 250 960 q 210 796 269 838 m 388 -278 l 226 -353 q 109 -315 156 -357 q 63 -211 63 -274 q 231 0 63 -94 l 43 0 l 36 46 q 142 85 69 63 l 142 572 l 38 564 l 21 629 q 210 672 114 669 l 265 624 l 265 89 q 365 67 335 81 l 357 0 l 329 0 q 164 -179 164 -81 q 186 -236 164 -214 q 250 -258 208 -258 q 364 -224 300 -258 l 388 -278 z "},"İ":{"ha":465,"x_min":42,"x_max":424,"o":"m 424 65 l 422 0 l 50 0 l 42 44 l 160 88 l 160 825 l 53 838 l 54 903 l 399 903 l 407 858 l 289 815 l 289 81 l 424 65 m 306 1106 q 233 1018 292 1046 q 142 1092 167 1033 q 218 1193 150 1160 q 278 1156 251 1182 q 306 1106 304 1131 z "},"ı":{"ha":383,"x_min":21,"x_max":356,"o":"m 265 88 q 356 67 324 81 l 347 0 l 50 0 l 43 46 l 142 82 l 142 572 l 38 564 l 21 629 q 210 672 114 669 l 265 624 l 265 88 z "},"Ķ":{"ha":904,"x_min":42,"x_max":886,"o":"m 886 67 l 885 0 l 693 0 l 381 429 l 289 331 l 289 81 l 424 65 l 422 0 l 50 0 l 42 44 l 160 88 l 160 825 l 51 838 l 53 903 l 399 903 l 407 858 l 289 815 l 289 458 l 632 826 l 535 838 l 536 903 l 838 903 l 846 858 l 749 822 l 468 522 l 806 72 l 886 67 m 508 -82 q 564 -176 564 -114 q 471 -367 564 -262 l 413 -332 q 460 -231 460 -269 q 425 -172 460 -197 l 422 -137 l 508 -82 z "},"ķ":{"ha":783,"x_min":21,"x_max":742,"o":"m 742 39 l 610 -21 q 525 43 564 -11 l 374 274 l 265 257 l 265 86 l 342 67 l 333 0 l 46 0 l 39 46 l 142 83 l 142 921 l 38 913 l 21 978 q 210 1021 114 1018 l 265 972 l 265 325 l 371 383 l 539 579 l 422 564 l 406 629 q 639 672 511 668 l 682 603 l 463 349 l 632 104 q 665 90 642 90 q 721 100 690 90 l 742 39 m 389 -82 q 444 -176 444 -114 q 351 -367 444 -262 l 293 -332 q 340 -231 340 -269 q 306 -172 340 -197 l 303 -137 l 389 -82 z "},"Ĺ":{"ha":761,"x_min":42,"x_max":744,"o":"m 742 276 q 725 0 744 113 l 50 0 l 42 44 l 160 88 l 160 825 l 53 838 l 54 903 l 399 903 l 407 858 l 289 815 l 289 93 l 628 107 l 664 282 l 742 276 m 382 1214 l 451 1097 l 118 961 l 69 1040 l 382 1214 z "},"ĺ":{"ha":414,"x_min":21,"x_max":425,"o":"m 265 89 q 365 67 335 81 l 357 0 l 43 0 l 36 46 q 142 85 69 63 l 142 921 l 38 913 l 21 978 q 210 1021 114 1018 l 265 972 l 265 89 m 356 1332 l 425 1215 l 92 1079 l 43 1158 l 356 1332 z "},"Ļ":{"ha":761,"x_min":42,"x_max":744,"o":"m 742 276 q 725 0 744 113 l 50 0 l 42 44 l 160 88 l 160 825 l 53 838 l 54 903 l 399 903 l 407 858 l 289 815 l 289 93 l 628 107 l 664 282 l 742 276 m 379 -82 q 435 -176 435 -114 q 342 -367 435 -262 l 283 -332 q 331 -231 331 -269 q 296 -172 331 -197 l 293 -137 l 379 -82 z "},"ļ":{"ha":414,"x_min":21,"x_max":365,"o":"m 265 89 q 365 67 335 81 l 357 0 l 43 0 l 36 46 q 142 85 69 63 l 142 921 l 38 913 l 21 978 q 210 1021 114 1018 l 265 972 l 265 89 m 210 -82 q 265 -176 265 -114 q 172 -367 265 -262 l 114 -332 q 161 -231 161 -269 q 126 -172 161 -197 l 124 -137 l 210 -82 z "},"Ľ":{"ha":761,"x_min":42,"x_max":744,"o":"m 742 276 q 725 0 744 113 l 50 0 l 42 44 l 160 88 l 160 825 l 53 838 l 54 903 l 399 903 l 407 858 l 289 815 l 289 93 l 628 107 l 664 282 l 742 276 m 679 1060 q 721 957 721 1018 q 593 718 721 840 l 546 764 q 606 896 606 843 q 567 963 606 938 l 564 1000 l 679 1060 z "},"ľ":{"ha":546,"x_min":21,"x_max":539,"o":"m 265 89 q 365 67 335 81 l 357 0 l 43 0 l 36 46 q 142 85 69 63 l 142 921 l 38 913 l 21 978 q 210 1021 114 1018 l 265 972 l 265 89 m 497 1101 q 539 999 539 1060 q 411 760 539 882 l 364 806 q 424 938 424 885 q 385 1004 424 979 l 382 1042 l 497 1101 z "},"Ł":{"ha":783,"x_min":42,"x_max":767,"o":"m 764 276 q 747 0 767 113 l 72 0 l 64 44 l 182 88 l 182 332 l 88 276 l 42 358 l 182 440 l 182 825 l 75 838 l 76 903 l 421 903 l 429 858 l 311 815 l 311 517 l 510 633 l 535 601 l 519 528 l 311 407 l 311 93 l 650 107 l 686 282 l 764 276 z "},"ł":{"ha":497,"x_min":21,"x_max":435,"o":"m 293 497 l 293 89 q 393 67 363 81 l 385 0 l 71 0 l 64 46 q 169 85 97 63 l 169 428 l 63 368 l 21 442 l 169 526 l 169 921 l 65 913 l 49 978 q 238 1021 142 1018 l 293 972 l 293 596 l 404 660 l 435 636 l 433 576 l 293 497 z "},"Ń":{"ha":1035,"x_min":42,"x_max":993,"o":"m 993 858 l 875 815 l 875 0 l 732 -15 l 239 774 l 264 581 l 264 79 l 388 65 l 386 0 l 50 0 l 42 44 l 160 88 l 160 826 l 69 838 l 71 903 l 318 903 l 796 133 l 769 322 l 769 822 l 635 838 l 636 903 l 985 903 l 993 858 m 650 1214 l 719 1097 l 386 961 l 338 1040 l 650 1214 z "},"ń":{"ha":819,"x_min":21,"x_max":792,"o":"m 694 89 q 792 67 765 79 l 783 0 l 499 0 l 492 46 l 571 76 l 571 411 q 482 561 571 561 q 265 457 401 561 l 265 88 q 356 67 324 81 l 347 0 l 50 0 l 43 46 l 142 82 l 142 572 l 38 564 l 21 629 q 210 672 114 669 l 265 624 l 265 532 q 549 672 474 672 q 630 631 589 665 q 683 561 671 597 q 694 426 694 525 l 694 89 m 289 797 l 486 1019 l 588 936 q 361 738 465 835 l 289 797 z "},"Ņ":{"ha":1035,"x_min":42,"x_max":993,"o":"m 993 858 l 875 815 l 875 0 l 732 -15 l 239 774 l 264 581 l 264 79 l 388 65 l 386 0 l 50 0 l 42 44 l 160 88 l 160 826 l 69 838 l 71 903 l 318 903 l 796 133 l 769 322 l 769 822 l 635 838 l 636 903 l 985 903 l 993 858 m 533 -82 q 589 -176 589 -114 q 496 -367 589 -262 l 438 -332 q 485 -231 485 -269 q 450 -172 485 -197 l 447 -137 l 533 -82 z "},"ņ":{"ha":819,"x_min":21,"x_max":792,"o":"m 694 89 q 792 67 765 79 l 783 0 l 499 0 l 492 46 l 571 76 l 571 411 q 482 561 571 561 q 265 457 401 561 l 265 88 q 356 67 324 81 l 347 0 l 50 0 l 43 46 l 142 82 l 142 572 l 38 564 l 21 629 q 210 672 114 669 l 265 624 l 265 532 q 549 672 474 672 q 630 631 589 665 q 683 561 671 597 q 694 426 694 525 l 694 89 m 433 -82 q 489 -176 489 -114 q 396 -367 489 -262 l 338 -332 q 385 -231 385 -269 q 350 -172 385 -197 l 347 -137 l 433 -82 z "},"Ň":{"ha":1035,"x_min":42,"x_max":993,"o":"m 993 858 l 875 815 l 875 0 l 732 -15 l 239 774 l 264 581 l 264 79 l 388 65 l 386 0 l 50 0 l 42 44 l 160 88 l 160 826 l 69 838 l 71 903 l 318 903 l 796 133 l 769 322 l 769 822 l 635 838 l 636 903 l 985 903 l 993 858 m 493 1068 l 676 1218 l 732 1146 l 546 979 l 433 976 l 244 1125 l 321 1210 l 493 1068 z "},"ň":{"ha":819,"x_min":21,"x_max":792,"o":"m 694 89 q 792 67 765 79 l 783 0 l 499 0 l 492 46 l 571 76 l 571 411 q 482 561 571 561 q 265 457 401 561 l 265 88 q 356 67 324 81 l 347 0 l 50 0 l 43 46 l 142 82 l 142 572 l 38 564 l 21 629 q 210 672 114 669 l 265 624 l 265 532 q 549 672 474 672 q 630 631 589 665 q 683 561 671 597 q 694 426 694 525 l 694 89 m 403 843 l 550 1032 l 621 974 l 456 754 l 343 751 l 157 951 l 244 1031 l 403 843 z "},"Ō":{"ha":906,"x_min":28,"x_max":878,"o":"m 446 931 q 756 793 635 931 q 878 440 878 656 q 760 101 878 231 q 457 -28 642 -28 q 149 104 269 -28 q 28 446 28 236 q 146 795 28 660 q 446 931 264 931 m 296 811 q 204 672 239 768 q 169 465 169 575 q 254 179 169 288 q 482 71 339 71 q 589 85 533 71 q 694 221 654 126 q 735 433 735 315 q 651 723 735 611 q 429 835 567 835 q 296 811 365 835 m 728 1126 l 735 1078 l 669 1031 l 200 1031 l 192 1092 q 349 1126 260 1126 l 728 1126 z "},"ō":{"ha":682,"x_min":28,"x_max":647,"o":"m 28 328 q 28 406 28 328 q 116 581 28 483 q 342 678 204 678 q 563 578 478 678 q 647 319 647 478 q 564 67 647 163 q 344 -28 481 -28 q 117 72 207 -28 q 28 328 28 172 m 426 72 q 517 304 517 132 q 471 510 517 428 q 331 592 425 592 q 225 561 268 592 q 160 343 160 483 q 210 143 160 224 q 360 63 261 63 q 426 72 392 63 m 594 876 l 601 828 l 536 781 l 122 781 l 114 842 q 271 876 182 876 l 594 876 z "},"Ő":{"ha":906,"x_min":28,"x_max":878,"o":"m 446 931 q 756 793 635 931 q 878 440 878 656 q 760 101 878 231 q 457 -28 642 -28 q 149 104 269 -28 q 28 446 28 236 q 146 795 28 660 q 446 931 264 931 m 296 811 q 204 672 239 768 q 169 465 169 575 q 254 179 169 288 q 482 71 339 71 q 589 85 533 71 q 694 221 654 126 q 735 433 735 315 q 651 723 735 611 q 429 835 567 835 q 296 811 365 835 m 456 1271 l 569 1201 q 326 990 438 1092 l 256 1051 l 456 1271 m 706 1271 l 819 1201 q 576 990 688 1092 l 506 1051 l 706 1271 z "},"ő":{"ha":682,"x_min":28,"x_max":686,"o":"m 28 328 q 28 406 28 328 q 116 581 28 483 q 342 678 204 678 q 563 578 478 678 q 647 319 647 478 q 564 67 647 163 q 344 -28 481 -28 q 117 72 207 -28 q 28 328 28 172 m 426 72 q 517 304 517 132 q 471 510 517 428 q 331 592 425 592 q 225 561 268 592 q 160 343 160 483 q 210 143 160 224 q 360 63 261 63 q 426 72 392 63 m 314 1031 l 435 972 q 214 739 322 860 l 138 792 l 314 1031 m 565 1031 l 686 972 q 465 739 574 860 l 389 792 l 565 1031 z "},"Œ":{"ha":1254,"x_min":58,"x_max":1190,"o":"m 1186 249 q 1169 0 1190 111 l 626 0 q 486 -15 565 -15 q 276 35 374 -15 q 119 194 179 86 q 58 464 58 301 q 128 722 58 619 q 303 873 197 825 q 521 921 410 921 q 660 903 593 921 l 1169 903 l 1171 856 q 1156 674 1171 758 l 1081 674 l 1064 800 l 769 813 l 769 492 l 1076 515 l 1076 394 l 769 407 l 769 90 l 1076 104 l 1113 254 l 1186 249 m 200 453 q 283 183 200 285 q 504 82 365 82 q 640 100 603 82 l 640 800 q 493 824 574 824 q 340 799 410 824 q 238 656 275 751 q 200 453 200 560 z "},"œ":{"ha":1107,"x_min":28,"x_max":1076,"o":"m 636 364 l 635 335 q 700 149 635 214 q 865 85 765 85 q 1044 131 942 85 l 1065 71 l 849 -21 q 588 97 679 -21 q 344 -28 503 -28 q 117 72 207 -28 q 28 328 28 172 q 116 581 28 483 q 342 678 204 678 q 585 550 494 678 q 826 678 676 678 q 956 646 899 678 q 1045 558 1014 614 q 1075 435 1076 503 l 996 357 l 636 364 m 757 593 q 647 438 679 551 l 954 451 q 885 558 940 518 q 757 593 831 599 m 426 72 q 518 306 518 133 q 472 510 518 428 q 331 592 425 592 q 225 561 268 592 q 160 343 160 483 q 210 143 160 224 q 360 63 261 63 q 426 72 392 63 z "},"Ŕ":{"ha":886,"x_min":42,"x_max":865,"o":"m 865 65 l 864 0 l 653 0 l 454 361 l 289 360 l 289 82 l 438 65 l 436 0 l 50 0 l 42 44 l 160 88 l 160 831 l 61 836 l 63 903 l 450 914 q 688 838 597 914 q 779 646 779 763 q 728 488 779 563 q 582 381 676 414 l 771 74 l 865 65 m 289 451 q 407 442 351 442 q 586 502 535 442 q 638 646 638 563 q 529 832 638 779 l 289 811 l 289 451 m 547 1214 l 617 1097 l 283 961 l 235 1040 l 547 1214 z "},"ŕ":{"ha":593,"x_min":21,"x_max":576,"o":"m 571 643 q 546 418 576 540 l 471 418 l 456 571 q 265 406 343 508 l 265 92 q 408 67 367 85 l 400 0 l 47 0 l 40 46 l 142 83 l 142 572 l 38 564 l 21 629 q 210 672 114 669 l 265 624 l 265 497 l 411 653 q 485 669 451 669 q 571 643 529 669 m 193 797 l 390 1019 l 492 936 q 265 738 369 835 l 193 797 z "},"Ŗ":{"ha":886,"x_min":42,"x_max":865,"o":"m 865 65 l 864 0 l 653 0 l 454 361 l 289 360 l 289 82 l 438 65 l 436 0 l 50 0 l 42 44 l 160 88 l 160 831 l 61 836 l 63 903 l 450 914 q 688 838 597 914 q 779 646 779 763 q 728 488 779 563 q 582 381 676 414 l 771 74 l 865 65 m 289 451 q 407 442 351 442 q 586 502 535 442 q 638 646 638 563 q 529 832 638 779 l 289 811 l 289 451 m 421 -82 q 476 -176 476 -114 q 383 -367 476 -262 l 325 -332 q 372 -231 372 -269 q 338 -172 372 -197 l 335 -137 l 421 -82 z "},"ŗ":{"ha":593,"x_min":21,"x_max":576,"o":"m 571 643 q 546 418 576 540 l 471 418 l 456 571 q 265 406 343 508 l 265 92 q 408 67 367 85 l 400 0 l 47 0 l 40 46 l 142 83 l 142 572 l 38 564 l 21 629 q 210 672 114 669 l 265 624 l 265 497 l 411 653 q 485 669 451 669 q 571 643 529 669 m 250 -82 q 306 -176 306 -114 q 213 -367 306 -262 l 154 -332 q 201 -231 201 -269 q 167 -172 201 -197 l 164 -137 l 250 -82 z "},"Ř":{"ha":886,"x_min":42,"x_max":865,"o":"m 865 65 l 864 0 l 653 0 l 454 361 l 289 360 l 289 82 l 438 65 l 436 0 l 50 0 l 42 44 l 160 88 l 160 831 l 61 836 l 63 903 l 450 914 q 688 838 597 914 q 779 646 779 763 q 728 488 779 563 q 582 381 676 414 l 771 74 l 865 65 m 289 451 q 407 442 351 442 q 586 502 535 442 q 638 646 638 563 q 529 832 638 779 l 289 811 l 289 451 m 390 1068 l 574 1218 l 629 1146 l 443 979 l 331 976 l 142 1125 l 218 1210 l 390 1068 z "},"ř":{"ha":593,"x_min":21,"x_max":576,"o":"m 571 643 q 546 418 576 540 l 471 418 l 456 571 q 265 406 343 508 l 265 92 q 408 67 367 85 l 400 0 l 47 0 l 40 46 l 142 83 l 142 572 l 38 564 l 21 629 q 210 672 114 669 l 265 624 l 265 497 l 411 653 q 485 669 451 669 q 571 643 529 669 m 307 843 l 454 1032 l 525 974 l 360 754 l 247 751 l 61 951 l 149 1031 l 307 843 z "},"Ś":{"ha":740,"x_min":76,"x_max":678,"o":"m 678 239 q 590 47 678 122 q 371 -28 503 -28 q 208 -2 296 -28 q 78 68 121 24 l 76 117 q 92 303 76 219 l 167 303 l 186 136 q 418 64 282 64 l 465 67 q 546 208 546 110 q 449 349 546 293 l 224 465 q 83 679 83 549 q 175 860 83 790 q 407 931 267 931 q 636 888 504 931 l 638 839 q 622 653 638 738 l 547 653 l 533 779 q 343 840 454 840 l 279 835 q 213 708 213 794 q 308 576 213 629 l 531 464 q 678 239 678 379 m 535 1214 l 604 1097 l 271 961 l 222 1040 l 535 1214 z "},"ś":{"ha":582,"x_min":35,"x_max":519,"o":"m 171 514 q 207 443 171 469 q 318 383 243 417 l 400 346 q 519 174 519 283 q 453 28 519 85 q 281 -28 386 -28 q 35 44 165 -28 l 86 167 q 361 58 217 78 q 399 139 399 92 q 364 215 399 186 q 227 290 329 244 q 90 377 125 335 q 54 479 54 419 q 128 622 54 567 q 318 678 203 678 q 496 636 415 678 q 472 457 500 535 l 397 457 l 388 564 q 242 594 318 594 l 215 593 q 171 514 171 565 m 185 797 l 382 1019 l 483 936 q 257 738 361 835 l 185 797 z "},"Ş":{"ha":740,"x_min":76,"x_max":678,"o":"m 678 239 q 595 51 678 126 q 385 -28 513 -24 l 350 -82 q 469 -117 428 -82 q 511 -199 511 -153 q 265 -368 511 -317 l 247 -321 q 359 -264 319 -299 q 399 -197 399 -229 q 290 -146 399 -137 l 253 -92 l 313 -24 q 78 68 147 -4 l 76 117 q 92 303 76 219 l 167 303 l 186 136 q 418 64 282 64 l 465 67 q 546 208 546 110 q 449 349 546 293 l 224 465 q 83 679 83 549 q 175 860 83 790 q 407 931 267 931 q 636 888 504 931 l 638 839 q 622 653 638 738 l 547 653 l 533 779 q 343 840 454 840 l 279 835 q 213 708 213 794 q 308 576 213 629 l 531 464 q 678 239 678 379 z "},"ş":{"ha":582,"x_min":35,"x_max":519,"o":"m 519 174 q 464 39 519 93 q 317 -26 408 -15 l 281 -82 q 400 -117 358 -82 q 442 -199 442 -153 q 196 -368 442 -317 l 178 -321 q 290 -264 250 -299 q 329 -197 329 -229 q 221 -146 329 -137 l 183 -92 l 242 -26 q 35 44 143 -15 l 86 167 q 361 58 217 78 q 399 139 399 92 q 364 215 399 186 q 227 290 329 244 q 90 377 125 335 q 54 479 54 419 q 128 622 54 567 q 318 678 203 678 q 496 636 415 678 q 472 457 500 535 l 397 457 l 388 564 q 242 594 318 594 l 215 593 q 171 514 171 565 q 207 443 171 469 q 318 383 243 417 l 400 346 q 519 174 519 283 z "},"Š":{"ha":740,"x_min":76,"x_max":678,"o":"m 678 239 q 590 47 678 122 q 371 -28 503 -28 q 208 -2 296 -28 q 78 68 121 24 l 76 117 q 92 303 76 219 l 167 303 l 186 136 q 418 64 282 64 l 465 67 q 546 208 546 110 q 449 349 546 293 l 224 465 q 83 679 83 549 q 175 860 83 790 q 407 931 267 931 q 636 888 504 931 l 638 839 q 622 653 638 738 l 547 653 l 533 779 q 343 840 454 840 l 279 835 q 213 708 213 794 q 308 576 213 629 l 531 464 q 678 239 678 379 m 378 1068 l 561 1218 l 617 1146 l 431 979 l 318 976 l 129 1125 l 206 1210 l 378 1068 z "},"š":{"ha":582,"x_min":35,"x_max":519,"o":"m 171 514 q 207 443 171 469 q 318 383 243 417 l 400 346 q 519 174 519 283 q 453 28 519 85 q 281 -28 386 -28 q 35 44 165 -28 l 86 167 q 361 58 217 78 q 399 139 399 92 q 364 215 399 186 q 227 290 329 244 q 90 377 125 335 q 54 479 54 419 q 128 622 54 567 q 318 678 203 678 q 496 636 415 678 q 472 457 500 535 l 397 457 l 388 564 q 242 594 318 594 l 215 593 q 171 514 171 565 m 299 843 l 446 1032 l 517 974 l 351 754 l 239 751 l 53 951 l 140 1031 l 299 843 z "},"Ţ":{"ha":829,"x_min":14,"x_max":815,"o":"m 814 911 l 815 863 q 800 676 815 761 l 725 676 l 707 815 l 479 824 l 479 83 l 638 65 l 636 0 l 461 0 l 408 -82 q 528 -117 486 -82 q 569 -199 569 -153 q 324 -368 569 -317 l 306 -321 q 417 -264 378 -299 q 457 -197 457 -229 q 349 -146 457 -137 l 311 -92 l 392 0 l 207 0 l 199 44 l 350 92 l 350 824 l 122 815 l 104 676 l 29 676 q 14 863 14 761 l 15 911 q 415 906 188 906 q 814 911 646 906 z "},"ţ":{"ha":476,"x_min":28,"x_max":447,"o":"m 308 0 l 256 -82 q 375 -117 333 -82 q 417 -199 417 -153 q 171 -368 417 -317 l 153 -321 q 265 -264 225 -299 q 304 -197 304 -229 q 196 -146 304 -137 l 158 -92 l 225 -15 q 154 30 185 -3 q 124 96 124 63 l 124 546 l 38 544 l 28 611 q 126 643 72 631 l 182 818 l 247 818 l 247 650 l 442 650 l 447 610 l 382 543 l 247 543 l 247 169 q 257 110 247 126 q 293 94 267 94 q 421 126 333 94 l 444 63 l 308 0 z "},"Ť":{"ha":829,"x_min":14,"x_max":815,"o":"m 814 911 l 815 863 q 800 676 815 761 l 725 676 l 707 815 l 479 824 l 479 83 l 638 65 l 636 0 l 207 0 l 199 44 l 350 92 l 350 824 l 122 815 l 104 676 l 29 676 q 14 863 14 761 l 15 911 q 415 906 188 906 q 814 911 646 906 m 418 1068 l 601 1218 l 657 1146 l 471 979 l 358 976 l 169 1125 l 246 1210 l 418 1068 z "},"ť":{"ha":650,"x_min":28,"x_max":650,"o":"m 293 94 q 421 126 333 94 l 444 63 l 264 -21 q 170 15 217 -24 q 124 97 124 53 l 124 546 l 38 544 l 28 611 q 126 643 72 631 l 182 818 l 247 818 l 247 650 l 442 650 l 447 610 l 382 543 l 247 543 l 247 169 q 257 110 247 126 q 293 94 267 94 m 608 1115 q 650 1013 650 1074 q 522 774 650 896 l 475 819 q 535 951 535 899 q 496 1018 535 993 l 493 1056 l 608 1115 z "},"Ū":{"ha":972,"x_min":14,"x_max":958,"o":"m 958 858 l 840 815 l 840 379 q 506 -25 831 -25 q 223 87 325 -25 q 121 393 121 199 l 121 825 l 14 838 l 15 903 l 360 903 l 368 858 l 250 815 l 250 379 q 319 158 250 236 q 511 79 388 79 q 643 107 578 79 q 738 379 738 174 l 738 824 l 614 838 l 615 903 l 950 903 l 958 858 m 771 1126 l 778 1078 l 713 1031 l 243 1031 l 235 1092 q 392 1126 303 1126 l 771 1126 z "},"ū":{"ha":789,"x_min":0,"x_max":775,"o":"m 775 43 l 635 -21 q 580 14 613 -18 q 535 82 547 46 q 388 8 465 38 q 267 -21 310 -21 q 144 69 190 -4 q 121 196 122 101 l 121 572 l 17 564 l 0 629 q 189 672 93 669 l 244 624 l 244 206 q 336 86 249 86 q 531 158 413 86 l 531 572 l 426 564 l 410 629 q 599 672 503 669 l 654 624 l 654 119 q 690 92 654 92 q 754 104 711 92 l 775 43 m 614 876 l 621 828 l 556 781 l 142 781 l 133 842 q 290 876 201 876 l 614 876 z "},"Ů":{"ha":972,"x_min":14,"x_max":958,"o":"m 958 858 l 840 815 l 840 379 q 506 -25 831 -25 q 223 87 325 -25 q 121 393 121 199 l 121 825 l 14 838 l 15 903 l 360 903 l 368 858 l 250 815 l 250 379 q 319 158 250 236 q 511 79 388 79 q 643 107 578 79 q 738 379 738 174 l 738 824 l 614 838 l 615 903 l 950 903 l 958 858 m 343 1138 q 386 1245 343 1201 q 493 1289 429 1289 q 601 1245 557 1289 q 644 1135 644 1201 q 603 1029 644 1071 q 499 988 563 988 q 388 1029 433 988 q 343 1138 343 1071 m 414 1124 q 414 1106 414 1124 q 438 1067 414 1089 q 496 1044 461 1044 q 552 1066 531 1044 q 574 1122 574 1088 q 551 1181 574 1157 q 494 1204 528 1204 q 437 1181 460 1204 q 414 1124 414 1158 z "},"ů":{"ha":789,"x_min":0,"x_max":775,"o":"m 775 43 l 635 -21 q 580 14 613 -18 q 535 82 547 46 q 388 8 465 38 q 267 -21 310 -21 q 144 69 190 -4 q 121 196 122 101 l 121 572 l 17 564 l 0 629 q 189 672 93 669 l 244 624 l 244 206 q 336 86 249 86 q 531 158 413 86 l 531 572 l 426 564 l 410 629 q 599 672 503 669 l 654 624 l 654 119 q 690 92 654 92 q 754 104 711 92 l 775 43 m 206 885 q 249 992 206 949 q 356 1036 292 1036 q 463 992 419 1036 q 507 882 507 949 q 466 776 507 818 q 361 735 425 735 q 251 776 296 735 q 206 885 206 818 m 276 871 q 276 853 276 871 q 300 814 276 836 q 358 792 324 792 q 415 813 393 792 q 436 869 436 835 q 413 928 436 904 q 357 951 390 951 q 299 928 322 951 q 276 871 276 906 z "},"Ű":{"ha":972,"x_min":14,"x_max":958,"o":"m 958 858 l 840 815 l 840 379 q 506 -25 831 -25 q 223 87 325 -25 q 121 393 121 199 l 121 825 l 14 838 l 15 903 l 360 903 l 368 858 l 250 815 l 250 379 q 319 158 250 236 q 511 79 388 79 q 643 107 578 79 q 738 379 738 174 l 738 824 l 614 838 l 615 903 l 950 903 l 958 858 m 499 1271 l 613 1201 q 369 990 481 1092 l 299 1051 l 499 1271 m 749 1271 l 863 1201 q 619 990 731 1092 l 549 1051 l 749 1271 z "},"ű":{"ha":789,"x_min":0,"x_max":775,"o":"m 775 43 l 635 -21 q 580 14 613 -18 q 535 82 547 46 q 388 8 465 38 q 267 -21 310 -21 q 144 69 190 -4 q 121 196 122 101 l 121 572 l 17 564 l 0 629 q 189 672 93 669 l 244 624 l 244 206 q 336 86 249 86 q 531 158 413 86 l 531 572 l 426 564 l 410 629 q 599 672 503 669 l 654 624 l 654 119 q 690 92 654 92 q 754 104 711 92 l 775 43 m 333 1031 l 454 972 q 233 739 342 860 l 157 792 l 333 1031 m 585 1031 l 706 972 q 485 739 593 860 l 408 792 l 585 1031 z "},"Ų":{"ha":972,"x_min":14,"x_max":958,"o":"m 958 858 l 840 815 l 840 390 q 610 -12 835 44 q 469 -179 469 -90 q 492 -236 469 -214 q 556 -258 514 -258 q 669 -224 606 -258 l 693 -278 l 532 -353 q 415 -315 461 -357 q 368 -211 368 -274 q 496 -25 368 -112 q 221 90 321 -21 q 121 393 121 201 l 121 825 l 14 838 l 15 903 l 360 903 l 368 858 l 250 815 l 250 379 q 319 158 250 236 q 511 79 388 79 q 643 107 578 79 q 738 379 738 174 l 738 824 l 614 838 l 615 903 l 950 903 l 958 858 z "},"ų":{"ha":789,"x_min":0,"x_max":775,"o":"m 539 -162 q 561 -219 539 -197 q 625 -242 583 -242 q 739 -207 675 -242 l 763 -261 l 601 -336 q 484 -299 531 -340 q 438 -194 438 -257 q 588 6 438 -86 q 535 82 550 39 q 388 8 465 38 q 267 -21 310 -21 q 144 69 190 -4 q 121 196 122 101 l 121 572 l 17 564 l 0 629 q 189 672 93 669 l 244 624 l 244 206 q 336 86 249 86 q 531 158 413 86 l 531 572 l 426 564 l 410 629 q 599 672 503 669 l 654 624 l 654 119 q 690 92 654 92 q 754 104 711 92 l 775 43 l 647 -15 q 539 -162 539 -82 z "},"Ÿ":{"ha":829,"x_min":0,"x_max":829,"o":"m 474 79 l 588 65 l 586 0 l 244 0 l 236 44 l 344 85 l 344 350 l 86 828 l 0 838 l 1 903 l 317 903 l 325 858 q 232 824 292 842 l 383 539 l 419 426 l 426 426 l 624 825 l 514 838 l 515 903 l 821 903 l 829 858 q 731 822 781 836 l 474 346 l 474 79 m 364 1106 q 290 1018 347 1043 q 200 1092 225 1035 q 276 1193 206 1160 q 364 1106 353 1164 m 646 1106 q 572 1018 629 1043 q 482 1092 507 1035 q 558 1193 488 1160 q 646 1106 635 1164 z "},"Ź":{"ha":797,"x_min":49,"x_max":749,"o":"m 749 257 q 713 0 739 143 l 78 0 l 49 63 l 574 817 l 193 803 l 175 650 l 100 650 q 85 851 85 735 l 86 903 l 707 903 l 736 839 l 218 103 l 624 106 l 668 268 l 749 257 m 560 1214 l 629 1097 l 296 961 l 247 1040 l 560 1214 z "},"ź":{"ha":669,"x_min":42,"x_max":635,"o":"m 635 194 q 603 -14 631 81 l 156 26 l 103 -21 l 42 29 l 439 567 l 167 558 l 150 419 l 82 419 q 67 579 67 485 l 69 650 l 542 650 l 585 681 l 632 639 l 243 113 l 535 99 l 564 204 l 635 194 m 225 797 l 422 1019 l 524 936 q 297 738 401 835 l 225 797 z "},"Ż":{"ha":797,"x_min":49,"x_max":749,"o":"m 749 257 q 713 0 739 143 l 78 0 l 49 63 l 574 817 l 193 803 l 175 650 l 100 650 q 85 851 85 735 l 86 903 l 707 903 l 736 839 l 218 103 l 624 106 l 668 268 l 749 257 m 481 1106 q 408 1018 467 1046 q 317 1092 342 1033 q 393 1193 325 1160 q 453 1156 426 1182 q 481 1106 479 1131 z "},"ż":{"ha":669,"x_min":42,"x_max":635,"o":"m 635 194 q 603 -14 631 81 l 156 26 l 103 -21 l 42 29 l 439 567 l 167 558 l 150 419 l 82 419 q 67 579 67 485 l 69 650 l 542 650 l 585 681 l 632 639 l 243 113 l 535 99 l 564 204 l 635 194 m 421 853 q 349 765 407 793 q 257 839 282 781 q 333 940 265 907 q 393 903 367 929 q 421 853 419 878 z "},"Ž":{"ha":797,"x_min":49,"x_max":749,"o":"m 749 257 q 713 0 739 143 l 78 0 l 49 63 l 574 817 l 193 803 l 175 650 l 100 650 q 85 851 85 735 l 86 903 l 707 903 l 736 839 l 218 103 l 624 106 l 668 268 l 749 257 m 403 1068 l 586 1218 l 642 1146 l 456 979 l 343 976 l 154 1125 l 231 1210 l 403 1068 z "},"ž":{"ha":669,"x_min":42,"x_max":635,"o":"m 635 194 q 603 -14 631 81 l 156 26 l 103 -21 l 42 29 l 439 567 l 167 558 l 150 419 l 82 419 q 67 579 67 485 l 69 650 l 542 650 l 585 681 l 632 639 l 243 113 l 535 99 l 564 204 l 635 194 m 339 843 l 486 1032 l 557 974 l 392 754 l 279 751 l 93 951 l 181 1031 l 339 843 z "},"Ș":{"ha":740,"x_min":76,"x_max":678,"o":"m 678 239 q 590 47 678 122 q 371 -28 503 -28 q 208 -2 296 -28 q 78 68 121 24 l 76 117 q 92 303 76 219 l 167 303 l 186 136 q 418 64 282 64 l 465 67 q 546 208 546 110 q 449 349 546 293 l 224 465 q 83 679 83 549 q 175 860 83 790 q 407 931 267 931 q 636 888 504 931 l 638 839 q 622 653 638 738 l 547 653 l 533 779 q 343 840 454 840 l 279 835 q 213 708 213 794 q 308 576 213 629 l 531 464 q 678 239 678 379 m 358 -82 q 414 -176 414 -114 q 321 -367 414 -262 l 263 -332 q 310 -231 310 -269 q 275 -172 310 -197 l 272 -137 l 358 -82 z "},"ș":{"ha":582,"x_min":35,"x_max":519,"o":"m 171 514 q 207 443 171 469 q 318 383 243 417 l 400 346 q 519 174 519 283 q 453 28 519 85 q 281 -28 386 -28 q 35 44 165 -28 l 86 167 q 361 58 217 78 q 399 139 399 92 q 364 215 399 186 q 227 290 329 244 q 90 377 125 335 q 54 479 54 419 q 128 622 54 567 q 318 678 203 678 q 496 636 415 678 q 472 457 500 535 l 397 457 l 388 564 q 242 594 318 594 l 215 593 q 171 514 171 565 m 289 -82 q 344 -176 344 -114 q 251 -367 344 -262 l 193 -332 q 240 -231 240 -269 q 206 -172 240 -197 l 203 -137 l 289 -82 z "},"Ț":{"ha":829,"x_min":14,"x_max":815,"o":"m 814 911 l 815 863 q 800 676 815 761 l 725 676 l 707 815 l 479 824 l 479 83 l 638 65 l 636 0 l 207 0 l 199 44 l 350 92 l 350 824 l 122 815 l 104 676 l 29 676 q 14 863 14 761 l 15 911 q 415 906 188 906 q 814 911 646 906 m 417 -82 q 472 -176 472 -114 q 379 -367 472 -262 l 321 -332 q 368 -231 368 -269 q 333 -172 368 -197 l 331 -137 l 417 -82 z "},"ț":{"ha":476,"x_min":28,"x_max":447,"o":"m 293 94 q 421 126 333 94 l 444 63 l 264 -21 q 170 15 217 -24 q 124 97 124 53 l 124 546 l 38 544 l 28 611 q 126 643 72 631 l 182 818 l 247 818 l 247 650 l 442 650 l 447 610 l 382 543 l 247 543 l 247 169 q 257 110 247 126 q 293 94 267 94 m 264 -82 q 319 -176 319 -114 q 226 -367 319 -262 l 168 -332 q 215 -231 215 -269 q 181 -172 215 -197 l 178 -137 l 264 -82 z "},"ˆ":{"ha":526,"x_min":39,"x_max":499,"o":"m 213 996 l 325 996 l 499 804 l 439 747 l 264 894 l 103 743 l 39 796 l 213 996 z "},"ˇ":{"ha":544,"x_min":43,"x_max":507,"o":"m 289 843 l 436 1032 l 507 974 l 342 754 l 229 751 l 43 951 l 131 1031 l 289 843 z "},"ˉ":{"ha":0,"x_min":-221,"x_max":267,"o":"m 260 876 l 267 828 l 201 781 l -212 781 l -221 842 q -64 876 -153 876 l 260 876 z "},"˘":{"ha":486,"x_min":56,"x_max":458,"o":"m 458 978 q 400 821 454 876 q 264 765 346 765 q 126 818 185 765 q 56 976 67 871 l 147 993 q 256 860 167 860 q 327 894 301 860 q 354 989 353 929 l 458 978 z "},"˙":{"ha":247,"x_min":42,"x_max":206,"o":"m 206 853 q 133 765 192 793 q 42 839 67 781 q 118 940 50 907 q 178 903 151 929 q 206 853 204 878 z "},"˚":{"ha":385,"x_min":42,"x_max":343,"o":"m 42 1138 q 85 1245 42 1201 q 192 1289 128 1289 q 299 1245 256 1289 q 343 1135 343 1201 q 302 1029 343 1071 q 197 988 261 988 q 87 1029 132 988 q 42 1138 42 1071 m 113 1124 q 113 1106 113 1124 q 136 1067 113 1089 q 194 1044 160 1044 q 251 1066 229 1044 q 272 1122 272 1088 q 249 1181 272 1157 q 193 1204 226 1204 q 135 1181 158 1204 q 113 1124 113 1158 z "},"˛":{"ha":376,"x_min":51,"x_max":376,"o":"m 318 13 q 153 -167 153 -68 q 175 -224 153 -201 q 239 -246 197 -246 q 353 -211 289 -246 l 376 -265 l 215 -340 q 98 -303 144 -344 q 51 -199 51 -261 q 109 -73 51 -136 q 267 36 167 -10 l 318 13 z "},"˜":{"ha":638,"x_min":57,"x_max":581,"o":"m 57 810 q 153 938 114 897 q 228 978 192 978 q 429 857 260 978 l 532 964 l 581 928 q 497 799 531 842 q 432 756 463 756 q 323 813 404 756 q 224 869 242 869 q 107 769 196 869 l 57 810 z "},"˝":{"ha":632,"x_min":42,"x_max":590,"o":"m 218 1031 l 339 972 q 118 739 226 860 l 42 792 l 218 1031 m 469 1031 l 590 972 q 369 739 478 860 l 293 792 l 469 1031 z "},"π":{"ha":885,"x_min":42,"x_max":843,"o":"m 789 543 l 689 546 l 731 0 l 644 -6 l 597 39 l 592 549 l 388 556 l 378 318 q 333 66 371 150 q 194 -18 294 -18 q 65 8 140 -18 l 111 119 l 236 58 q 253 229 247 88 l 264 558 l 190 561 l 81 483 l 42 526 q 110 603 68 567 q 188 650 151 639 l 838 650 l 843 583 l 789 543 z "},"–":{"ha":765,"x_min":56,"x_max":710,"o":"m 704 411 l 710 371 l 643 304 l 65 304 l 56 371 q 219 411 136 411 l 704 411 z "},"—":{"ha":1351,"x_min":56,"x_max":1296,"o":"m 1292 411 l 1296 371 l 1231 304 l 65 304 l 56 371 q 219 411 136 411 l 1292 411 z "},"‘":{"ha":303,"x_min":42,"x_max":247,"o":"m 247 1000 q 182 931 208 972 q 153 850 156 889 l 225 794 q 199 729 222 760 q 140 683 175 699 q 42 814 42 724 q 85 945 42 881 q 207 1053 129 1010 l 247 1000 z "},"’":{"ha":304,"x_min":56,"x_max":263,"o":"m 56 736 q 121 806 94 764 q 150 886 147 847 l 78 942 q 104 1007 81 976 q 163 1053 128 1038 q 263 918 263 1014 q 217 790 263 853 q 96 683 172 726 l 56 736 z "},"‚":{"ha":304,"x_min":56,"x_max":263,"o":"m 56 -97 q 121 -28 94 -69 q 150 53 147 14 l 78 108 q 104 174 81 143 q 163 219 128 204 q 263 85 263 181 q 217 -44 263 19 q 96 -150 172 -107 l 56 -97 z "},"“":{"ha":531,"x_min":42,"x_max":475,"o":"m 247 1000 q 182 931 208 972 q 153 850 156 889 l 225 794 q 199 729 222 760 q 140 683 175 699 q 42 814 42 724 q 85 945 42 881 q 207 1053 129 1010 l 247 1000 m 475 1000 q 410 931 436 972 q 381 850 383 889 l 453 794 q 426 729 450 760 q 368 683 403 699 q 269 814 269 724 q 313 945 269 881 q 435 1053 357 1010 l 475 1000 z "},"”":{"ha":531,"x_min":56,"x_max":489,"o":"m 56 736 q 121 806 94 764 q 150 886 147 847 l 78 942 q 104 1007 81 976 q 163 1053 128 1038 q 263 918 263 1014 q 217 790 263 853 q 96 683 172 726 l 56 736 m 282 736 q 347 806 321 764 q 376 886 374 847 l 304 942 q 331 1007 307 976 q 389 1053 354 1038 q 489 918 489 1014 q 444 790 489 853 q 322 683 399 726 l 282 736 z "},"„":{"ha":531,"x_min":56,"x_max":489,"o":"m 56 -97 q 121 -28 94 -69 q 150 53 147 14 l 78 108 q 104 174 81 143 q 163 219 128 204 q 263 85 263 181 q 217 -44 263 19 q 96 -150 172 -107 l 56 -97 m 282 -97 q 347 -28 321 -69 q 376 53 374 14 l 304 108 q 331 174 307 143 q 389 219 354 204 q 489 85 489 181 q 444 -44 489 19 q 322 -150 399 -107 l 282 -97 z "},"†":{"ha":738,"x_min":69,"x_max":668,"o":"m 608 550 l 413 550 l 394 -250 l 310 -250 l 294 550 l 78 550 l 69 590 l 129 650 l 293 650 l 288 913 l 335 957 l 421 951 l 414 650 l 660 650 l 668 610 l 608 550 z "},"‡":{"ha":750,"x_min":69,"x_max":681,"o":"m 660 265 l 668 225 l 608 165 l 417 165 l 407 -250 l 322 -250 l 314 165 l 78 165 l 69 206 l 129 265 l 313 265 l 307 550 l 90 550 l 82 590 l 142 650 l 306 650 l 300 913 l 347 957 l 433 951 l 426 650 l 672 650 l 681 610 l 621 550 l 425 550 l 418 265 l 660 265 z "},"•":{"ha":571,"x_min":118,"x_max":453,"o":"m 453 367 q 303 189 428 249 q 118 340 167 219 q 274 544 146 482 q 453 367 407 497 z "},"…":{"ha":1288,"x_min":125,"x_max":1149,"o":"m 315 75 q 231 -25 294 6 q 125 60 154 -10 q 214 175 138 136 q 315 75 304 143 m 732 75 q 647 -25 711 6 q 542 60 571 -10 q 631 175 554 136 q 732 75 721 142 m 1149 75 q 1064 -25 1128 6 q 958 60 988 -10 q 1047 175 971 136 q 1149 75 1138 143 z "},"‰":{"ha":1636,"x_min":83,"x_max":1553,"o":"m 83 604 q 142 751 83 688 q 278 815 200 815 q 417 752 358 815 q 476 604 476 689 q 422 454 476 514 q 283 394 367 394 q 142 456 201 394 q 83 604 83 518 m 800 797 l 874 747 l 306 -53 l 233 0 l 800 797 m 333 481 q 379 589 379 518 q 348 687 379 644 q 264 729 317 729 q 218 721 243 729 q 179 615 179 682 q 211 517 179 558 q 299 476 243 476 l 333 481 m 667 172 q 725 319 667 256 q 861 383 783 383 q 1001 320 942 383 q 1060 172 1060 257 q 1005 22 1060 82 q 867 -37 950 -37 q 726 24 785 -37 q 667 172 667 86 m 1160 172 q 1218 319 1160 256 q 1354 383 1276 383 q 1494 320 1435 383 q 1553 172 1553 257 q 1498 22 1553 82 q 1360 -37 1443 -37 q 1219 24 1278 -37 q 1160 172 1160 86 m 917 49 q 963 157 963 86 q 931 255 963 213 q 847 297 900 297 q 801 289 826 297 q 763 183 763 250 q 794 85 763 126 q 882 44 826 44 l 917 49 m 1410 49 q 1456 157 1456 86 q 1424 255 1456 213 q 1340 297 1393 297 q 1294 289 1319 297 q 1256 183 1256 250 q 1288 85 1256 126 q 1375 44 1319 44 l 1410 49 z "},"‹":{"ha":438,"x_min":83,"x_max":354,"o":"m 269 643 l 347 601 l 207 351 l 354 113 l 278 64 l 83 324 l 83 379 l 269 643 z "},"›":{"ha":438,"x_min":83,"x_max":354,"o":"m 354 324 l 160 64 l 83 113 l 231 351 l 90 601 l 168 643 l 354 379 l 354 324 z "},"⁄":{"ha":169,"x_min":-317,"x_max":542,"o":"m 481 922 l 542 860 l -253 28 l -317 89 l 481 922 z "},"€":{"ha":829,"x_min":-44,"x_max":794,"o":"m 769 146 l 794 79 l 538 -28 q 273 64 376 -22 q 133 290 169 150 l -36 290 l -44 317 l 1 367 l 121 367 l 117 433 l 119 494 l 1 494 l -7 521 l 40 571 l 131 571 q 269 829 165 728 q 542 931 372 931 q 794 846 690 931 q 768 650 792 749 l 692 650 l 683 790 q 483 853 578 853 l 447 850 q 271 571 315 775 l 722 571 l 731 544 l 685 494 l 261 494 l 258 440 l 263 367 l 667 367 l 675 340 l 628 290 l 279 290 q 568 88 340 99 l 769 146 z "},"₽":{"ha":838,"x_min":42,"x_max":779,"o":"m 289 261 l 496 261 l 501 221 l 444 186 l 289 186 l 289 85 l 451 65 l 450 0 l 50 0 l 42 44 l 160 88 l 160 186 l 50 186 l 42 226 l 101 261 l 160 261 l 160 340 l 50 340 l 42 381 l 101 421 l 160 421 l 160 831 l 61 836 l 63 903 l 450 914 q 688 833 596 914 q 779 626 779 751 q 695 426 779 507 q 478 340 611 344 l 289 340 l 289 261 m 289 825 l 289 421 l 431 421 q 586 482 535 421 q 638 631 638 543 q 610 755 638 699 q 529 836 582 811 l 289 825 z "},"™":{"ha":1010,"x_min":13,"x_max":968,"o":"m 14 1025 l 64 1024 l 204 1022 l 347 1024 l 392 1025 q 388 917 396 990 l 382 883 l 331 883 l 317 969 l 250 974 l 250 664 l 314 654 l 313 624 l 101 624 l 97 643 l 157 669 l 157 974 l 89 969 l 75 883 l 24 883 q 13 1003 13 919 l 14 1025 m 968 654 l 968 624 l 772 624 l 769 643 q 824 669 794 660 l 821 832 l 829 940 l 715 633 l 644 619 l 531 935 l 540 832 l 538 661 l 589 654 l 589 624 l 419 624 l 417 643 q 471 669 442 660 l 478 983 l 429 990 l 429 1021 l 590 1021 l 699 719 l 808 1021 l 951 1021 l 956 1001 l 906 976 l 911 663 l 968 654 z "},"Ω":{"ha":978,"x_min":58,"x_max":925,"o":"m 925 496 q 870 262 925 372 q 711 78 815 151 l 899 65 l 897 0 l 563 0 l 563 88 q 735 253 675 142 q 796 490 796 364 q 710 748 796 647 q 488 849 625 849 q 278 752 358 849 q 199 506 199 656 q 265 258 199 374 q 454 93 332 143 l 454 0 l 103 0 l 94 44 q 290 81 164 67 q 117 256 176 151 q 58 483 58 360 q 110 698 58 594 q 260 866 161 801 q 496 931 358 931 q 804 806 683 931 q 925 496 925 682 z "},"∂":{"ha":833,"x_min":129,"x_max":756,"o":"m 296 1057 q 630 820 504 997 q 756 408 756 643 q 664 80 756 207 q 419 -47 572 -47 q 210 43 290 -47 q 129 274 129 133 q 231 540 129 429 q 474 651 332 651 l 610 606 q 481 844 569 742 q 272 983 393 946 l 296 1057 m 431 42 q 583 172 529 68 q 638 413 638 275 q 625 544 638 478 q 532 556 581 556 q 329 471 408 556 q 250 260 250 386 q 298 106 250 167 q 431 42 346 44 z "},"∆":{"ha":933,"x_min":56,"x_max":878,"o":"m 878 26 l 824 0 l 64 0 l 56 40 l 408 899 l 518 936 l 872 75 l 878 26 m 733 75 l 453 786 l 172 75 l 733 75 z "},"∏":{"ha":1083,"x_min":42,"x_max":1042,"o":"m 872 -58 l 1007 -74 l 1006 -139 l 633 -139 l 625 -94 l 743 -51 l 743 932 l 347 932 l 347 -58 l 482 -74 l 481 -139 l 108 -139 l 100 -94 l 218 -51 l 218 932 l 50 932 l 42 972 q 171 1021 115 1021 l 1036 1021 l 1042 972 l 988 932 l 872 932 l 872 -58 z "},"∑":{"ha":804,"x_min":42,"x_max":763,"o":"m 747 76 q 763 -94 763 -8 l 761 -139 l 43 -139 l 42 -72 l 314 393 l 42 954 l 43 1021 l 733 1021 l 735 976 q 719 806 735 890 l 644 808 l 628 917 l 236 932 l 188 938 l 436 422 l 156 -60 l 236 -50 l 656 -35 l 672 74 l 747 76 z "},"−":{"ha":836,"x_min":83,"x_max":753,"o":"m 753 276 l 83 276 l 83 367 l 753 367 l 753 276 z "},"∕":{"ha":169,"x_min":-317,"x_max":542,"o":"m 481 922 l 542 860 l -253 28 l -317 89 l 481 922 z "},"∙":{"ha":276,"x_min":42,"x_max":207,"o":"m 135 247 q 42 319 75 269 q 117 411 71 382 q 207 339 167 393 q 135 247 183 278 z "},"√":{"ha":950,"x_min":28,"x_max":826,"o":"m 826 1003 l 551 -83 q 428 -107 492 -110 l 215 524 l 82 438 l 28 500 l 208 650 l 294 650 l 482 58 l 728 1043 l 826 1003 z "},"∞":{"ha":1024,"x_min":43,"x_max":994,"o":"m 771 706 q 928 634 861 706 q 994 460 994 563 q 928 297 994 360 q 763 233 863 233 q 622 276 679 233 q 510 394 565 319 q 278 239 415 239 q 113 306 183 239 q 43 471 43 374 q 113 639 43 571 q 281 707 183 707 q 413 665 356 707 q 528 550 471 624 q 642 665 576 625 q 771 706 707 706 m 296 351 q 467 456 397 351 q 263 604 363 604 q 197 589 228 604 q 153 479 153 539 q 192 388 153 424 q 296 351 231 351 m 826 336 q 874 451 874 381 q 840 555 874 510 q 749 600 806 600 q 576 486 660 600 q 686 365 644 400 q 776 329 728 329 q 826 336 804 329 z "},"∫":{"ha":392,"x_min":-61,"x_max":453,"o":"m 169 919 q 219 928 194 928 q 371 867 293 928 l 375 863 l 453 974 q 293 1043 385 1043 q 132 969 197 1043 q 67 781 67 894 l 226 -122 q 176 -131 201 -131 q 25 -72 104 -131 l 17 -65 l -61 -176 q 94 -244 7 -244 q 262 -170 194 -244 q 329 17 329 -96 l 169 919 z "},"≈":{"ha":749,"x_min":85,"x_max":675,"o":"m 85 411 q 176 531 139 493 q 249 568 213 568 q 357 532 283 568 l 519 449 l 636 546 l 675 511 q 582 383 614 418 q 524 347 550 347 q 374 407 496 347 q 247 460 274 460 q 135 372 214 460 l 85 411 m 85 175 q 176 294 139 257 q 249 332 213 332 q 357 296 283 332 l 519 213 l 636 310 l 675 275 q 582 147 614 182 q 524 111 550 111 q 374 171 496 111 q 247 224 274 224 q 135 136 214 224 l 85 175 z "},"≠":{"ha":822,"x_min":83,"x_max":739,"o":"m 521 422 l 422 263 l 739 263 l 739 172 l 367 172 l 236 -39 l 167 1 l 272 172 l 83 172 l 83 263 l 329 263 l 428 422 l 83 422 l 83 513 l 483 513 l 593 689 l 663 650 l 578 513 l 739 513 l 739 422 l 521 422 z "},"≤":{"ha":836,"x_min":83,"x_max":753,"o":"m 704 749 l 247 492 l 249 483 l 700 257 l 654 176 l 142 438 l 131 535 l 656 824 l 704 749 m 753 0 l 83 0 l 83 90 l 753 90 l 753 0 z "},"≥":{"ha":836,"x_min":83,"x_max":753,"o":"m 706 535 l 694 438 l 182 176 l 136 257 l 588 483 l 589 492 l 132 749 l 181 824 l 706 535 m 753 90 l 753 0 l 83 0 l 83 90 l 753 90 z "},"◊":{"ha":786,"x_min":69,"x_max":717,"o":"m 717 510 l 456 0 l 358 -11 l 69 511 l 331 1021 l 428 1032 l 717 510 m 601 510 l 385 901 l 376 900 l 185 511 l 401 119 l 410 121 l 601 510 z "},"́":{"ha":0,"x_min":-115,"x_max":183,"o":"m -115 797 l 82 1019 l 183 936 q -43 738 61 835 l -115 797 z "},"̆":{"ha":0,"x_min":-200,"x_max":203,"o":"m 203 978 q 144 821 199 876 q 8 765 90 765 q -130 818 -71 765 q -200 976 -189 871 l -108 993 q 0 860 -89 860 q 72 894 46 860 q 99 989 97 929 l 203 978 z "},"̌":{"ha":0,"x_min":-247,"x_max":217,"o":"m -1 843 l 146 1032 l 217 974 l 51 754 l -61 751 l -247 951 l -160 1031 l -1 843 z "},"̧":{"ha":0,"x_min":-110,"x_max":154,"o":"m -7 -82 q 113 -117 71 -82 q 154 -199 154 -153 q -92 -368 154 -317 l -110 -321 q 2 -264 -37 -299 q 42 -197 42 -229 q -67 -146 42 -137 l -104 -92 l -17 8 l 51 8 l -7 -82 z "},"̂":{"ha":0,"x_min":-224,"x_max":236,"o":"m -50 996 l 63 996 l 236 804 l 176 747 l 1 894 l -160 743 l -224 796 l -50 996 z "},"̦":{"ha":0,"x_min":-94,"x_max":57,"o":"m 1 -82 q 57 -176 57 -114 q -36 -367 57 -262 l -94 -332 q -47 -231 -47 -269 q -82 -172 -47 -197 l -85 -137 l 1 -82 z "},"̈":{"ha":0,"x_min":-222,"x_max":224,"o":"m -58 853 q -132 765 -75 790 q -222 839 -197 782 q -146 940 -217 907 q -58 853 -69 911 m 224 853 q 150 765 207 790 q 60 839 85 782 q 136 940 65 907 q 224 853 213 911 z "},"̇":{"ha":0,"x_min":-83,"x_max":81,"o":"m 81 853 q 8 765 67 793 q -83 839 -58 781 q -7 940 -75 907 q 53 903 26 929 q 81 853 79 878 z "},"̣":{"ha":0,"x_min":-83,"x_max":81,"o":"m 81 -225 q 8 -312 67 -285 q -83 -239 -58 -297 q -7 -137 -75 -171 q 53 -174 26 -149 q 81 -225 79 -200 z "},"̀":{"ha":0,"x_min":-179,"x_max":119,"o":"m 47 738 q -179 936 -58 838 l -78 1019 l 119 797 l 47 738 z "},"̋":{"ha":0,"x_min":-199,"x_max":350,"o":"m -22 1031 l 99 972 q -122 739 -14 860 l -199 792 l -22 1031 m 229 1031 l 350 972 q 129 739 238 860 l 53 792 l 229 1031 z "},"̱":{"ha":0,"x_min":-249,"x_max":239,"o":"m 232 -217 l 239 -265 l 174 -312 l -240 -312 l -249 -251 q -92 -217 -181 -217 l 232 -217 z "},"̄":{"ha":0,"x_min":-221,"x_max":267,"o":"m 260 876 l 267 828 l 201 781 l -212 781 l -221 842 q -64 876 -153 876 l 260 876 z "},"̨":{"ha":0,"x_min":-267,"x_max":58,"o":"m 0 13 q -165 -167 -165 -68 q -143 -224 -165 -201 q -79 -246 -121 -246 q 35 -211 -29 -246 l 58 -265 l -103 -340 q -220 -303 -174 -344 q -267 -199 -267 -261 q -209 -73 -267 -136 q -51 36 -151 -10 l 0 13 z "},"̊":{"ha":0,"x_min":-150,"x_max":151,"o":"m -150 1138 q -107 1245 -150 1201 q 0 1289 -64 1289 q 108 1245 64 1289 q 151 1135 151 1201 q 110 1029 151 1071 q 6 988 69 988 q -105 1029 -60 988 q -150 1138 -150 1071 m -79 1124 q -79 1106 -79 1124 q -56 1067 -79 1089 q 3 1044 -32 1044 q 59 1066 38 1044 q 81 1122 81 1088 q 58 1181 81 1157 q 1 1204 35 1204 q -56 1181 -33 1204 q -79 1124 -79 1158 z "},"̃":{"ha":0,"x_min":-250,"x_max":274,"o":"m -250 810 q -154 938 -193 897 q -79 978 -115 978 q 122 857 -47 978 l 225 964 l 274 928 q 190 799 224 842 q 125 756 156 756 q 16 813 97 756 q -83 869 -65 869 q -200 769 -111 869 l -250 810 z "},"̒":{"ha":0,"x_min":-90,"x_max":115,"o":"m 115 1099 q 50 1029 76 1071 q 21 949 24 988 l 93 893 q 67 828 90 858 q 8 782 43 797 q -90 913 -90 822 q -47 1044 -90 979 q 75 1151 -3 1108 l 115 1099 z "},"ऄ":{"ha":1031,"x_min":28,"x_max":1072,"o":"m 1060 747 l 846 747 l 906 694 l 906 -36 l 872 -46 l 790 7 l 790 333 q 732 322 761 322 q 632 344 686 322 q 653 246 653 297 q 589 91 653 151 q 424 31 525 31 q 222 106 324 31 q 28 372 121 181 l 90 410 q 228 200 156 269 q 390 131 301 131 q 509 175 465 131 q 553 282 553 219 q 525 373 553 331 q 443 432 497 415 l 296 356 l 233 465 q 375 517 296 514 q 503 679 503 582 q 456 769 503 742 q 333 743 404 775 q 204 656 263 711 l 136 749 q 367 854 244 854 q 526 790 456 854 q 596 646 596 726 q 510 482 596 551 q 576 431 546 461 q 675 411 624 411 q 790 446 746 411 l 790 747 l 661 747 l 619 817 l 632 844 l 797 844 q 693 979 790 958 l 494 1008 q 317 1257 347 1044 l 379 1271 q 441 1153 394 1192 q 609 1108 488 1115 q 774 1072 731 1101 q 841 989 818 1043 q 868 844 864 935 l 1031 844 l 1072 775 l 1060 747 z "},"अ":{"ha":1031,"x_min":28,"x_max":1072,"o":"m 1060 747 l 846 747 l 906 694 l 906 -36 l 872 -46 l 790 7 l 790 333 q 732 322 761 322 q 632 344 686 322 q 653 246 653 297 q 589 91 653 151 q 424 31 525 31 q 222 106 324 31 q 28 372 121 181 l 90 410 q 228 200 156 269 q 390 131 301 131 q 509 175 465 131 q 553 282 553 219 q 525 373 553 331 q 443 432 497 415 l 296 356 l 233 465 q 375 517 296 514 q 503 679 503 582 q 456 769 503 742 q 333 743 404 775 q 204 656 263 711 l 136 749 q 367 854 244 854 q 526 790 456 854 q 596 646 596 726 q 510 482 596 551 q 576 431 546 461 q 675 411 624 411 q 790 446 746 411 l 790 747 l 661 747 l 619 817 l 632 844 l 1031 844 l 1072 775 l 1060 747 z "},"आ":{"ha":1396,"x_min":28,"x_max":1438,"o":"m 1425 747 l 1211 747 l 1271 694 l 1271 -36 l 1238 -46 l 1156 7 l 1156 747 l 846 747 l 906 694 l 906 -36 l 872 -46 l 790 7 l 790 333 q 732 322 761 322 q 632 344 686 322 q 653 246 653 297 q 589 91 653 151 q 424 31 525 31 q 222 106 324 31 q 28 372 121 181 l 90 410 q 228 200 156 269 q 390 131 301 131 q 509 175 465 131 q 553 282 553 219 q 525 373 553 331 q 443 432 497 415 l 296 356 l 233 465 q 375 517 296 514 q 503 679 503 582 q 456 769 503 742 q 333 743 404 775 q 204 656 263 711 l 136 749 q 367 854 244 854 q 526 790 456 854 q 596 646 596 726 q 510 482 596 551 q 576 431 546 461 q 675 411 624 411 q 790 446 746 411 l 790 747 l 661 747 l 619 817 l 632 844 l 1396 844 l 1438 775 l 1425 747 z "},"इ":{"ha":747,"x_min":-42,"x_max":789,"o":"m 776 747 l 549 747 l 608 694 l 608 532 l 339 532 q 172 442 172 532 q 229 350 172 399 l 511 421 q 639 331 589 390 q 689 201 689 272 q 600 39 689 103 q 369 -25 511 -25 l 544 -197 l 439 -278 l 268 -10 q 126 58 186 11 l 164 213 l 224 213 l 319 57 q 508 114 433 61 q 582 240 582 167 q 565 304 582 274 l 332 242 q 153 335 232 256 q 74 494 74 414 q 127 601 74 557 q 283 644 181 644 l 500 644 l 500 747 l 0 747 l -42 817 l -29 844 l 747 844 l 789 775 l 776 747 z "},"ई":{"ha":747,"x_min":-42,"x_max":789,"o":"m 776 747 l 549 747 l 608 694 l 608 532 l 339 532 q 172 442 172 532 q 229 350 172 399 l 511 421 q 639 331 589 390 q 689 201 689 272 q 600 39 689 103 q 369 -25 511 -25 l 544 -197 l 439 -278 l 268 -10 q 126 58 186 11 l 164 213 l 224 213 l 319 57 q 508 114 433 61 q 582 240 582 167 q 565 304 582 274 l 332 242 q 153 335 232 256 q 74 494 74 414 q 127 601 74 557 q 283 644 181 644 l 500 644 l 500 747 l 0 747 l -42 817 l -29 844 l 500 844 q 371 1076 371 956 q 418 1197 371 1147 q 546 1247 465 1247 q 706 1189 635 1247 l 685 1126 q 590 1156 636 1156 q 504 1123 539 1156 q 469 1036 469 1090 q 571 844 469 938 l 747 844 l 789 775 l 776 747 z "},"उ":{"ha":739,"x_min":-42,"x_max":781,"o":"m 768 747 l 525 747 q 594 604 594 688 q 515 463 594 518 q 635 351 592 419 q 678 207 678 282 q 607 42 678 108 q 428 -25 536 -25 q 21 336 193 -25 l 85 375 q 401 89 218 89 q 522 131 474 89 q 571 240 571 172 q 536 345 571 296 q 439 411 501 394 l 293 336 l 232 447 q 374 499 292 496 q 490 638 490 544 q 431 747 490 707 l 0 747 l -42 817 l -29 844 l 739 844 l 781 775 l 768 747 z "},"ऊ":{"ha":1021,"x_min":-42,"x_max":1063,"o":"m 525 747 q 594 604 594 688 q 515 463 594 518 q 592 404 563 436 q 813 526 711 526 q 956 463 897 526 q 1015 311 1015 399 q 854 64 1015 182 l 774 154 q 931 364 931 272 q 910 415 931 394 q 853 436 889 436 q 657 308 758 436 q 678 207 678 258 q 607 42 678 108 q 428 -25 536 -25 q 21 336 193 -25 l 85 375 q 401 89 218 89 q 522 131 474 89 q 571 240 571 172 q 536 345 571 296 q 439 411 501 394 l 293 336 l 232 447 q 374 499 292 496 q 490 638 490 544 q 431 747 490 707 l 0 747 l -42 817 l -29 844 l 1021 844 l 1063 775 l 1050 747 l 525 747 z "},"ऋ":{"ha":1124,"x_min":-21,"x_max":1165,"o":"m 679 694 l 679 376 q 785 343 729 343 q 907 401 867 343 l 819 508 l 846 556 l 975 551 q 993 475 993 519 q 982 411 993 442 q 1083 199 1083 283 q 1040 85 1083 139 q 917 14 997 32 l 861 86 l 871 117 q 989 243 989 149 q 951 346 989 293 q 767 261 882 261 q 679 278 721 261 l 679 -36 l 646 -46 l 564 7 l 564 304 l 246 74 l 163 147 l 504 386 l 431 456 q 310 519 358 519 q 133 432 236 519 l 56 531 q 258 626 154 626 q 451 529 351 626 l 564 415 l 564 747 l 21 747 l -21 817 l -8 844 l 1124 844 l 1165 775 l 1153 747 l 619 747 l 679 694 z "},"ॠ":{"ha":1176,"x_min":-21,"x_max":1281,"o":"m 1281 -112 q 1101 -197 1199 -197 q 965 -146 1026 -197 q 904 -35 904 -94 l 908 -8 q 807 113 807 42 q 1008 278 807 219 l 950 357 q 767 275 881 275 q 679 288 721 275 l 679 -36 l 646 -46 l 564 7 l 564 304 l 246 74 l 163 147 l 504 386 l 431 456 q 310 519 358 519 q 133 432 236 519 l 56 531 q 258 626 154 626 q 451 529 351 626 l 564 415 l 564 747 l 21 747 l -21 817 l -8 844 l 1176 844 l 1218 775 l 1206 747 l 619 747 l 679 694 l 679 379 q 775 354 721 354 q 906 413 861 354 l 819 522 l 846 569 l 975 565 q 993 490 993 535 q 983 429 993 454 l 1111 246 l 1089 196 q 944 146 992 169 q 897 85 897 122 q 936 36 897 53 q 1121 126 988 90 l 1181 57 l 1168 26 q 1031 -23 1076 7 q 986 -82 986 -53 q 1038 -119 986 -119 q 1133 -92 1079 -119 q 1226 -26 1186 -65 l 1281 -112 z "},"ऌ":{"ha":949,"x_min":-42,"x_max":990,"o":"m 758 -121 q 899 7 829 -121 l 983 -64 q 810 -203 924 -203 q 661 -136 732 -203 q 590 8 590 -69 q 608 80 590 46 q 678 182 625 114 q 751 289 732 250 q 771 375 771 328 q 743 465 771 428 q 668 501 715 501 q 555 426 600 501 q 510 238 510 350 l 514 174 l 489 164 l 404 228 l 400 289 q 419 414 400 358 q 294 468 364 468 q 201 427 238 468 q 165 326 165 386 q 234 167 165 244 q 422 7 303 89 l 375 -54 q 49 378 49 175 q 108 527 49 467 q 250 588 168 588 q 350 560 306 588 l 442 463 q 600 574 496 553 l 600 747 l 0 747 l -42 817 l -29 844 l 949 844 l 990 775 l 978 747 l 656 747 l 715 694 l 715 568 q 834 480 789 544 q 879 342 879 415 q 849 225 879 279 q 765 104 819 171 q 698 6 711 32 q 685 -47 685 -21 q 706 -100 685 -79 q 758 -121 728 -121 z "},"ॡ":{"ha":949,"x_min":-42,"x_max":1057,"o":"m 1057 -206 q 869 -337 990 -337 q 742 -286 796 -337 q 689 -176 689 -235 l 692 -153 q 590 -1 590 -97 q 614 86 590 46 q 683 185 638 126 q 749 283 728 243 q 771 374 771 324 q 743 464 771 426 q 668 501 715 501 q 555 426 600 501 q 510 238 510 350 l 514 174 l 489 164 l 404 228 l 400 289 q 419 414 400 358 q 294 468 364 468 q 201 427 238 468 q 165 326 165 386 q 234 167 165 244 q 422 7 303 89 l 375 -54 q 49 378 49 175 q 108 527 49 467 q 250 588 168 588 q 350 560 306 588 l 442 463 q 600 574 496 553 l 600 747 l 0 747 l -42 817 l -29 844 l 949 844 l 990 775 l 978 747 l 656 747 l 715 694 l 715 568 q 834 480 789 544 q 879 342 879 415 q 849 225 879 279 q 765 104 819 171 q 698 6 711 32 q 685 -47 685 -21 q 715 -107 685 -86 q 851 -3 757 -53 l 926 -54 l 922 -87 q 813 -158 844 -122 q 781 -221 781 -194 q 794 -252 781 -239 q 829 -265 807 -265 q 985 -136 907 -265 l 1057 -206 z "},"ऍ":{"ha":771,"x_min":-42,"x_max":813,"o":"m 800 747 l 596 747 l 657 694 l 657 510 q 620 291 657 350 q 474 194 583 232 l 429 269 l 542 332 l 542 747 l 164 747 l 224 694 l 224 257 l 588 83 q 747 -17 701 29 q 793 -122 793 -64 q 754 -231 793 -178 l 643 -171 q 671 -100 671 -128 q 613 -24 671 -60 l 321 118 q 108 414 108 221 l 108 747 l 0 747 l -42 817 l -29 844 l 771 844 l 813 775 l 800 747 m 638 1125 q 563 981 618 1031 q 432 931 508 931 q 279 981 356 931 q 146 1128 203 1032 l 193 1174 q 392 1026 279 1026 q 538 1169 506 1026 l 638 1125 z "},"ऎ":{"ha":771,"x_min":-42,"x_max":813,"o":"m 800 747 l 596 747 l 657 694 l 657 510 q 620 291 657 350 q 474 194 583 232 l 429 269 l 542 332 l 542 747 l 164 747 l 224 694 l 224 257 l 588 83 q 747 -17 701 29 q 793 -122 793 -64 q 754 -231 793 -178 l 643 -171 q 671 -100 671 -128 q 613 -24 671 -60 l 321 118 q 108 414 108 221 l 108 747 l 0 747 l -42 817 l -29 844 l 506 844 q 401 979 499 958 l 203 1008 q 25 1257 56 1044 l 88 1271 q 149 1153 103 1192 q 317 1108 196 1115 q 483 1072 439 1101 q 549 989 526 1043 q 576 844 572 935 l 771 844 l 813 775 l 800 747 z "},"ए":{"ha":771,"x_min":-42,"x_max":813,"o":"m 800 747 l 596 747 l 657 694 l 657 510 q 620 291 657 350 q 474 194 583 232 l 429 269 l 542 332 l 542 747 l 164 747 l 224 694 l 224 257 l 588 83 q 747 -17 701 29 q 793 -122 793 -64 q 754 -231 793 -178 l 643 -171 q 671 -100 671 -128 q 613 -24 671 -60 l 321 118 q 108 414 108 221 l 108 747 l 0 747 l -42 817 l -29 844 l 771 844 l 813 775 l 800 747 z "},"ऐ":{"ha":771,"x_min":-42,"x_max":813,"o":"m 800 747 l 596 747 l 657 694 l 657 510 q 620 291 657 350 q 474 194 583 232 l 429 269 l 542 332 l 542 747 l 164 747 l 224 694 l 224 257 l 588 83 q 747 -17 701 29 q 793 -122 793 -64 q 754 -231 793 -178 l 643 -171 q 671 -100 671 -128 q 613 -24 671 -60 l 321 118 q 108 414 108 221 l 108 747 l 0 747 l -42 817 l -29 844 l 546 844 l 407 1040 q 264 1124 343 1124 q 119 1071 201 1124 l 54 1178 q 218 1244 135 1244 q 453 1090 346 1244 l 624 844 l 771 844 l 813 775 l 800 747 z "},"ऑ":{"ha":1396,"x_min":28,"x_max":1438,"o":"m 1036 914 q 998 914 1036 914 q 883 965 960 914 q 750 1111 807 1015 l 797 1157 q 996 1010 883 1010 q 1142 1153 1110 1010 l 1242 1108 q 1167 964 1222 1014 q 1036 914 1113 914 m 1425 747 l 1211 747 l 1271 694 l 1271 -36 l 1238 -46 l 1156 7 l 1156 747 l 846 747 l 906 694 l 906 -36 l 872 -46 l 790 7 l 790 333 q 732 322 761 322 q 632 344 686 322 q 653 246 653 297 q 589 91 653 151 q 424 31 525 31 q 222 106 324 31 q 28 372 121 181 l 90 410 q 228 200 156 269 q 390 131 301 131 q 509 175 465 131 q 553 282 553 219 q 525 373 553 331 q 443 432 497 415 l 296 356 l 233 465 q 375 517 296 514 q 503 679 503 582 q 456 769 503 742 q 333 743 404 775 q 204 656 263 711 l 136 749 q 367 854 244 854 q 526 790 456 854 q 596 646 596 726 q 510 482 596 551 q 576 431 546 461 q 675 411 624 411 q 790 446 746 411 l 790 747 l 661 747 l 619 817 l 632 844 l 1396 844 l 1438 775 l 1425 747 z "},"ऒ":{"ha":1396,"x_min":28,"x_max":1438,"o":"m 1425 747 l 1211 747 l 1271 694 l 1271 -36 l 1238 -46 l 1156 7 l 1156 747 l 846 747 l 906 694 l 906 -36 l 872 -46 l 790 7 l 790 333 q 732 322 761 322 q 632 344 686 322 q 653 246 653 297 q 589 91 653 151 q 424 31 525 31 q 222 106 324 31 q 28 372 121 181 l 90 410 q 228 200 156 269 q 390 131 301 131 q 509 175 465 131 q 553 282 553 219 q 525 373 553 331 q 443 432 497 415 l 296 356 l 233 465 q 375 517 296 514 q 503 679 503 582 q 456 769 503 742 q 333 743 404 775 q 204 656 263 711 l 136 749 q 367 854 244 854 q 526 790 456 854 q 596 646 596 726 q 510 482 596 551 q 576 431 546 461 q 675 411 624 411 q 790 446 746 411 l 790 747 l 661 747 l 619 817 l 632 844 l 1181 844 q 1076 979 1174 958 l 878 1008 q 700 1257 731 1044 l 763 1271 q 824 1153 778 1192 q 992 1108 871 1115 q 1158 1072 1114 1101 q 1224 989 1201 1043 q 1251 844 1247 935 l 1396 844 l 1438 775 l 1425 747 z "},"ओ":{"ha":1396,"x_min":28,"x_max":1438,"o":"m 1425 747 l 1211 747 l 1271 694 l 1271 -36 l 1238 -46 l 1156 7 l 1156 747 l 846 747 l 906 694 l 906 -36 l 872 -46 l 790 7 l 790 333 q 732 322 761 322 q 632 344 686 322 q 653 246 653 297 q 589 91 653 151 q 424 31 525 31 q 222 106 324 31 q 28 372 121 181 l 90 410 q 228 200 156 269 q 390 131 301 131 q 509 175 465 131 q 553 282 553 219 q 525 373 553 331 q 443 432 497 415 l 296 356 l 233 465 q 375 517 296 514 q 503 679 503 582 q 456 769 503 742 q 333 743 404 775 q 204 656 263 711 l 136 749 q 367 854 244 854 q 526 790 456 854 q 596 646 596 726 q 510 482 596 551 q 576 431 546 461 q 675 411 624 411 q 790 446 746 411 l 790 747 l 661 747 l 619 817 l 632 844 l 1139 844 l 1000 1040 q 857 1124 936 1124 q 713 1071 794 1124 l 647 1178 q 811 1244 728 1244 q 1046 1090 939 1244 l 1217 844 l 1396 844 l 1438 775 l 1425 747 z "},"ॲ":{"ha":1031,"x_min":28,"x_max":1072,"o":"m 1060 747 l 846 747 l 906 694 l 906 -36 l 872 -46 l 790 7 l 790 333 q 732 322 761 322 q 632 344 686 322 q 653 246 653 297 q 589 91 653 151 q 424 31 525 31 q 222 106 324 31 q 28 372 121 181 l 90 410 q 228 200 156 269 q 390 131 301 131 q 509 175 465 131 q 553 282 553 219 q 525 373 553 331 q 443 432 497 415 l 296 356 l 233 465 q 375 517 296 514 q 503 679 503 582 q 456 769 503 742 q 333 743 404 775 q 204 656 263 711 l 136 749 q 367 854 244 854 q 526 790 456 854 q 596 646 596 726 q 510 482 596 551 q 576 431 546 461 q 675 411 624 411 q 790 446 746 411 l 790 747 l 661 747 l 619 817 l 632 844 l 1031 844 l 1072 775 l 1060 747 m 1022 1097 q 948 953 1003 1003 q 817 903 893 903 q 664 953 740 903 q 531 1100 588 1004 l 578 1146 q 776 999 664 999 q 922 1142 890 999 l 1022 1097 z "},"ॳ":{"ha":1031,"x_min":28,"x_max":1072,"o":"m 1060 747 l 846 747 l 906 694 l 906 -36 l 872 -46 l 790 7 l 790 333 q 732 322 761 322 q 632 344 686 322 q 653 246 653 297 q 589 91 653 151 q 424 31 525 31 q 222 106 324 31 q 28 372 121 181 l 90 410 q 228 200 156 269 q 390 131 301 131 q 509 175 465 131 q 553 282 553 219 q 525 373 553 331 q 443 432 497 415 l 296 356 l 233 465 q 375 517 296 514 q 503 679 503 582 q 456 769 503 742 q 333 743 404 775 q 204 656 263 711 l 136 749 q 367 854 244 854 q 526 790 456 854 q 596 646 596 726 q 510 482 596 551 q 576 431 546 461 q 675 411 624 411 q 790 446 746 411 l 790 747 l 661 747 l 619 817 l 632 844 l 796 844 l 796 1076 l 876 1076 l 876 844 l 1031 844 l 1072 775 l 1060 747 z "},"ॴ":{"ha":1396,"x_min":28,"x_max":1438,"o":"m 1425 747 l 1211 747 l 1271 694 l 1271 -36 l 1238 -46 l 1156 7 l 1156 747 l 846 747 l 906 694 l 906 -36 l 872 -46 l 790 7 l 790 333 q 732 322 761 322 q 632 344 686 322 q 653 246 653 297 q 589 91 653 151 q 424 31 525 31 q 222 106 324 31 q 28 372 121 181 l 90 410 q 228 200 156 269 q 390 131 301 131 q 509 175 465 131 q 553 282 553 219 q 525 373 553 331 q 443 432 497 415 l 296 356 l 233 465 q 375 517 296 514 q 503 679 503 582 q 456 769 503 742 q 333 743 404 775 q 204 656 263 711 l 136 749 q 367 854 244 854 q 526 790 456 854 q 596 646 596 726 q 510 482 596 551 q 576 431 546 461 q 675 411 624 411 q 790 446 746 411 l 790 747 l 661 747 l 619 817 l 632 844 l 1161 844 l 1161 1076 l 1242 1076 l 1242 844 l 1396 844 l 1438 775 l 1425 747 z "},"ॵ":{"ha":1396,"x_min":28,"x_max":1438,"o":"m 1425 747 l 1211 747 l 1271 694 l 1271 -36 l 1238 -46 l 1156 7 l 1156 747 l 846 747 l 906 694 l 906 -36 l 872 -46 l 790 7 l 790 333 q 732 322 761 322 q 632 344 686 322 q 653 246 653 297 q 589 91 653 151 q 424 31 525 31 q 222 106 324 31 q 28 372 121 181 l 90 410 q 228 200 156 269 q 390 131 301 131 q 509 175 465 131 q 553 282 553 219 q 525 373 553 331 q 443 432 497 415 l 296 356 l 233 465 q 375 517 296 514 q 503 679 503 582 q 456 769 503 742 q 333 743 404 775 q 204 656 263 711 l 136 749 q 367 854 244 854 q 526 790 456 854 q 596 646 596 726 q 510 482 596 551 q 576 431 546 461 q 675 411 624 411 q 790 446 746 411 l 790 747 l 661 747 l 619 817 l 632 844 l 1169 844 q 1014 942 1143 938 l 907 942 q 756 983 819 942 q 663 1132 693 1024 l 722 1160 q 773 1067 743 1092 q 856 1043 803 1043 l 925 1043 q 1133 993 1078 1043 l 1142 1004 q 1068 1054 1108 1036 l 926 1114 q 828 1271 828 1156 q 838 1356 828 1311 l 906 1349 q 899 1292 899 1321 q 922 1231 899 1251 q 1085 1150 944 1211 q 1246 896 1246 1079 l 1243 844 l 1396 844 l 1438 775 l 1425 747 z "},"ॶ":{"ha":1031,"x_min":28,"x_max":1072,"o":"m 1060 747 l 846 747 l 906 694 l 906 -36 l 872 -46 l 790 7 l 790 333 q 732 322 761 322 q 632 344 686 322 q 653 246 653 297 q 589 91 653 151 q 424 31 525 31 q 222 106 324 31 q 28 372 121 181 l 90 410 q 228 200 156 269 q 390 131 301 131 q 509 175 465 131 q 553 282 553 219 q 525 373 553 331 q 443 432 497 415 l 296 356 l 233 465 q 375 517 296 514 q 503 679 503 582 q 456 769 503 742 q 333 743 404 775 q 204 656 263 711 l 136 749 q 367 854 244 854 q 526 790 456 854 q 596 646 596 726 q 510 482 596 551 q 576 431 546 461 q 675 411 624 411 q 790 446 746 411 l 790 747 l 661 747 l 619 817 l 632 844 l 1031 844 l 1072 775 l 1060 747 m 390 -96 q 600 -182 496 -182 q 813 -97 719 -182 l 868 -181 q 774 -252 835 -225 q 646 -279 713 -279 q 485 -240 567 -279 q 358 -136 403 -201 l 390 -96 z "},"ॷ":{"ha":1031,"x_min":28,"x_max":1072,"o":"m 1060 747 l 846 747 l 906 694 l 906 -36 l 872 -46 l 790 7 l 790 333 q 732 322 761 322 q 632 344 686 322 q 653 246 653 297 q 589 91 653 151 q 424 31 525 31 q 222 106 324 31 q 28 372 121 181 l 90 410 q 228 200 156 269 q 390 131 301 131 q 509 175 465 131 q 553 282 553 219 q 525 373 553 331 q 443 432 497 415 l 296 356 l 233 465 q 375 517 296 514 q 503 679 503 582 q 456 769 503 742 q 333 743 404 775 q 204 656 263 711 l 136 749 q 367 854 244 854 q 526 790 456 854 q 596 646 596 726 q 510 482 596 551 q 576 431 546 461 q 675 411 624 411 q 790 446 746 411 l 790 747 l 661 747 l 619 817 l 632 844 l 1031 844 l 1072 775 l 1060 747 m 389 -304 q 599 -390 494 -390 q 811 -306 718 -390 l 867 -389 q 772 -460 833 -433 q 644 -487 711 -487 q 483 -449 565 -487 q 357 -344 401 -410 l 389 -304 m 389 -96 q 599 -182 494 -182 q 811 -97 718 -182 l 867 -181 q 772 -252 833 -225 q 644 -279 711 -279 q 483 -240 565 -279 q 357 -136 401 -201 l 389 -96 z "},"औ":{"ha":1396,"x_min":28,"x_max":1438,"o":"m 1425 747 l 1211 747 l 1271 694 l 1271 -36 l 1238 -46 l 1156 7 l 1156 747 l 846 747 l 906 694 l 906 -36 l 872 -46 l 790 7 l 790 333 q 732 322 761 322 q 632 344 686 322 q 653 246 653 297 q 589 91 653 151 q 424 31 525 31 q 222 106 324 31 q 28 372 121 181 l 90 410 q 228 200 156 269 q 390 131 301 131 q 509 175 465 131 q 553 282 553 219 q 525 373 553 331 q 443 432 497 415 l 296 356 l 233 465 q 375 517 296 514 q 503 679 503 582 q 456 769 503 742 q 333 743 404 775 q 204 656 263 711 l 136 749 q 367 854 244 854 q 526 790 456 854 q 596 646 596 726 q 510 482 596 551 q 576 431 546 461 q 675 411 624 411 q 790 446 746 411 l 790 747 l 661 747 l 619 817 l 632 844 l 1094 844 l 971 939 q 828 999 889 999 q 690 950 767 999 l 625 1057 q 774 1117 696 1117 q 997 1007 879 1117 l 1169 846 l 1072 1092 q 901 1243 1007 1243 q 785 1213 854 1243 l 731 1326 q 875 1368 801 1368 q 1133 1122 1051 1368 l 1226 844 l 1396 844 l 1438 775 l 1425 747 z "},"क":{"ha":1007,"x_min":-42,"x_max":1049,"o":"m 1036 747 l 503 747 l 563 694 l 563 476 q 738 557 646 557 q 892 485 826 557 q 958 317 958 414 q 754 17 958 154 l 669 113 q 868 357 868 251 q 844 426 868 397 q 771 454 821 454 q 563 314 672 454 l 563 -36 l 529 -46 l 447 7 l 447 192 q 319 143 390 143 q 126 226 217 143 q 35 413 35 310 q 97 556 35 497 q 244 614 160 614 q 303 606 274 614 l 447 536 l 447 747 l 0 747 l -42 817 l -29 844 l 1007 844 l 1049 775 l 1036 747 m 172 260 q 257 236 213 236 q 447 339 368 236 l 447 467 q 301 513 365 513 q 185 467 229 513 q 140 360 140 422 q 172 260 140 306 z "},"ख":{"ha":1086,"x_min":-42,"x_max":1128,"o":"m 1115 747 l 901 747 l 961 694 l 961 -36 l 928 -46 l 846 7 l 846 49 q 606 -28 750 -28 q 297 89 444 -28 q 82 390 150 206 l 113 460 l 269 460 q 286 553 286 496 l 285 747 l 0 747 l -42 817 l -29 844 l 1086 844 l 1128 775 l 1115 747 m 846 747 l 342 747 l 399 697 l 399 526 q 377 434 399 472 q 243 261 356 396 q 401 114 303 167 q 597 61 500 61 q 846 158 749 61 l 846 208 q 744 175 804 175 q 556 257 644 175 q 468 433 468 339 q 528 568 468 511 q 669 625 588 625 l 713 621 l 846 549 l 846 747 m 846 483 q 714 525 783 525 q 603 484 644 525 q 563 386 563 443 q 603 286 563 331 q 692 267 646 267 q 846 351 807 267 l 846 483 z "},"ग":{"ha":819,"x_min":-42,"x_max":861,"o":"m 849 747 l 635 747 l 694 694 l 694 -36 l 661 -46 l 579 7 l 579 747 l 253 747 l 313 694 l 313 206 l 246 178 q 135 267 188 211 q 63 378 82 324 l 101 432 l 197 432 l 197 747 l 0 747 l -42 817 l -29 844 l 819 844 l 861 775 l 849 747 z "},"घ":{"ha":903,"x_min":-42,"x_max":944,"o":"m 932 747 l 718 747 l 778 694 l 778 -36 l 744 -46 l 663 7 l 663 179 q 479 110 588 110 q 263 193 361 110 q 165 371 165 276 q 214 488 165 436 q 109 576 146 525 q 72 678 72 626 q 92 747 72 713 l 0 747 l -42 817 l -29 844 l 903 844 l 944 775 l 932 747 m 663 747 l 243 747 q 185 643 185 703 q 267 528 185 571 q 397 560 321 560 l 458 554 l 526 474 l 513 446 l 467 451 l 449 451 q 319 413 367 451 q 272 318 272 374 q 318 219 272 264 q 394 204 349 204 q 548 243 471 204 q 663 357 625 282 l 663 747 z "},"ङ":{"ha":926,"x_min":-42,"x_max":968,"o":"m 968 775 l 956 747 l 617 747 l 676 694 l 676 518 l 663 519 l 664 518 l 410 518 q 246 428 246 518 q 300 342 246 382 l 538 417 q 690 325 631 394 q 750 174 750 256 q 682 24 750 85 q 506 -36 614 -36 q 290 38 396 -36 q 64 288 183 111 l 114 328 q 283 135 201 196 q 456 74 365 74 q 593 120 538 74 q 649 231 649 167 q 624 303 649 272 l 400 229 q 226 323 306 244 q 147 481 147 401 q 202 587 147 543 q 353 631 257 631 l 565 631 l 568 628 l 568 747 l 0 747 l -42 817 l -29 844 l 926 844 l 968 775 m 838 474 q 932 397 888 453 q 857 301 908 336 q 760 378 794 326 q 838 474 790 442 z "},"च":{"ha":908,"x_min":-42,"x_max":950,"o":"m 938 747 l 724 747 l 783 694 l 783 -36 l 750 -46 l 668 7 l 668 197 q 489 132 590 132 q 273 215 371 132 q 175 400 175 297 q 200 496 175 450 l 50 496 l 11 560 l 24 588 l 522 588 l 564 518 l 551 490 l 360 490 q 289 343 289 446 q 325 242 289 279 q 411 228 361 228 q 559 265 488 228 q 668 375 631 303 l 668 747 l 0 747 l -42 817 l -29 844 l 908 844 l 950 775 l 938 747 z "},"छ":{"ha":1021,"x_min":-42,"x_max":1063,"o":"m 1050 747 l 732 747 l 792 694 l 792 651 q 904 539 861 615 q 947 364 947 463 q 826 69 947 193 q 535 -56 706 -56 q 285 30 394 -56 q 176 218 176 115 q 201 301 176 264 q 56 501 56 400 q 106 613 56 567 q 260 658 157 658 l 379 658 l 438 569 l 421 546 l 303 546 q 160 456 160 544 q 240 343 160 401 q 389 390 301 390 q 461 382 424 390 l 525 301 l 507 272 q 433 281 465 281 q 328 248 365 281 q 292 168 292 215 q 358 50 292 97 q 457 35 407 35 q 649 83 561 35 q 789 215 738 132 q 586 373 647 303 q 525 514 525 443 q 569 626 525 579 q 683 676 613 674 l 683 747 l 0 747 l -42 817 l -29 844 l 1021 844 l 1063 775 l 1050 747 m 847 415 q 813 561 847 515 q 739 589 776 589 q 666 557 696 589 q 636 476 636 525 q 818 271 636 369 q 847 415 847 338 z "},"ज":{"ha":926,"x_min":-42,"x_max":968,"o":"m 956 747 l 742 747 l 801 694 l 801 -36 l 768 -46 l 686 7 l 686 467 l 451 467 q 537 367 507 425 q 567 250 567 308 q 513 119 567 168 q 383 71 460 71 q 171 197 263 71 q 18 542 79 324 l 88 564 q 203 285 142 381 q 349 190 264 190 q 431 223 400 190 q 461 306 461 256 q 394 450 461 382 l 268 507 l 268 572 l 686 572 l 686 747 l 0 747 l -42 817 l -29 844 l 926 844 l 968 775 l 956 747 z "},"झ":{"ha":1090,"x_min":-42,"x_max":1132,"o":"m 1119 747 l 906 747 l 965 694 l 965 -36 l 932 -46 l 850 7 l 850 289 q 779 275 813 275 q 660 303 732 275 q 689 201 689 253 q 600 39 689 103 q 369 -25 511 -25 l 544 -197 l 439 -278 l 268 -10 q 126 58 186 11 l 164 213 l 224 213 l 319 57 q 508 114 433 61 q 582 240 582 167 q 565 304 582 274 l 332 242 q 153 335 232 256 q 74 494 74 414 q 127 601 74 557 q 283 644 181 644 l 500 644 l 500 747 l 0 747 l -42 817 l -29 844 l 1090 844 l 1132 775 l 1119 747 m 850 747 l 549 747 l 608 694 l 608 532 l 339 532 q 172 442 172 532 q 229 350 172 399 l 511 421 l 531 413 q 713 374 628 374 q 850 411 796 374 l 850 747 z "},"ञ":{"ha":1049,"x_min":-42,"x_max":1090,"o":"m 1078 747 l 864 747 l 924 694 l 924 -36 l 890 -46 l 808 7 l 808 311 l 788 310 q 679 336 738 310 q 606 184 675 243 q 439 125 536 125 q 217 210 331 125 q 3 463 104 294 l 58 504 q 220 304 143 372 q 392 236 297 236 q 521 283 472 236 q 569 394 569 331 q 537 489 569 447 q 450 543 504 531 l 314 431 l 232 536 q 418 615 317 615 q 581 556 507 615 q 674 404 654 496 l 728 397 q 808 413 771 397 l 808 747 l 0 747 l -42 817 l -29 844 l 1049 844 l 1090 775 l 1078 747 z "},"ट":{"ha":751,"x_min":-42,"x_max":793,"o":"m 781 747 l 514 747 l 574 694 l 574 431 l 571 432 l 574 429 l 360 429 q 222 386 269 429 q 174 278 174 343 q 258 117 174 183 q 365 99 313 99 q 508 131 439 99 q 619 221 576 163 l 703 131 q 586 28 657 64 q 443 -7 515 -7 q 274 35 363 -7 q 126 153 186 78 q 67 322 67 229 q 139 483 67 421 q 351 544 211 544 l 458 544 l 458 747 l 0 747 l -42 817 l -29 844 l 751 844 l 793 775 l 781 747 z "},"ठ":{"ha":803,"x_min":-42,"x_max":844,"o":"m 832 747 l 517 747 l 576 694 l 576 483 q 694 353 656 425 q 733 210 733 281 q 660 47 733 111 q 469 -17 586 -17 q 195 83 317 -17 q 74 318 74 183 q 149 484 74 422 q 357 546 225 546 l 461 546 l 461 747 l 0 747 l -42 817 l -29 844 l 803 844 l 844 775 l 832 747 m 408 72 q 561 127 501 72 q 621 263 621 182 q 544 432 621 347 l 382 432 q 233 386 285 432 q 181 272 181 340 q 271 104 181 174 q 408 72 344 72 z "},"ड":{"ha":824,"x_min":-42,"x_max":865,"o":"m 853 747 l 617 747 l 676 694 l 676 511 l 392 511 q 243 421 243 511 q 294 328 243 371 l 532 403 q 688 313 626 383 q 750 158 750 243 q 681 8 750 68 q 499 -53 611 -53 q 277 22 388 -53 q 49 276 167 96 l 100 314 q 453 58 257 58 q 592 103 536 58 q 647 213 647 147 q 622 289 647 254 l 400 215 q 274 265 333 225 q 178 361 214 306 q 142 469 142 417 q 198 583 142 535 q 365 631 254 631 l 568 631 l 568 747 l 0 747 l -42 817 l -29 844 l 824 844 l 865 775 l 853 747 z "},"ढ":{"ha":775,"x_min":-42,"x_max":817,"o":"m 804 747 l 561 747 l 621 694 l 621 474 l 382 474 q 235 422 292 474 q 178 289 178 369 q 274 100 178 179 q 444 63 381 63 l 471 64 l 408 106 q 375 210 375 156 q 419 322 375 276 q 531 367 464 367 q 668 299 610 367 q 726 151 726 232 q 662 13 726 67 q 489 -42 597 -42 q 197 75 324 -42 q 69 335 69 192 q 151 517 69 446 q 368 589 233 589 l 513 589 l 513 747 l 0 747 l -42 817 l -29 844 l 775 844 l 817 775 l 804 747 m 483 172 q 518 71 483 122 q 614 120 578 86 q 650 200 650 154 q 629 260 650 236 q 576 283 608 283 q 512 253 540 283 q 483 172 483 224 z "},"ण":{"ha":933,"x_min":-42,"x_max":975,"o":"m 963 747 l 749 747 l 808 694 l 808 -36 l 775 -46 l 693 7 l 693 747 l 463 747 l 522 694 l 522 414 q 475 245 522 292 q 360 199 428 199 q 183 288 271 199 q 94 478 94 378 l 94 747 l 0 747 l -42 817 l -29 844 l 933 844 l 975 775 l 963 747 m 407 747 l 150 747 l 210 694 l 210 354 q 311 294 239 294 q 379 325 351 294 q 407 417 407 356 l 407 747 z "},"त":{"ha":800,"x_min":-42,"x_max":842,"o":"m 829 747 l 615 747 l 675 694 l 675 -36 l 642 -46 l 560 7 l 560 454 l 389 454 q 172 308 172 454 q 367 -4 172 185 l 315 -53 q 60 358 60 192 q 127 507 60 447 q 332 567 194 567 l 560 567 l 560 747 l 0 747 l -42 817 l -29 844 l 800 844 l 842 775 l 829 747 z "},"थ":{"ha":857,"x_min":79,"x_max":899,"o":"m 886 747 l 672 747 l 732 694 l 732 -36 l 699 -46 l 617 7 l 617 183 q 460 131 550 131 q 242 216 349 131 q 79 432 135 301 l 97 482 q 293 545 219 493 q 367 674 367 597 q 306 796 367 756 l 282 799 q 215 772 240 799 q 189 710 189 744 q 264 611 189 660 l 229 564 q 85 746 85 654 q 127 840 85 804 q 231 876 169 876 q 394 801 321 876 q 468 622 467 725 q 397 472 468 538 q 215 383 325 406 q 296 240 242 289 q 379 225 333 225 q 517 260 450 225 q 617 361 583 294 l 617 747 l 503 747 l 461 817 l 474 844 l 857 844 l 899 775 l 886 747 z "},"द":{"ha":758,"x_min":-42,"x_max":800,"o":"m 788 747 l 532 747 l 592 694 l 592 458 l 589 460 l 592 457 l 371 457 q 231 409 285 457 q 178 289 178 361 q 203 199 178 244 q 278 122 228 153 q 365 108 318 108 q 511 150 449 108 l 486 275 l 578 319 l 703 171 q 672 111 696 146 q 615 53 647 76 l 739 -201 l 614 -250 l 547 19 q 453 3 500 3 q 191 107 315 3 q 67 339 67 211 q 143 506 67 442 q 344 572 219 571 l 476 572 l 476 747 l 0 747 l -42 817 l -29 844 l 758 844 l 800 775 l 788 747 z "},"ध":{"ha":910,"x_min":60,"x_max":951,"o":"m 939 747 l 725 747 l 785 694 l 785 -36 l 751 -46 l 669 7 l 669 186 q 479 110 593 110 q 263 193 361 110 q 165 371 165 276 q 221 496 165 443 q 60 719 60 611 q 108 832 60 788 q 229 876 156 876 q 465 661 378 876 l 410 631 q 301 779 360 735 l 274 783 q 203 755 233 783 q 174 683 174 726 q 276 533 174 606 q 397 558 331 558 l 458 554 l 526 474 l 513 446 l 467 451 l 449 451 q 319 413 367 451 q 272 318 272 374 q 318 219 272 264 q 394 204 349 204 q 556 247 475 204 q 669 372 636 290 l 669 747 l 515 747 l 474 817 l 486 844 l 910 844 l 951 775 l 939 747 z "},"न":{"ha":761,"x_min":-42,"x_max":803,"o":"m 790 747 l 576 747 l 636 694 l 636 -36 l 603 -46 l 521 7 l 521 404 l 272 404 l 272 254 l 206 228 q 58 444 110 318 l 115 510 l 521 510 l 521 747 l 0 747 l -42 817 l -29 844 l 761 844 l 803 775 l 790 747 z "},"ऩ":{"ha":761,"x_min":-42,"x_max":803,"o":"m 790 747 l 576 747 l 636 694 l 636 -36 l 603 -46 l 521 7 l 521 404 l 272 404 l 272 254 l 206 228 q 58 444 110 318 l 115 510 l 521 510 l 521 747 l 0 747 l -42 817 l -29 844 l 761 844 l 803 775 l 790 747 m 306 -69 q 213 3 246 -47 q 288 94 242 65 q 378 22 338 76 q 306 -69 354 -39 z "},"प":{"ha":771,"x_min":-42,"x_max":813,"o":"m 800 747 l 586 747 l 646 694 l 646 -36 l 613 -46 l 531 7 l 531 233 q 403 188 475 188 q 192 286 289 188 q 94 507 94 385 l 94 747 l 0 747 l -42 817 l -29 844 l 771 844 l 813 775 l 800 747 m 531 747 l 150 747 l 213 694 l 213 371 q 353 296 256 296 q 454 324 406 296 q 531 401 503 351 l 531 747 z "},"फ":{"ha":1046,"x_min":-42,"x_max":1088,"o":"m 1075 747 l 531 747 l 590 694 l 590 485 q 782 571 682 571 q 937 499 871 571 q 1003 331 1003 428 q 799 31 1003 168 l 714 126 q 913 371 913 265 q 889 439 913 410 q 817 468 865 468 q 590 324 707 468 l 590 -36 l 557 -46 l 475 7 l 475 228 q 382 203 432 203 q 176 305 271 203 q 81 536 81 407 l 81 747 l 0 747 l -42 817 l -29 844 l 1046 844 l 1088 775 l 1075 747 m 475 747 l 136 747 l 197 694 l 197 399 q 335 313 239 313 q 475 379 417 313 l 475 747 z "},"ब":{"ha":799,"x_min":-42,"x_max":840,"o":"m 828 747 l 614 747 l 674 694 l 674 -36 l 640 -46 l 558 7 l 558 175 q 383 117 482 117 q 152 206 257 117 q 47 411 47 294 q 117 570 47 507 q 289 633 188 633 q 357 625 324 633 l 558 525 l 558 747 l 0 747 l -42 817 l -29 844 l 799 844 l 840 775 l 828 747 m 471 251 q 558 335 526 286 l 558 458 q 336 531 439 531 l 304 529 l 471 251 m 200 238 q 317 208 244 208 q 413 224 368 208 l 239 508 q 153 361 153 463 q 200 238 153 293 z "},"भ":{"ha":907,"x_min":28,"x_max":949,"o":"m 936 747 l 722 747 l 782 694 l 782 -36 l 749 -46 l 667 7 l 667 308 l 404 308 l 404 174 l 338 146 q 228 241 286 178 q 147 360 171 304 l 185 414 l 285 414 l 285 668 q 235 796 285 758 q 163 776 190 800 q 135 715 135 751 q 208 613 135 653 l 172 564 q 28 753 28 654 q 69 842 28 808 q 168 876 111 876 q 325 798 256 876 q 397 622 394 719 l 397 414 l 667 414 l 667 747 l 506 747 l 464 817 l 476 844 l 907 844 l 949 775 l 936 747 z "},"म":{"ha":867,"x_min":-42,"x_max":908,"o":"m 896 747 l 682 747 l 742 694 l 742 -36 l 708 -46 l 626 7 l 626 299 l 336 299 l 336 164 l 269 136 q 160 231 218 168 q 79 350 103 294 l 117 404 l 217 404 l 203 747 l 0 747 l -42 817 l -29 844 l 867 844 l 908 775 l 896 747 m 626 747 l 260 747 l 319 694 l 326 404 l 626 404 l 626 747 z "},"य":{"ha":815,"x_min":-42,"x_max":857,"o":"m 844 747 l 631 747 l 690 694 l 690 -36 l 657 -46 l 575 7 l 575 182 q 421 131 513 131 q 203 216 310 131 q 40 432 96 301 l 58 482 q 228 522 179 497 q 278 599 278 547 q 251 672 278 639 q 161 747 224 704 l 0 747 l -42 817 l -29 844 l 815 844 l 857 775 l 844 747 m 575 747 l 258 747 q 383 558 383 660 q 176 383 383 421 q 257 240 203 289 q 340 225 294 225 q 475 258 410 225 q 575 356 540 292 l 575 747 z "},"र":{"ha":544,"x_min":-42,"x_max":586,"o":"m 574 747 l 318 747 l 378 697 l 378 513 q 240 288 378 425 l 554 31 l 556 7 l 479 -65 l 47 376 l 78 460 l 251 460 q 263 525 263 489 l 263 747 l 0 747 l -42 817 l -29 844 l 544 844 l 586 775 l 574 747 z "},"ऱ":{"ha":544,"x_min":-42,"x_max":586,"o":"m 574 747 l 318 747 l 378 697 l 378 513 q 240 288 378 425 l 554 31 l 556 7 l 479 -65 l 47 376 l 78 460 l 251 460 q 263 525 263 489 l 263 747 l 0 747 l -42 817 l -29 844 l 544 844 l 586 775 l 574 747 m 188 -132 q 94 -60 128 -110 q 169 32 124 3 q 260 -40 219 14 q 188 -132 236 -101 z "},"ल":{"ha":956,"x_min":-42,"x_max":990,"o":"m 978 747 l 764 747 l 824 694 l 824 -36 l 790 -46 l 708 7 l 708 497 q 558 415 617 493 q 494 214 500 338 l 461 204 l 379 271 q 411 408 383 343 q 294 468 357 468 q 203 433 243 468 q 164 335 164 399 q 422 7 164 185 l 375 -54 q 49 378 49 175 q 108 527 49 467 q 250 588 168 588 q 350 560 306 588 l 443 461 q 676 575 526 575 l 708 574 l 708 747 l 0 747 l -42 817 l -29 844 l 949 844 l 990 775 l 978 747 z "},"ळ":{"ha":997,"x_min":-42,"x_max":1039,"o":"m 1026 747 l 706 747 l 765 694 l 765 574 q 894 452 839 538 q 950 260 950 367 q 883 69 950 146 q 715 -7 815 -7 q 613 21 665 -7 l 504 139 q 308 -6 418 -6 q 131 94 208 -6 q 53 322 53 194 q 117 512 53 436 q 274 588 182 588 q 376 561 335 588 l 515 414 q 650 582 582 553 l 650 747 l 0 747 l -42 817 l -29 844 l 997 844 l 1039 775 l 1026 747 m 854 297 q 815 438 854 372 q 713 518 776 504 q 636 413 676 496 l 535 194 q 689 97 607 97 q 811 158 768 97 q 854 297 854 218 m 278 68 q 419 204 353 68 l 486 353 q 306 482 388 482 q 200 422 243 482 q 157 276 157 361 q 192 144 157 201 q 278 68 226 88 z "},"ऴ":{"ha":997,"x_min":-42,"x_max":1039,"o":"m 1026 747 l 706 747 l 765 694 l 765 574 q 894 452 839 538 q 950 260 950 367 q 883 69 950 146 q 715 -7 815 -7 q 613 21 665 -7 l 504 139 q 308 -6 418 -6 q 131 94 208 -6 q 53 322 53 194 q 117 512 53 436 q 274 588 182 588 q 376 561 335 588 l 515 414 q 650 582 582 553 l 650 747 l 0 747 l -42 817 l -29 844 l 997 844 l 1039 775 l 1026 747 m 854 297 q 815 438 854 372 q 713 518 776 504 q 636 413 676 496 l 535 194 q 689 97 607 97 q 811 158 768 97 q 854 297 854 218 m 278 68 q 419 204 353 68 l 486 353 q 306 482 388 482 q 200 422 243 482 q 157 276 157 361 q 192 144 157 201 q 278 68 226 88 m 517 -156 q 424 -83 457 -133 q 499 8 453 -21 q 589 -64 549 -10 q 517 -156 565 -125 z "},"व":{"ha":785,"x_min":-42,"x_max":826,"o":"m 814 747 l 600 747 l 660 694 l 660 -36 l 626 -46 l 544 7 l 544 181 q 382 122 478 122 q 153 209 260 122 q 46 410 46 296 q 117 565 46 503 q 289 628 188 628 q 357 619 324 628 l 544 529 l 544 747 l 0 747 l -42 817 l -29 844 l 785 844 l 826 775 l 814 747 m 201 242 q 296 218 236 218 q 435 250 365 218 q 544 340 506 282 l 544 454 q 343 521 438 521 q 206 472 254 521 q 157 356 157 424 q 201 242 157 289 z "},"श":{"ha":1031,"x_min":-42,"x_max":1072,"o":"m 1060 747 l 846 747 l 906 694 l 906 -36 l 872 -46 l 790 7 l 790 747 l 535 747 q 603 649 581 707 q 625 538 625 590 q 552 344 625 442 q 333 183 479 246 l 599 17 l 600 -7 l 528 -76 l 253 151 l 215 149 q 97 182 125 149 l 140 335 l 186 346 l 257 274 q 424 369 357 310 q 214 467 296 390 q 132 642 132 543 q 165 747 132 704 l 0 747 l -42 817 l -29 844 l 1031 844 l 1072 775 l 1060 747 m 467 418 q 522 581 522 492 q 481 711 522 660 q 375 763 440 763 q 283 724 318 763 q 247 624 247 685 q 309 486 247 542 q 467 418 371 431 z "},"ष":{"ha":799,"x_min":-42,"x_max":840,"o":"m 828 747 l 614 747 l 674 694 l 674 -36 l 640 -46 l 558 7 l 558 231 q 421 179 503 179 q 195 279 296 179 q 94 508 94 379 l 94 747 l 0 747 l -42 817 l -29 844 l 799 844 l 840 775 l 828 747 m 558 747 l 268 747 l 549 399 l 558 424 l 558 747 m 375 285 q 507 338 458 285 l 210 711 l 210 371 q 375 285 253 285 z "},"स":{"ha":967,"x_min":-42,"x_max":1008,"o":"m 996 747 l 782 747 l 842 694 l 842 -36 l 808 -46 l 726 7 l 726 336 l 286 336 l 240 288 l 554 31 l 556 7 l 479 -65 l 47 376 l 78 460 l 251 460 q 263 525 263 489 l 263 747 l 0 747 l -42 817 l -29 844 l 967 844 l 1008 775 l 996 747 m 726 747 l 318 747 l 378 697 l 378 513 q 356 432 378 474 l 726 432 l 726 747 z "},"ह":{"ha":754,"x_min":-42,"x_max":796,"o":"m 783 747 l 582 747 l 642 694 l 642 532 l 329 532 q 185 449 185 531 q 226 375 185 411 q 393 418 296 418 q 602 349 515 418 q 689 179 689 281 q 572 1 689 61 l 496 94 q 569 163 540 122 q 599 238 599 203 q 594 261 599 251 q 443 314 536 314 q 292 268 354 314 l 292 267 q 231 147 231 219 q 351 -35 231 42 q 654 -154 471 -111 l 625 -222 q 255 -65 393 -174 q 117 182 117 44 q 178 338 117 274 q 86 500 86 414 q 135 601 86 558 q 308 644 183 644 l 533 644 l 533 747 l 0 747 l -42 817 l -29 844 l 754 844 l 796 775 l 783 747 z "},"क़":{"ha":1007,"x_min":-42,"x_max":1049,"o":"m 250 -106 q 157 -33 190 -83 q 232 58 186 29 q 322 -14 282 40 q 250 -106 299 -75 m 1036 747 l 503 747 l 563 694 l 563 476 q 738 557 646 557 q 892 485 826 557 q 958 317 958 414 q 754 17 958 154 l 669 113 q 868 357 868 251 q 844 426 868 397 q 771 454 821 454 q 563 314 672 454 l 563 -36 l 529 -46 l 447 7 l 447 192 q 319 143 390 143 q 126 226 217 143 q 35 413 35 310 q 97 556 35 497 q 244 614 160 614 q 303 606 274 614 l 447 536 l 447 747 l 0 747 l -42 817 l -29 844 l 1007 844 l 1049 775 l 1036 747 m 172 260 q 257 236 213 236 q 447 339 368 236 l 447 467 q 301 513 365 513 q 185 467 229 513 q 140 360 140 422 q 172 260 140 306 z "},"ख़":{"ha":1086,"x_min":-42,"x_max":1128,"o":"m 1115 747 l 901 747 l 961 694 l 961 -36 l 928 -46 l 846 7 l 846 49 q 606 -28 750 -28 q 297 89 444 -28 q 82 390 150 206 l 113 460 l 269 460 q 286 553 286 496 l 285 747 l 0 747 l -42 817 l -29 844 l 1086 844 l 1128 775 l 1115 747 m 846 747 l 342 747 l 399 697 l 399 526 q 377 434 399 472 q 243 261 356 396 q 401 114 303 167 q 597 61 500 61 q 846 158 749 61 l 846 208 q 744 175 804 175 q 556 257 644 175 q 468 433 468 339 q 528 568 468 511 q 669 625 588 625 l 713 621 l 846 549 l 846 747 m 846 483 q 714 525 783 525 q 603 484 644 525 q 563 386 563 443 q 603 286 563 331 q 692 267 646 267 q 846 351 807 267 l 846 483 m 263 -142 q 169 -69 203 -119 q 244 22 199 -7 q 335 -50 294 4 q 263 -142 311 -111 z "},"ग़":{"ha":819,"x_min":-42,"x_max":861,"o":"m 849 747 l 635 747 l 694 694 l 694 -36 l 661 -46 l 579 7 l 579 747 l 253 747 l 313 694 l 313 206 l 246 178 q 135 267 188 211 q 63 378 82 324 l 101 432 l 197 432 l 197 747 l 0 747 l -42 817 l -29 844 l 819 844 l 861 775 l 849 747 m 369 -99 q 276 -26 310 -76 q 351 65 306 36 q 442 -7 401 47 q 369 -99 418 -68 z "},"ज़":{"ha":926,"x_min":-42,"x_max":968,"o":"m 956 747 l 742 747 l 801 694 l 801 -36 l 768 -46 l 686 7 l 686 467 l 451 467 q 537 367 507 425 q 567 250 567 308 q 513 119 567 168 q 383 71 460 71 q 171 197 263 71 q 18 542 79 324 l 88 564 q 203 285 142 381 q 349 190 264 190 q 431 223 400 190 q 461 306 461 256 q 394 450 461 382 l 268 507 l 268 572 l 686 572 l 686 747 l 0 747 l -42 817 l -29 844 l 926 844 l 968 775 l 956 747 m 436 -143 q 343 -71 376 -121 q 418 21 372 -8 q 508 -51 468 3 q 436 -143 485 -112 z "},"ड़":{"ha":824,"x_min":-42,"x_max":865,"o":"m 853 747 l 617 747 l 676 694 l 676 511 l 392 511 q 243 421 243 511 q 294 328 243 371 l 532 403 q 688 313 626 383 q 750 158 750 243 q 681 8 750 68 q 499 -53 611 -53 q 277 22 388 -53 q 49 276 167 96 l 100 314 q 453 58 257 58 q 592 103 536 58 q 647 213 647 147 q 622 289 647 254 l 400 215 q 274 265 333 225 q 178 361 214 306 q 142 469 142 417 q 198 583 142 535 q 365 631 254 631 l 568 631 l 568 747 l 0 747 l -42 817 l -29 844 l 824 844 l 865 775 l 853 747 m 497 -260 q 404 -187 438 -237 q 479 -96 433 -125 q 569 -168 529 -114 q 497 -260 546 -229 z "},"ढ़":{"ha":775,"x_min":-42,"x_max":817,"o":"m 804 747 l 561 747 l 621 694 l 621 474 l 382 474 q 235 422 292 474 q 178 289 178 369 q 274 100 178 179 q 444 63 381 63 l 471 64 l 408 106 q 375 210 375 156 q 419 322 375 276 q 531 367 464 367 q 668 299 610 367 q 726 151 726 232 q 662 13 726 67 q 489 -42 597 -42 q 197 75 324 -42 q 69 335 69 192 q 151 517 69 446 q 368 589 233 589 l 513 589 l 513 747 l 0 747 l -42 817 l -29 844 l 775 844 l 817 775 l 804 747 m 483 172 q 518 71 483 122 q 614 120 578 86 q 650 200 650 154 q 629 260 650 236 q 576 283 608 283 q 512 253 540 283 q 483 172 483 224 m 478 -243 q 385 -171 418 -221 q 460 -79 414 -108 q 550 -151 510 -97 q 478 -243 526 -212 z "},"फ़":{"ha":1046,"x_min":-42,"x_max":1088,"o":"m 1075 747 l 531 747 l 590 694 l 590 485 q 782 571 682 571 q 937 499 871 571 q 1003 331 1003 428 q 799 31 1003 168 l 714 126 q 913 371 913 265 q 889 439 913 410 q 817 468 865 468 q 590 324 707 468 l 590 -36 l 557 -46 l 475 7 l 475 228 q 382 203 432 203 q 176 305 271 203 q 81 536 81 407 l 81 747 l 0 747 l -42 817 l -29 844 l 1046 844 l 1088 775 l 1075 747 m 475 747 l 136 747 l 197 694 l 197 399 q 335 313 239 313 q 475 379 417 313 l 475 747 m 276 -68 q 183 4 217 -46 q 258 96 213 67 q 349 24 308 78 q 276 -68 325 -37 z "},"य़":{"ha":815,"x_min":-42,"x_max":857,"o":"m 844 747 l 631 747 l 690 694 l 690 -36 l 657 -46 l 575 7 l 575 182 q 421 131 513 131 q 203 216 310 131 q 40 432 96 301 l 58 482 q 228 522 179 497 q 278 599 278 547 q 251 672 278 639 q 161 747 224 704 l 0 747 l -42 817 l -29 844 l 815 844 l 857 775 l 844 747 m 575 747 l 258 747 q 383 558 383 660 q 176 383 383 421 q 257 240 203 289 q 340 225 294 225 q 475 258 410 225 q 575 356 540 292 l 575 747 m 297 -87 q 204 -15 238 -65 q 279 76 233 47 q 369 4 329 58 q 297 -87 346 -57 z "},"ॹ":{"ha":926,"x_min":-42,"x_max":968,"o":"m 956 747 l 742 747 l 801 694 l 801 -36 l 768 -46 l 686 7 l 686 467 l 451 467 q 537 367 507 425 q 567 250 567 308 q 513 119 567 168 q 383 71 460 71 q 171 197 263 71 q 18 542 79 324 l 88 564 q 203 285 142 381 q 349 190 264 190 q 431 223 400 190 q 461 306 461 256 q 394 450 461 382 l 268 507 l 268 572 l 686 572 l 686 747 l 0 747 l -42 817 l -29 844 l 926 844 l 968 775 l 956 747 m 296 -147 q 203 -75 236 -125 q 278 17 232 -12 q 368 -56 328 -1 q 296 -147 344 -117 m 414 -286 q 321 -214 354 -264 q 396 -122 350 -151 q 486 -194 446 -140 q 414 -286 463 -256 m 514 -147 q 421 -75 454 -125 q 496 17 450 -12 q 586 -56 546 -1 q 514 -147 563 -117 z "},"ॺ":{"ha":815,"x_min":-42,"x_max":857,"o":"m 844 747 l 631 747 l 690 694 l 690 -36 l 657 -46 l 575 7 l 575 182 q 421 131 513 131 q 203 216 310 131 q 40 432 96 301 l 58 482 q 228 522 179 497 q 278 599 278 547 q 251 672 278 639 q 161 747 224 704 l 0 747 l -42 817 l -29 844 l 815 844 l 857 775 l 844 747 m 575 747 l 258 747 q 383 558 383 660 l 382 533 l 574 353 l 575 356 l 575 747 m 257 240 q 339 225 294 225 q 529 297 454 225 l 350 467 q 176 383 300 407 q 257 240 203 289 z "},"ॻ":{"ha":819,"x_min":-42,"x_max":861,"o":"m 849 747 l 635 747 l 694 694 l 694 -104 l 668 -132 l 158 -132 l 117 -62 l 129 -35 l 579 -35 l 579 747 l 253 747 l 313 694 l 313 206 l 246 178 q 135 267 188 211 q 63 378 82 324 l 101 432 l 197 432 l 197 747 l 0 747 l -42 817 l -29 844 l 819 844 l 861 775 l 849 747 z "},"ॼ":{"ha":926,"x_min":-42,"x_max":968,"o":"m 956 747 l 742 747 l 801 694 l 801 -104 l 775 -132 l 172 -132 l 131 -62 l 143 -35 l 686 -35 l 686 481 l 451 481 q 537 381 507 439 q 567 264 567 322 q 513 133 567 182 q 383 85 460 85 q 171 211 263 85 q 18 556 79 338 l 88 578 q 203 299 142 394 q 349 204 264 204 q 431 237 400 204 q 461 319 461 269 q 394 464 461 396 l 268 521 l 268 586 l 686 586 l 686 747 l 0 747 l -42 817 l -29 844 l 926 844 l 968 775 l 956 747 z "},"ॾ":{"ha":824,"x_min":-42,"x_max":865,"o":"m 865 775 l 853 747 l 617 747 l 676 694 l 676 511 l 392 511 q 243 421 243 511 q 294 328 243 371 l 532 403 q 688 313 626 383 q 750 158 750 243 q 681 8 750 68 q 499 -53 611 -53 q 277 22 388 -53 q 49 276 167 96 l 100 314 q 453 58 257 58 q 592 103 536 58 q 647 213 647 147 q 622 289 647 254 l 400 215 q 274 265 333 225 q 178 361 214 306 q 142 469 142 417 q 198 583 142 535 q 365 631 254 631 l 568 631 l 568 747 l 0 747 l -42 817 l -29 844 l 824 844 l 865 775 m 749 -117 l 790 -186 l 778 -214 l 190 -214 l 149 -144 l 161 -117 l 749 -117 z "},"ॿ":{"ha":799,"x_min":-42,"x_max":840,"o":"m 828 747 l 614 747 l 674 694 l 674 -104 l 647 -132 l 151 -132 l 110 -62 l 122 -35 l 558 -35 l 558 175 q 383 117 482 117 q 152 206 257 117 q 47 411 47 294 q 117 570 47 507 q 289 633 188 633 q 357 625 324 633 l 558 525 l 558 747 l 0 747 l -42 817 l -29 844 l 799 844 l 840 775 l 828 747 m 471 251 q 558 335 526 286 l 558 458 q 336 531 439 531 l 304 529 l 471 251 m 200 238 q 317 208 244 208 q 413 224 368 208 l 239 508 q 153 361 153 463 q 200 238 153 293 z "},"ऽ":{"ha":833,"x_min":128,"x_max":669,"o":"m 254 611 q 292 547 254 574 q 412 483 331 519 q 546 414 493 446 q 634 332 599 382 q 669 211 669 282 q 608 58 669 115 q 453 1 546 1 q 258 81 343 1 q 128 279 172 161 l 199 329 q 428 101 285 101 q 527 135 488 101 q 567 224 567 169 q 461 361 567 301 l 283 454 q 158 626 158 528 q 210 733 158 690 q 379 776 261 776 l 597 776 l 640 700 l 622 672 l 375 672 q 254 611 254 669 z "},"ॽ":{"ha":738,"x_min":111,"x_max":626,"o":"m 626 589 q 382 315 626 397 l 382 -36 l 349 -46 l 278 7 l 278 404 q 464 488 400 426 q 528 625 528 550 q 463 764 528 704 l 436 767 q 300 735 379 767 q 167 657 221 703 l 111 750 q 350 851 238 851 q 544 776 461 851 q 626 589 626 700 z "},"ा":{"ha":365,"x_min":-42,"x_max":407,"o":"m 394 747 l 181 747 l 240 694 l 240 -36 l 207 -46 l 125 7 l 125 747 l 0 747 l -42 817 l -29 844 l 365 844 l 407 775 l 394 747 z "},"ि":{"ha":365,"x_min":-42,"x_max":911,"o":"m 374 1131 q 215 1085 276 1131 q 153 967 153 1040 q 197 844 153 911 l 365 844 l 407 775 l 394 747 l 181 747 l 240 694 l 240 -36 l 207 -46 l 125 7 l 125 747 l 0 747 l -42 817 l -29 844 l 122 844 q 39 1018 39 928 q 116 1173 39 1114 q 315 1232 193 1232 q 582 1163 432 1232 q 911 924 732 1093 l 871 878 q 596 1069 710 1008 q 374 1131 482 1131 z "},"ी":{"ha":365,"x_min":-371,"x_max":407,"o":"m 394 747 l 181 747 l 240 694 l 240 -36 l 207 -46 l 125 7 l 125 747 l 0 747 l -42 817 l -29 844 l 125 844 q -133 1156 26 1156 q -226 1119 -190 1156 q -262 1035 -262 1083 q -217 913 -262 979 l -254 883 q -371 1089 -371 986 q -316 1213 -371 1161 q -176 1264 -261 1264 q 51 1150 -51 1264 q 204 844 153 1036 l 365 844 l 407 775 l 394 747 z "},"ु":{"ha":0,"x_min":-657,"x_max":-24,"o":"m -376 -76 q -225 11 -319 11 q -83 -53 -143 11 q -24 -201 -24 -117 q -78 -328 -24 -279 q -214 -376 -133 -376 q -657 -83 -404 -376 l -608 -39 q -418 -215 -500 -156 q -257 -274 -336 -274 q -154 -237 -192 -274 q -117 -154 -117 -201 q -187 -58 -117 -86 l -294 -165 l -376 -76 z "},"ू":{"ha":0,"x_min":-440,"x_max":150,"o":"m -114 -287 q -249 -340 -178 -340 q -381 -283 -321 -340 q -440 -151 -440 -225 q -384 -33 -440 -82 q -254 17 -328 17 q 15 -171 -129 17 l 150 -358 l 99 -394 l -54 -196 q -228 -87 -144 -87 q -315 -119 -282 -87 q -349 -193 -349 -150 q -310 -268 -349 -237 l -172 -182 l -114 -287 z "},"ृ":{"ha":0,"x_min":-444,"x_max":-3,"o":"m -125 -79 q -291 -135 -218 -94 q -364 -229 -364 -175 q -338 -278 -364 -260 q -269 -296 -312 -296 q -161 -271 -218 -296 q -61 -208 -104 -246 l -3 -303 q -204 -389 -97 -389 q -372 -328 -299 -389 q -444 -185 -444 -267 q -376 -54 -444 -111 q -154 24 -308 3 l -125 24 l -125 -79 z "},"ॄ":{"ha":0,"x_min":-407,"x_max":67,"o":"m 67 -386 q -112 -471 -15 -471 q -249 -419 -187 -471 q -310 -308 -310 -368 q -301 -269 -310 -287 q -407 -147 -407 -218 q -165 29 -407 -29 l -125 29 l -125 -64 q -269 -114 -222 -90 q -317 -175 -317 -137 q -268 -228 -317 -208 q -93 -147 -214 -181 l -33 -217 l -46 -247 q -183 -297 -137 -267 q -228 -356 -228 -326 q -176 -393 -228 -393 q -81 -366 -135 -393 q 13 -300 -28 -339 l 67 -386 z "},"ॢ":{"ha":0,"x_min":-261,"x_max":263,"o":"m 263 -393 q 154 -474 224 -474 q 77 -441 113 -474 q 42 -362 42 -408 q 88 -267 42 -325 q 135 -178 135 -210 q 122 -134 135 -153 q 83 -115 108 -115 q 23 -154 49 -115 q -3 -246 -3 -193 l 0 -281 l -62 -286 l -69 -228 q -60 -162 -69 -197 q -115 -135 -83 -135 q -166 -155 -146 -135 q -186 -210 -186 -175 q -62 -375 -186 -299 l -96 -415 q -261 -194 -261 -308 q -226 -101 -261 -140 q -133 -61 -190 -61 q -32 -110 -76 -61 q 69 -60 8 -60 q 163 -100 125 -60 q 200 -190 200 -140 q 149 -299 200 -237 q 99 -385 99 -361 q 110 -410 99 -401 q 136 -419 122 -419 q 178 -402 156 -419 q 214 -354 201 -385 l 263 -393 z "},"ॣ":{"ha":0,"x_min":-286,"x_max":288,"o":"m 288 -507 q 186 -562 243 -562 q 107 -533 144 -562 q 69 -464 69 -503 l 72 -444 q 17 -362 17 -415 q 63 -267 17 -325 q 110 -178 110 -210 q 97 -134 110 -153 q 58 -115 83 -115 q -2 -154 24 -115 q -28 -246 -28 -193 l -25 -281 l -87 -286 l -94 -228 q -85 -162 -94 -197 q -140 -135 -108 -135 q -191 -155 -171 -135 q -211 -210 -211 -175 q -87 -375 -211 -299 l -121 -415 q -286 -194 -286 -308 q -251 -101 -286 -140 q -158 -61 -215 -61 q -57 -110 -101 -61 q 44 -60 -17 -60 q 138 -100 100 -60 q 175 -190 175 -140 q 124 -299 175 -237 q 74 -385 74 -361 q 90 -414 74 -404 q 199 -360 124 -375 l 214 -421 q 148 -447 171 -429 q 125 -483 125 -465 q 161 -512 125 -512 q 250 -461 206 -512 l 288 -507 z "},"ॅ":{"ha":0,"x_min":-499,"x_max":-7,"o":"m -7 1136 q -81 992 -26 1042 q -212 942 -136 942 q -365 992 -289 942 q -499 1139 -442 1043 l -451 1185 q -253 1038 -365 1038 q -107 1181 -139 1038 l -7 1136 z "},"ॆ":{"ha":0,"x_min":-710,"x_max":-158,"o":"m -647 1271 q -499 1117 -621 1136 l -342 1101 l -296 1092 q -158 835 -165 1056 l -229 835 q -339 981 -235 958 l -499 1001 l -537 1010 q -710 1257 -679 1046 l -647 1271 z "},"े":{"ha":0,"x_min":-729,"x_max":-142,"o":"m -729 1178 q -565 1244 -649 1244 q -331 1090 -437 1244 l -142 819 l -196 785 l -376 1040 q -519 1124 -440 1124 q -664 1071 -582 1124 l -729 1178 z "},"ै":{"ha":0,"x_min":-747,"x_max":-137,"o":"m -158 806 l -196 782 l -401 981 q -536 1044 -468 1044 q -682 992 -597 1044 l -747 1099 q -587 1163 -672 1163 q -376 1050 -478 1163 l -201 854 l -294 1122 q -467 1285 -353 1285 q -587 1254 -521 1285 l -642 1368 q -493 1411 -565 1411 q -237 1160 -311 1411 l -137 819 l -158 806 z "},"ॉ":{"ha":365,"x_min":-281,"x_max":407,"o":"m 394 747 l 181 747 l 240 694 l 240 -36 l 207 -46 l 125 7 l 125 747 l 0 747 l -42 817 l -29 844 l 365 844 l 407 775 l 394 747 m 211 1108 q 137 964 192 1014 q 6 914 82 914 q -147 965 -71 914 q -281 1111 -224 1015 l -233 1157 q -35 1010 -147 1010 q 111 1153 79 1010 l 211 1108 z "},"ॊ":{"ha":365,"x_min":-331,"x_max":407,"o":"m 394 747 l 181 747 l 240 694 l 240 -36 l 207 -46 l 125 7 l 125 747 l 0 747 l -42 817 l -29 844 l 150 844 q 46 979 143 958 l -153 1008 q -331 1257 -300 1044 l -268 1271 q -206 1153 -253 1192 q -38 1108 -160 1115 q 127 1072 83 1101 q 194 989 171 1043 q 221 844 217 935 l 365 844 l 407 775 l 394 747 z "},"ो":{"ha":365,"x_min":-383,"x_max":407,"o":"m 394 747 l 181 747 l 240 694 l 240 -36 l 207 -46 l 125 7 l 125 747 l 0 747 l -42 817 l -29 844 l 108 844 l -31 1040 q -174 1124 -94 1124 q -318 1071 -236 1124 l -383 1178 q -219 1244 -303 1244 q 15 1090 -92 1244 l 186 844 l 365 844 l 407 775 l 394 747 z "},"ौ":{"ha":365,"x_min":-406,"x_max":407,"o":"m 394 747 l 181 747 l 240 694 l 240 -36 l 207 -46 l 125 7 l 125 747 l 0 747 l -42 817 l -29 844 l 64 844 l -60 939 q -203 999 -142 999 q -340 950 -264 999 l -406 1057 q -257 1117 -335 1117 q -33 1007 -151 1117 l 139 846 l 42 1092 q -129 1243 -24 1243 q -246 1213 -176 1243 l -300 1326 q -156 1368 -229 1368 q 103 1122 21 1368 l 196 844 l 365 844 l 407 775 l 394 747 z "},"ॖ":{"ha":0,"x_min":-619,"x_max":-110,"o":"m -587 -96 q -378 -182 -482 -182 q -165 -97 -258 -182 l -110 -181 q -204 -252 -143 -225 q -332 -279 -265 -279 q -493 -240 -411 -279 q -619 -136 -575 -201 l -587 -96 z "},"ॗ":{"ha":0,"x_min":-619,"x_max":-110,"o":"m -587 -304 q -378 -390 -482 -390 q -165 -306 -258 -390 l -110 -389 q -204 -460 -143 -433 q -332 -487 -265 -487 q -493 -449 -411 -487 q -619 -344 -575 -410 l -587 -304 m -587 -96 q -378 -182 -482 -182 q -165 -97 -258 -182 l -110 -181 q -204 -252 -143 -225 q -332 -279 -265 -279 q -493 -240 -411 -279 q -619 -136 -575 -201 l -587 -96 z "},"ऺ":{"ha":0,"x_min":-231,"x_max":-150,"o":"m -150 778 l -183 768 l -231 799 l -231 1076 l -150 1076 l -150 778 z "},"ऻ":{"ha":365,"x_min":-42,"x_max":407,"o":"m 394 747 l 181 747 l 240 694 l 240 -36 l 207 -46 l 125 7 l 125 747 l 0 747 l -42 817 l -29 844 l 132 844 l 132 1076 l 213 1076 l 213 844 l 365 844 l 407 775 l 394 747 z "},"ॏ":{"ha":365,"x_min":-368,"x_max":407,"o":"m 394 747 l 181 747 l 240 694 l 240 -36 l 207 -46 l 125 7 l 125 747 l 0 747 l -42 817 l -29 844 l 139 844 q -17 942 113 938 l -124 942 q -274 983 -211 942 q -368 1132 -337 1024 l -308 1160 q -258 1067 -287 1092 q -175 1043 -228 1043 l -106 1043 q 103 993 47 1043 l 111 1004 q 38 1054 78 1036 l -104 1114 q -203 1271 -203 1156 q -193 1356 -203 1311 l -125 1349 q -132 1292 -132 1321 q -109 1231 -132 1251 q 54 1150 -86 1211 q 215 896 215 1079 l 213 844 l 365 844 l 407 775 l 394 747 z "},"ॕ":{"ha":440,"x_min":-61,"x_max":461,"o":"m 431 1136 q 356 992 411 1042 q 225 942 301 942 q 72 992 149 942 q -61 1139 -4 1043 l -14 1185 q 185 1038 72 1038 q 331 1181 299 1038 l 431 1136 m -42 817 l -29 844 l 419 844 l 461 775 l 449 747 l 0 747 l -42 817 z "},"्":{"ha":0,"x_min":-374,"x_max":119,"o":"m -172 -175 l -292 -229 l -374 -151 q -211 -92 -287 -92 q -79 -154 -151 -92 l 119 -342 l 71 -393 l -172 -175 z "},"ऀ":{"ha":0,"x_min":-518,"x_max":-26,"o":"m -518 1071 q -444 1215 -499 1165 q -312 1265 -389 1265 q -160 1215 -236 1265 q -26 1068 -83 1164 l -74 1022 q -272 1169 -160 1169 q -418 1026 -386 1169 l -518 1071 m -250 1092 q -178 1000 -201 1061 q -268 928 -218 946 q -343 1019 -314 957 q -250 1092 -310 1069 z "},"ँ":{"ha":0,"x_min":-499,"x_max":-7,"o":"m -250 1111 q -343 1183 -310 1133 q -268 1275 -314 1246 q -178 1203 -218 1257 q -250 1111 -201 1142 m -7 1122 q -81 978 -26 1028 q -212 928 -136 928 q -365 978 -289 928 q -499 1125 -442 1029 l -451 1171 q -253 1024 -365 1024 q -107 1167 -139 1024 l -7 1122 z "},"ं":{"ha":0,"x_min":-101,"x_max":78,"o":"m 0 965 q -56 999 -25 975 q -101 1043 -86 1022 q -19 1143 -67 1117 q 78 1065 36 1122 q 0 965 53 1001 z "},"ः":{"ha":297,"x_min":56,"x_max":221,"o":"m 149 454 q 56 526 89 476 q 131 618 85 589 q 221 546 181 600 q 149 454 197 485 m 149 107 q 56 179 89 129 q 131 271 85 242 q 221 199 181 253 q 149 107 197 138 z "},"़":{"ha":0,"x_min":-85,"x_max":81,"o":"m 8 -285 q -85 -212 -51 -262 q -10 -121 -56 -150 q 81 -193 40 -139 q 8 -285 57 -254 z "},"॑":{"ha":0,"x_min":-235,"x_max":-154,"o":"m -154 972 l -187 963 l -235 993 l -235 1319 l -201 1329 l -154 1299 l -154 972 z "},"॒":{"ha":0,"x_min":-489,"x_max":-81,"o":"m -489 -206 l -479 -172 l -111 -172 l -81 -219 l -90 -253 l -458 -253 l -489 -206 z "},"॓":{"ha":0,"x_min":-401,"x_max":-126,"o":"m -126 988 l -158 947 l -186 947 l -401 1164 l -369 1207 l -342 1207 l -126 988 z "},"॔":{"ha":0,"x_min":-289,"x_max":-10,"o":"m -254 953 l -289 994 l -74 1203 l -46 1203 l -10 1154 l -226 953 l -254 953 z "},"ॱ":{"ha":385,"x_min":103,"x_max":282,"o":"m 204 710 q 149 743 179 719 q 103 788 118 767 q 185 888 138 861 q 282 810 240 867 q 204 710 257 746 z "},"०":{"ha":642,"x_min":56,"x_max":575,"o":"m 360 149 q 152 244 249 149 q 56 460 56 339 q 123 623 56 557 q 281 689 190 689 q 483 592 392 689 q 575 372 575 494 q 512 213 575 276 q 360 149 449 149 m 425 569 q 329 593 376 593 q 207 538 257 593 q 157 404 157 483 q 210 264 157 326 q 304 244 258 244 q 430 299 382 244 q 478 428 478 353 q 425 569 478 507 z "},"१":{"ha":603,"x_min":96,"x_max":524,"o":"m 379 204 l 428 168 q 524 32 524 96 q 486 -50 524 -10 l 381 4 q 401 57 401 29 q 381 107 401 86 q 113 313 361 128 l 113 379 l 290 519 q 396 693 396 603 q 350 790 396 750 l 321 794 q 238 756 272 794 q 208 672 204 718 q 276 582 213 615 l 243 542 q 96 718 96 626 q 142 829 96 782 q 258 876 189 876 q 419 800 349 876 q 489 636 489 724 q 360 422 489 531 l 231 318 l 379 204 z "},"२":{"ha":676,"x_min":42,"x_max":635,"o":"m 576 -46 l 226 269 q 142 283 188 268 q 81 315 96 297 l 125 465 l 171 476 l 247 388 q 421 482 361 415 q 481 632 481 549 q 394 786 481 731 q 110 671 256 794 l 42 771 q 157 845 89 814 q 296 876 225 876 q 501 791 414 876 q 588 593 588 706 q 517 412 588 496 q 321 290 447 328 l 633 24 l 635 0 l 576 -46 z "},"३":{"ha":725,"x_min":49,"x_max":647,"o":"m 647 261 q 567 111 647 171 q 351 51 488 51 l 525 -121 l 526 -144 l 469 -189 l 264 53 q 174 82 224 57 q 106 128 124 107 l 158 256 l 204 267 l 283 150 l 328 147 q 481 190 419 147 q 542 297 542 233 q 502 386 542 346 q 385 446 463 426 l 211 375 l 150 488 q 325 533 229 539 q 472 686 472 579 q 413 790 472 758 l 394 792 q 253 758 332 792 q 117 674 175 725 l 49 771 q 167 846 94 815 q 311 876 239 876 q 495 808 418 876 q 572 651 572 740 q 467 488 572 551 q 601 385 554 446 q 647 261 647 325 z "},"४":{"ha":731,"x_min":-28,"x_max":703,"o":"m 703 771 q 419 469 500 567 q 576 176 576 299 q 528 50 576 97 q 410 3 479 3 q 244 80 319 3 q 168 246 168 157 q 288 494 168 343 q -28 789 154 633 l 28 851 l 74 810 l 339 554 q 628 854 418 644 l 703 771 m 304 106 q 361 93 336 93 q 438 125 408 93 q 468 204 468 157 q 368 406 468 285 q 269 197 269 279 q 304 106 269 142 z "},"५":{"ha":722,"x_min":56,"x_max":692,"o":"m 692 1 l 681 -21 l 614 -42 l 506 307 q 333 210 439 210 q 201 253 269 210 q 94 369 132 296 q 56 526 56 442 q 153 864 56 676 l 261 821 q 161 469 161 603 q 192 344 161 397 q 278 310 226 310 q 381 348 332 310 q 450 443 431 386 l 404 578 l 433 615 l 578 579 q 551 426 582 513 l 692 1 z "},"६":{"ha":676,"x_min":56,"x_max":649,"o":"m 649 -122 l 640 -146 l 569 -160 l 513 67 q 413 49 464 49 q 194 132 296 49 q 93 322 93 215 q 182 490 93 426 q 56 682 56 571 q 125 818 56 764 q 304 872 194 872 q 519 814 428 872 l 519 708 q 325 765 419 765 q 203 734 250 765 q 157 649 157 703 q 243 521 157 574 q 376 542 306 542 q 522 524 451 542 l 528 414 q 403 428 457 428 q 244 388 296 428 q 193 286 193 349 q 260 156 193 208 q 335 144 297 144 q 479 182 414 144 l 461 282 l 510 308 l 642 192 q 572 99 632 149 l 649 -122 z "},"७":{"ha":818,"x_min":0,"x_max":749,"o":"m 471 740 q 666 621 583 740 q 749 343 749 501 q 680 115 749 203 q 496 28 611 28 q 179 246 296 28 q 0 731 63 464 l 81 758 q 242 297 151 442 q 458 153 333 153 q 583 202 533 153 q 644 344 632 251 q 561 326 604 326 q 390 406 474 326 q 307 576 307 485 q 353 692 307 643 q 471 740 400 740 m 428 444 q 507 425 457 425 q 644 471 590 425 q 601 597 635 550 q 515 644 567 644 q 442 608 469 644 q 414 517 414 571 q 428 444 414 481 z "},"८":{"ha":592,"x_min":42,"x_max":557,"o":"m 135 254 q 176 155 135 190 q 276 119 218 119 q 475 253 392 119 l 557 174 q 325 18 460 18 q 129 106 217 18 q 42 293 42 193 q 132 503 42 388 l 390 831 l 456 732 l 201 407 q 135 254 135 317 z "},"९":{"ha":622,"x_min":17,"x_max":608,"o":"m 608 33 q 571 -50 608 -4 l 464 4 q 490 65 490 35 q 443 153 490 106 l 158 439 q 54 563 92 506 q 17 688 17 621 q 71 822 17 767 q 201 876 125 876 q 365 795 292 876 q 439 625 439 714 q 288 410 439 504 l 508 197 q 608 33 608 101 m 128 650 q 204 493 128 581 q 305 581 267 529 q 343 679 343 632 q 317 751 343 719 q 246 782 292 782 q 163 744 197 782 q 128 650 128 706 z "},"।":{"ha":608,"x_min":308,"x_max":421,"o":"m 421 -53 l 388 -62 l 308 4 l 308 867 l 342 876 l 421 810 l 421 -53 z "},"॥":{"ha":969,"x_min":308,"x_max":782,"o":"m 421 -53 l 388 -62 l 308 4 l 308 867 l 342 876 l 421 810 l 421 -53 m 782 -53 l 749 -62 l 669 4 l 669 867 l 703 876 l 782 810 l 782 -53 z "},"॰":{"ha":400,"x_min":111,"x_max":539,"o":"m 357 233 q 188 303 264 233 q 111 468 111 374 q 168 606 111 551 q 307 660 225 660 q 470 590 401 660 q 539 422 539 519 q 486 287 539 340 q 357 233 433 233 m 406 557 q 340 572 375 572 q 247 531 285 572 q 210 431 210 489 q 247 333 210 372 q 311 319 279 319 q 407 360 368 319 q 446 457 446 400 q 406 557 446 515 z "},"ꣻ":{"ha":365,"x_min":-42,"x_max":407,"o":"m -42 817 l -29 844 l 365 844 l 407 775 l 394 747 l 0 747 l -42 817 z "},"࿕":{"ha":1107,"x_min":139,"x_max":968,"o":"m 611 469 l 886 469 l 942 400 l 942 0 l 908 -10 l 835 53 l 835 372 l 611 372 l 611 29 l 585 0 l 181 0 l 139 69 l 151 97 l 501 97 l 501 372 l 207 372 l 151 442 l 151 844 l 185 854 l 258 792 l 258 469 l 501 469 l 501 814 l 528 844 l 926 844 l 968 775 l 956 747 l 611 747 l 611 469 z "},"ॐ":{"ha":1367,"x_min":21,"x_max":1349,"o":"m 756 999 q 663 1071 696 1021 q 738 1163 692 1133 q 828 1090 788 1144 q 756 999 804 1029 m 790 815 q 753 815 790 815 q 640 867 717 815 q 507 1013 563 918 l 554 1058 q 753 911 640 911 q 899 1054 867 911 l 999 1010 q 922 867 981 919 q 790 815 864 815 m 1113 751 q 1280 678 1211 751 q 1349 504 1349 604 q 1264 296 1349 401 q 1054 132 1179 190 l 976 218 q 1173 367 1086 265 q 1260 554 1260 469 q 1228 639 1260 604 q 1144 674 1196 674 q 1001 571 1061 674 l 907 390 q 717 256 829 256 q 660 265 685 256 l 661 243 q 593 83 661 149 q 421 17 525 17 q 215 99 314 17 q 21 379 115 181 l 83 417 q 222 194 151 271 q 389 117 293 117 q 513 165 465 117 q 561 281 561 213 q 531 373 561 331 q 443 432 500 415 l 296 356 l 233 465 q 375 517 296 514 q 503 679 503 582 q 456 769 503 742 q 333 743 404 775 q 204 656 263 711 l 136 749 q 367 854 244 854 q 526 790 456 854 q 596 646 596 726 q 511 482 596 553 q 638 347 597 432 q 696 325 668 325 q 760 358 732 325 q 854 524 789 390 q 978 704 919 657 q 1113 751 1038 751 z "},"◌":{"ha":997,"x_min":139,"x_max":858,"o":"m 500 675 q 453 725 453 675 q 500 775 453 775 q 535 760 522 775 q 547 725 547 744 q 535 690 547 706 q 500 675 522 675 m 342 635 q 294 685 294 635 q 342 735 294 735 q 376 719 364 735 q 389 685 389 704 q 376 650 389 665 q 342 635 364 635 m 656 635 q 608 685 608 635 q 656 735 608 735 q 690 719 678 735 q 703 685 703 704 q 690 650 703 665 q 656 635 678 635 m 226 519 q 179 569 179 519 q 226 619 179 619 q 261 604 249 619 q 274 569 274 589 q 261 535 274 550 q 226 519 249 519 m 772 519 q 725 569 725 519 q 772 619 725 619 q 807 604 794 619 q 819 569 819 589 q 807 535 819 550 q 772 519 794 519 m 186 363 q 139 413 139 363 q 186 463 139 463 q 221 447 208 463 q 233 413 233 432 q 221 378 233 393 q 186 363 208 363 m 811 363 q 764 413 764 363 q 811 463 764 463 q 846 447 833 463 q 858 413 858 432 q 846 378 858 393 q 811 363 833 363 m 226 207 q 179 257 179 207 q 226 307 179 307 q 261 292 249 307 q 274 257 274 276 q 261 222 274 238 q 226 207 249 207 m 772 207 q 725 257 725 207 q 772 307 725 307 q 807 292 794 307 q 819 257 819 276 q 807 222 819 238 q 772 207 794 207 m 343 90 q 296 140 296 90 q 343 190 296 190 q 378 175 365 190 q 390 140 390 160 q 378 106 390 121 q 343 90 365 90 m 656 90 q 608 140 608 90 q 656 190 608 190 q 690 175 678 190 q 703 140 703 160 q 690 106 703 121 q 656 90 678 90 m 501 51 q 454 101 454 51 q 501 151 454 151 q 536 136 524 151 q 549 101 549 121 q 536 67 549 82 q 501 51 524 51 z "},"‌":{"ha":0,"x_min":-96,"x_max":94,"o":"m 0 1107 l 72 1181 l 94 1157 l 22 1086 l 94 1013 l 72 990 l 0 1063 l -74 989 l -96 1013 l -24 1086 l -96 1157 l -74 1182 l 0 1107 z "},"‍":{"ha":0,"x_min":-137,"x_max":139,"o":"m 107 1071 l -106 1071 l -106 1007 l -137 1007 l -137 1101 l 139 1101 l 139 1007 l 107 1007 l 107 1071 z "}}}
